<?xml version="1.0" standalone="no"?>
<!DOCTYPE svg PUBLIC "-//W3C//DTD SVG 1.1//EN" "http://www.w3.org/Graphics/SVG/1.1/DTD/svg11.dtd" >
<svg xmlns="http://www.w3.org/2000/svg" xmlns:xlink="http://www.w3.org/1999/xlink" version="1.1">
<metadata></metadata>
<defs>
<font id="notera_personal_use_onlyRg" horiz-adv-x="1777" >
<font-face units-per-em="2048" ascent="1536" descent="-512" />
<missing-glyph horiz-adv-x="602" />
<glyph horiz-adv-x="0" />
<glyph unicode="&#xd;" horiz-adv-x="681" />
<glyph unicode=" "  horiz-adv-x="602" />
<glyph unicode="&#x09;" horiz-adv-x="602" />
<glyph unicode="&#xa0;" horiz-adv-x="602" />
<glyph unicode="!" horiz-adv-x="235" d="M20 25.5q-6 19.5 6.5 42t37 41t55.5 18.5t36 -19.5t-6.5 -43t-36 -42t-55.5 -18.5q-31 2 -37 21.5zM221.5 308.5q-6.5 13.5 1.5 23.5q47 72 95.5 144.5t103.5 139.5q27 35 55.5 65t59.5 60q10 12 23 26.5t30 14.5q18 0 30.5 -17t4.5 -36q-6 -12 -18.5 -20.5t-24.5 -18.5 q-18 -14 -35 -30.5t-35 -32.5q-33 -29 -60.5 -62t-56.5 -65q-29 -35 -52.5 -71t-47.5 -73q-8 -12 -20.5 -36.5t-30.5 -24.5q-16 0 -22.5 13.5z" />
<glyph unicode="&#x22;" horiz-adv-x="342" d="M188.5 379q0.5 10 10.5 16q47 35 89 77t70 95q10 20 19.5 48t38.5 28q20 -2 29.5 -19.5t-1.5 -35.5q-16 -47 -57 -89t-76 -71q-18 -16 -38.5 -38.5t-43.5 -33.5q-10 -8 -19 -6t-15.5 10.5t-6 18.5zM311.5 379q0.5 10 10.5 16q47 35 89 77t70 95q10 20 19.5 48t38.5 28 q20 -2 29.5 -19.5t-1.5 -35.5q-16 -47 -57 -89t-76 -71q-18 -16 -38.5 -38.5t-43.5 -33.5q-10 -8 -19 -6t-15.5 10.5t-6 18.5z" />
<glyph unicode="#" horiz-adv-x="641" d="M25 86q-8 12 0 24.5t24 10.5q29 -4 55.5 -5t55.5 1q18 31 34.5 63.5t32.5 67.5h-63q-10 0 -21.5 2t-17.5 12q-8 14 1 25.5t24 9.5q25 -4 49 -4h49q0 4 2 6q16 33 31.5 78t37.5 74q20 20 49 9t27 -40t-23.5 -62.5t-39.5 -62.5q29 4 54.5 7t53.5 7h6q16 33 29.5 74t36.5 68 q20 20 49 9t27 -40q-2 -20 -13.5 -44t-27.5 -46q10 2 19 2h20q25 -4 30 -30t-18 -40q-20 -10 -48 -11t-56 -1q-16 -23 -29.5 -48.5t-30.5 -49.5q14 4 26.5 4h22.5q27 -4 32 -31t-19 -39q-20 -14 -52 -14t-61 2q-12 -18 -24.5 -37t-26.5 -37q-8 -12 -16.5 -23.5t-22.5 -9.5 q-16 4 -21.5 19.5t7.5 25.5l43 60q-29 -2 -56.5 -2h-56.5h-21l-49 -70q-6 -12 -14 -23.5t-25 -9.5q-16 4 -20 19.5t6 25.5l45 60h-68q-10 0 -21 2t-17 12zM221 119q29 2 59.5 6t59.5 8q14 0 22 2q33 51 58 113q-29 -2 -55.5 -2h-55.5h-10q-16 -29 -32.5 -56.5t-35.5 -54.5 q-4 -4 -5 -8t-5 -8z" />
<glyph unicode="$" horiz-adv-x="968" d="M137 -61q0 53 21.5 107t52.5 101q43 55 105.5 100.5t138.5 43.5q29 -4 54.5 -10.5t47.5 -22.5l57 109q-20 47 -32.5 94t-8.5 100q2 41 21.5 82t50.5 68.5t71 38t85 -8.5q4 8 8 19.5t10 36.5q10 23 27.5 32t32 4.5t20.5 -19.5t-6 -40l-35 -69q29 -29 41 -67t12 -81 q0 -18 -2 -38.5t-8 -37.5v2q-10 -39 -30.5 -72.5t-49.5 -74.5q-10 -14 -21.5 -22.5t-29.5 -4.5h2q-25 6 -28 29.5t16 38.5q23 20 44 48t34.5 58.5t16.5 64.5t-11 64q-4 8 -9.5 13.5l-13.5 13.5q-18 -43 -58 -116.5t-87 -166.5l16 -32q31 -57 54.5 -115.5t15.5 -130.5 t-48 -138.5t-99.5 -116.5t-133 -79t-147.5 -25q-10 -14 -14.5 -22t-8.5 -19q-4 -8 -15 -12t-23.5 -4t-20.5 4t-4 12q8 10 16 23.5t17 30.5q-47 16 -82 51t-52 82q-6 16 -8 35.5t-2 38.5zM201 -47q0 -39 18 -76q16 -35 43 -53.5t55 -22.5q45 78 100.5 182.5t110.5 215.5 l-14 12q-35 18 -68 18q-47 0 -92 -27.5t-75 -62.5q-35 -37 -56.5 -85t-21.5 -101zM377 -205q14 4 31.5 8t35.5 11q55 14 102.5 44.5t82.5 71.5t54 90.5t19 102.5q0 35 -8 69.5t-22 65.5l-19 33l-6 8l-45 -82q18 -29 23 -63.5t-11 -71.5q-10 -18 -25.5 -24.5t-27.5 -2.5 t-17 17.5t5 36.5q4 8 4 18l-72 -135zM631 526q0 -47 18 -96q29 57 52.5 104.5t35.5 75.5q8 18 15.5 32.5t13.5 31.5q-4 0 -7 1t-7 1q-29 4 -48.5 -10.5t-37.5 -36.5q-18 -23 -26.5 -49.5t-8.5 -53.5z" />
<glyph unicode="%" horiz-adv-x="806" d="M-17 -144.5q-1 9.5 9 17.5q135 98 258 206.5t244 223.5l118 107q10 12 24.5 29.5t31 35t33 29.5t32.5 14q29 4 39 -20.5t-10 -42.5l-137 -119q-111 -94 -219.5 -185.5t-219.5 -183.5l-120 -100l-41 -31q-10 -8 -19.5 -6t-15.5 9t-7 16.5zM176 306q-4 46 25 83 q27 33 60.5 63.5t72.5 53.5q-8 16 0 33.5t31 21.5q23 6 53.5 1t48.5 -21q4 -4 7 -6.5t5 -6.5l8 -8v-2q14 -20 13.5 -46t-9 -50.5t-22.5 -47t-29 -38.5q-16 -20 -40.5 -40t-52.5 -34t-57.5 -20t-56.5 2q-53 16 -57 62zM245 -91q-1 28 21 56q37 47 92.5 87t116.5 48 q12 2 28.5 3t26.5 -9q23 -18 13 -37v-4h2q14 -29 8 -57.5t-25 -52.5q-29 -37 -70.5 -71t-88.5 -44q-33 -6 -61.5 4t-45 29.5t-17.5 47.5zM246.5 353.5q-15.5 -29.5 7.5 -38.5q18 -6 40.5 -3t45 13.5t42 25t32.5 30.5q10 16 21 37.5t11 44.5l-8 4q-29 12 -68.5 -6.5 t-73.5 -48t-49.5 -59zM307 -74q-4 -12 5.5 -18t22.5 -8t27.5 -1t20.5 3q27 8 50.5 23.5t43.5 33.5q14 16 21.5 37.5t-15.5 36.5q-23 6 -51.5 -2t-55 -23.5t-46 -38.5t-23.5 -43z" />
<glyph unicode="&#x26;" horiz-adv-x="739" d="M10 -61q12 47 49 88t74 71q23 20 44.5 39t43.5 37q-25 0 -46 8t-38 31q-14 25 -14 53.5t9 57t23.5 55.5t28.5 49q33 51 76 99t93 89t107.5 71t117.5 46q27 6 55.5 7t54 -6t46 -24.5t30.5 -45.5q8 -29 3 -57.5t-19.5 -55.5t-34 -50.5t-39.5 -41.5q-45 -41 -96.5 -75 t-106.5 -60q-16 -10 -38.5 -21.5t-43.5 0.5q-23 12 -18 38t30 30q43 8 95.5 28.5t98.5 52t75.5 75.5t27.5 98q-2 33 -25.5 43t-58 5t-74.5 -21.5t-78 -36t-66.5 -38t-39.5 -26.5q-80 -66 -135 -148q-8 -12 -21.5 -35.5t-22.5 -49t-10 -49t17 -38.5q16 -12 34 -12t35 6 t34.5 13.5t34.5 5.5l110 20t113 21l117 22q23 4 46 9.5t46 11.5q23 4 48 12t42 -6q20 -16 17 -28.5t-15 -22t-30.5 -14.5t-29.5 -7q-43 -6 -86 -11t-88 -9q-2 -33 -16 -68t-18 -47q-43 -94 -119 -172t-172 -119q-41 -23 -89 -32t-96 1q-47 10 -77.5 45t-14.5 89zM77 -88 q5 -18 20.5 -27.5t39 -11.5t45.5 2q104 12 191.5 77.5t140.5 153.5q25 47 41 101q0 4 1 11t1 15q-43 -6 -87 -11t-89 -13q-10 -4 -24.5 -9t-26.5 -5q-6 -6 -8 -7q-29 -18 -55.5 -37.5t-53.5 -41.5q-37 -33 -72 -70t-57 -80q-12 -29 -7 -47z" />
<glyph unicode="'" horiz-adv-x="4" d="M41 379q0 10 10 16q47 35 89 77t71 95q10 20 19.5 48t37.5 28q20 -2 29.5 -19.5t-0.5 -35.5q-16 -47 -57 -89t-76 -71q-18 -16 -39 -38.5t-43 -33.5q-10 -8 -19.5 -6t-15.5 10.5t-6 18.5z" />
<glyph unicode="(" horiz-adv-x="333" d="M46 87q3 81 33 160t83 148q51 63 111.5 112.5t132.5 90.5q10 6 34.5 19.5t57 29t67.5 28.5t64.5 19t51 2t28.5 -24q2 -18 -6.5 -27.5t-22.5 -15.5t-29.5 -9.5t-25.5 -5.5q-90 -23 -170 -61q-80 -39 -147.5 -92t-121.5 -125q-53 -72 -79.5 -158t-10.5 -178q14 -88 72 -164 q6 -12 20.5 -29.5t-4.5 -31.5q-8 -8 -18 -7t-16 9q-55 70 -81 149.5t-23 160.5z" />
<glyph unicode=")" horiz-adv-x="403" d="M-259 -199.5q5 13.5 21 15.5q82 14 162 50t148.5 88t124 119.5t90.5 145.5q35 74 41 158t-25 162q-16 39 -43 73q-10 12 -21.5 26.5t-7.5 33.5q8 33 34 26.5t42 -24.5q53 -74 70.5 -155t6.5 -163t-47 -159.5t-91 -143.5q-55 -68 -124 -121t-147 -92q-41 -20 -83 -36.5 t-87 -26.5q-12 -4 -29.5 -9.5t-29.5 9.5q-10 10 -5 23.5z" />
<glyph unicode="*" horiz-adv-x="526" d="M92 326.5q2 13.5 19 17.5q41 12 79.5 27.5t75.5 36.5q-8 4 -15 8t-15 10q-20 12 -50 26.5t-47 36.5q-12 23 0.5 44.5t32.5 15.5q27 -10 52.5 -37t45.5 -43q6 -4 11.5 -8t11.5 -8l6 24q10 23 15 57.5t22 57.5q14 16 37.5 12t27.5 -26q4 -23 -13 -51.5t-28 -51.5l-8 -20 l21 14q27 16 59.5 43t63.5 37q27 6 42 -15.5t-1 -44.5t-54.5 -37t-64.5 -26l-49 -25q29 -16 56 -31.5t58 -25.5q12 -4 14.5 -17.5t-8.5 -23.5q-8 -8 -16 -5t-18 7l-107 55l-31 17h-2q-4 -6 -6 -10.5t-4 -8.5q-10 -27 -25.5 -52t-29.5 -56q-4 -6 -10.5 -13.5t-18.5 -7.5 q-12 -4 -19 7.5t-1 21.5q16 23 28.5 45.5t24.5 44.5l-109 -43q-10 -4 -21 -7t-22 5q-12 10 -10 23.5z" />
<glyph unicode="+" horiz-adv-x="686" d="M96 168q-8 12 0 24.5t25 8.5q92 -10 188 0l15 45q10 25 15 58.5t21 55.5q14 16 38 12.5t28 -26.5t-13.5 -51.5t-27.5 -50.5l-18 -37l43 6q33 4 72.5 15.5t72.5 7.5q27 -4 32 -30t-20 -38q-12 -8 -28.5 -10t-35 -2h-36.5h-33q-47 -6 -92 -6q-8 -8 -12 -23 q-10 -25 -25.5 -51.5t-30.5 -55.5q-4 -8 -10 -15t-18 -7q-12 -2 -19.5 8.5t-1.5 20.5q37 53 66 123h-10q-35 0 -72 1t-74 1q-10 0 -22.5 2t-16.5 14z" />
<glyph unicode="," horiz-adv-x="315" d="M-73.5 -116.5q0.5 10.5 10.5 18.5q47 35 89 76.5t70 95.5q10 20 18.5 48t37.5 28q23 -2 32 -19.5t-2 -36.5q-16 -47 -57 -89t-76 -71q-18 -16 -39.5 -38.5t-44.5 -32.5q-10 -8 -19 -6t-14.5 9t-5 17.5z" />
<glyph unicode="-" horiz-adv-x="696" d="M98 168q-8 12 0.5 24.5t24.5 8.5q72 -6 145.5 -2t145.5 14q31 4 70.5 15.5t72.5 7.5q27 -4 32 -30t-20 -38q-12 -8 -28.5 -10t-35 -2h-35.5h-32q-80 -6 -155 -6q-35 0 -72 1t-74 1q-10 0 -21.5 2t-17.5 14z" />
<glyph unicode="." horiz-adv-x="321" d="M61 25.5q-6 19.5 6.5 42t38 41t54.5 18.5q31 0 37 -19.5t-6.5 -43t-37 -42t-55.5 -18.5q-31 2 -37 21.5z" />
<glyph unicode="/" horiz-adv-x="784" d="M-17 -144.5q-1 9.5 9 17.5q135 98 258 206.5t244 223.5l118 107q10 12 24.5 29.5t31 35t33 29.5t32.5 14q29 4 39 -20.5t-10 -42.5l-137 -119q-111 -94 -219.5 -185.5t-219.5 -183.5l-120 -100l-41 -31q-10 -8 -19.5 -6t-15.5 9t-7 16.5z" />
<glyph unicode="0" d="M25 629q66 35 131 64.5t137 49.5q4 0 8 19.5t8 43t7 46t8 31.5q20 31 63 49t76 33q84 35 170 59.5t174 46.5q90 23 179 38t181 24q33 4 77 8t90 3t87 -11.5t66 -36.5q4 -4 0 -28t-6 -32l-6 -92q0 -4 4 -4q76 -23 145.5 -55.5t116.5 -98.5v-2q-16 4 -35.5 -3t-38 -19 t-36 -26.5t-25.5 -24.5q29 -16 46 -45t25.5 -64t7 -69.5t-11.5 -63.5q-16 41 -48 63.5t-69.5 32.5t-80.5 13.5t-80 5.5q-41 4 -88 2t-88 12q-16 6 -22.5 24.5t-7.5 41t2 45t5 34.5q-174 -12 -345 -52t-335 -97q-6 -4 -6 -6q2 -10 7 -33t10 -47.5t6.5 -46t-7.5 -27.5 q-23 -16 -55.5 -20t-60.5 -8q-37 -4 -75 -10.5t-75 -12.5q-66 -12 -123 -37q-14 -6 -27.5 -12t-27.5 -17q-6 -6 -16.5 -17t-16.5 -15q10 33 23.5 63.5t25.5 61.5q2 6 12.5 24.5t20.5 39t17.5 36.5t5.5 20q-23 33 -55.5 64t-73.5 35zM74 -270h43q4 -39 8 -79t10 -79 q4 41 10.5 80t12.5 78h37l22 -158q6 82 19 158h38l-38 -213h-41q-6 35 -11.5 70.5t-9.5 70.5q-4 -35 -10 -71t-12 -70h-41zM78 635q33 -20 57.5 -46t44.5 -57q2 -4 -3 -16t-13 -26.5t-15.5 -27.5t-9.5 -18q-10 -23 -20 -45t-19 -45q47 25 98.5 37t103.5 19.5t104.5 14.5 t101.5 24q-16 18 -44 24t-59.5 7t-62.5 -2t-51 -5v124t4 124q-57 -14 -110.5 -35.5t-106.5 -50.5zM281 -270h43q4 -39 8 -79t10 -79q4 41 10 80t13 78h36l23 -158q6 82 18 158h39l-39 -213h-41q-6 35 -11 70.5t-9 70.5q-4 -35 -10 -71t-13 -70h-41zM315 530q18 0 49 20.5 t50 29.5q35 16 71.5 28.5t71.5 24.5q145 45 299 80q74 16 147.5 29.5t149.5 21.5q70 6 148.5 9t144.5 -28q4 53 4 106.5t4 106.5q2 29 3 55.5t5 53.5q2 12 -5 20.5t-19.5 13.5t-25.5 7t-23 4q-115 16 -236 0t-233 -39q-123 -25 -243 -57.5t-235 -83.5q-23 -10 -45 -21.5 t-41 -27.5q-20 -16 -24 -47t-8 -54q-8 -63 -8.5 -125.5t-0.5 -126.5zM340 641q0 20 14.5 34.5t34.5 18.5q4 2 13.5 -1t5.5 -13q-12 -8 -23 -8q-10 -4 -14 -15.5t2 -21.5q4 -4 16 -8q18 -2 30.5 11t22 31.5t13.5 39t8 32.5q-29 -25 -57 -32q-27 -4 -44 10q-16 10 -16 35 q0 27 12 49q29 59 84 94q20 12 50 23q10 4 20 11t20 9q9 0 7 -12q12 0 18 -2q35 -4 39 -43q6 -41 -21.5 -79t-62.5 -61q-18 -12 -27.5 -30.5t-17.5 -37t-19.5 -35.5t-31.5 -28q-23 -14 -51 -8q-29 6 -25 37zM376 745.5q3 -14.5 21 -14.5q29 0 47.5 19.5t29.5 46t17.5 55.5 t10.5 47q-27 -6 -50.5 -22.5t-41.5 -36.5q-6 -6 -15.5 -23.5t-15.5 -37t-3 -34zM487 -270h43q4 -39 8.5 -79t10.5 -79q4 41 10 80l12 78h37l23 -158q6 82 18 158h39l-39 -213h-41q-6 35 -11 70.5t-9 70.5q-4 -35 -10.5 -71t-12.5 -70h-41zM496 760q14 4 28.5 18.5t23.5 32.5 t13 37.5t0 34.5q-6 20 -31 20q-12 -35 -19 -71.5t-15 -71.5zM545 -12.5q2 32.5 2 57.5q0 18 -1 36.5t1 37.5q0 47 25.5 64.5t68.5 17.5q37 0 53.5 -19.5t21.5 -48.5t3 -61.5t-2 -57.5v-73q0 -47 -25.5 -65.5t-66.5 -16.5q-37 0 -54.5 19.5t-22.5 48t-3 61zM589 760.5 q-5 19.5 5 44t29.5 44t40.5 21.5q12 0 16 -10q8 -12 2 -26q-6 -23 -25.5 -39.5t-42.5 -20.5q2 -12 10.5 -13t16.5 3t16.5 10t12.5 10q23 20 33 44t20 49q4 6 -8.5 24.5t-7.5 30.5q8 27 32 22q10 0 15 -12q4 -10 3 -22.5t-3 -22.5q20 2 28.5 -1t-4.5 -26q-8 -16 -17 -32.5 t-11 -34.5q0 -8 8 -8q20 -2 32.5 17t23.5 45t21.5 49.5t24.5 31.5q6 2 14 -2q6 -6 3 -12q-4 -10 -9.5 -19.5t-1.5 -21.5t11.5 -24.5t5.5 -27.5h2q10 12 17 27.5t14.5 31t16.5 29t25 19.5q35 14 48 -18q8 -14 5 -24.5t-1 -27.5q8 2 14 9q14 12 16 33.5t9 37.5q2 6 9 7t13 -1 q8 -4 6 -12v-2q10 10 23 16q20 8 28 -12q4 -12 1 -22.5t-8 -20.5t-9 -20.5t-2 -22.5q27 20 39 52t41 51q20 12 49 0q4 8 17.5 9t9.5 -14q-4 -18 -14.5 -37.5t-10.5 -37.5q0 -12 8 -4q18 18 28.5 44.5t20 54.5t22.5 51.5t40 39.5q14 6 22 -8q12 -23 4 -46.5t-22 -39.5 q-6 -8 -18.5 -18.5t-23.5 -22.5t-18.5 -24.5t-3.5 -24.5q4 -16 21 -13q14 4 20.5 17.5t14.5 23.5q6 6 12 2q8 0 8 -8l-4 -12q-16 -37 -51 -51q-25 -12 -41 14q-4 4 -4 10q-8 -8 -15.5 -15t-17.5 -11q-14 -4 -26 10q-16 -12 -29 -14q-29 -6 -41 18v2q-8 -8 -16.5 -15 t-20.5 -12q-14 -6 -25 11q-6 12 -3 22t8.5 21.5t8.5 21.5t1 21q-16 -6 -23.5 -17.5t-10.5 -25t-5 -27.5t-8 -27q-6 -16 -25 -8q-6 2 -6 10q0 4 1 8.5t1 8.5q-14 -4 -19.5 -4t-15.5 -10t-22.5 -18.5t-28.5 -8.5q-10 2 -16.5 8t-10.5 14q-16 -16 -38.5 -31.5t-45.5 -11.5 q-14 2 -24 17q-10 -10 -21.5 -20.5t-25.5 -14.5q-29 -10 -33 20q-4 25 8 41.5t21 36.5q2 4 -2.5 5t-6.5 -3q-8 -18 -18 -41.5t-23.5 -43t-33 -33t-45.5 -11.5q-29 2 -34 21.5zM598 11q-2 -36 2 -70q0 -14 9 -25.5t19.5 -14.5t20.5 2t15 21q4 12 3 26.5t-1 26.5v142 q0 14 -9.5 25.5t-20.5 14.5t-22.5 -2t-13.5 -22q-2 -12 -1 -26.5t1 -26.5q0 -35 -2 -71zM612 252q10 14 13.5 35.5t2.5 45t-3 46t-2 39.5v119v29.5t-11 27.5h72q-12 -12 -11 -31.5t1 -36.5v-133q0 -16 -1 -47t9 -45q8 -10 18.5 -11t19.5 4t16 14t9 18q6 25 2 51t-8 51 q-4 14 -10 36.5t-8 46.5t2 44t20 31q10 8 31 9t27 -15t-1 -21.5t-17.5 -3.5t-17.5 8t1 15q-16 -8 -16 -28t6 -42.5t15 -43t13 -32.5q12 -35 17.5 -83t-19.5 -81q-10 -14 -32.5 -18t-48 -4t-50 3t-39.5 3zM614 795q10 -2 26.5 14t18.5 27q4 6 -2 10t-12 0 q-10 -10 -17.5 -23.5t-13.5 -27.5zM672 -457q0 14 9 21.5t19.5 7.5t19.5 -7t9 -22q0 -14 -9 -21t-19.5 -7t-19.5 7t-9 21zM729 924q-2 -9 4 -19h2q0 6 2 12.5t-2 12.5q-4 0 -6 -6zM733 -141q10 12 12.5 32.5t1 43t-3.5 43t-2 36.5v166q0 8 -8 21h53q27 -12 49.5 -49 t32.5 -64q0 25 3 57.5t-13 55.5h72q-10 -10 -10 -23.5v-27.5v-234v-30.5t10 -26.5h-197zM748 -483l57 213h61l56 -213h-50l-14 49h-49l-10 -49h-51zM795 -98q0 -14 11 -22.5t24.5 -10.5t24.5 3t13 17q-2 59 -18 122t-55 110v-219zM814 337.5q-3 18.5 5 29.5q10 12 31.5 14 t26.5 -21q0 -10 -7.5 -15t-14.5 -5t-13 4t-6 14q-12 -4 -12.5 -13t7 -20.5t17.5 -19.5t16 -10q12 -4 31.5 -3t30.5 11q20 20 16 38.5t-19.5 35t-35 30t-29.5 23.5q-16 14 -27.5 40t-11.5 50.5t12.5 45t40.5 26.5q25 4 51.5 3t51.5 -1l-6 -10q0 -12 7 -27.5t12 -30t4 -28 t-15 -25.5q-12 -10 -30.5 -9t-20.5 21q0 10 6 15.5t14 5.5t14.5 -5t4.5 -14q12 2 12 12.5t-7 20.5t-17.5 19.5t-16.5 11.5q-14 4 -31.5 1t-23.5 -17q-12 -25 -4 -42.5t24.5 -30.5t35.5 -25.5t30 -26.5q14 -18 21 -45t4 -50.5t-18.5 -42t-45.5 -20.5q-27 -2 -52.5 -1t-50.5 1 q8 2 5 16.5t-8 32.5t-8 36.5zM815 -397h39q-4 23 -9 44t-11 44zM821 819q4 -12 16.5 -10t14.5 14q2 18 -10 41q-6 -8 -14.5 -21.5t-6.5 -23.5zM934 862l4 -12q6 -18 23 -8q14 6 21 21.5t5 31.5q-2 10 -9 16.5t-22 -4.5q-18 -14 -22 -45zM940 -141q10 14 13 35.5t2 45t-3 46 t-2 39.5v118v29.5t-10 28.5h72q-10 -10 -13.5 -29.5t-2.5 -41t3 -42t2 -33.5v-155h99q23 0 54.5 -3t51.5 11q-4 -8 -7 -28.5t-13 -20.5h-246zM948 -272q27 4 61.5 6t57.5 -15q31 -23 24 -55.5t-36 -46.5q14 -6 20 -18.5t9 -26.5t5.5 -29.5t8.5 -25.5h-49q-6 10 -8.5 25.5 t-6.5 28.5t-12 21.5t-25 6.5v-82h-49v211zM995.5 -330.5q1.5 -23.5 1.5 -34.5h13q18 0 25 10.5t6 21.5t-11 20.5t-26 7.5q-10 -2 -8.5 -25.5zM1004 252q10 10 10 23.5v27.5v234v29.5t-10 27.5h120q23 -25 24 -57.5t-9 -63.5q-4 -8 -13.5 -28.5t-18.5 -43t-12 -43t9 -26.5 q-4 12 6 13t20.5 -4t12.5 -13.5t-17 -16.5q-23 -10 -33 8.5t-8 34.5q0 14 6.5 30.5t8.5 30t-4 21.5t-29 6v-149q16 0 41 -2t41 10q-4 -12 -7 -24.5t-7 -24.5h-131zM1034 201h76q-12 -27 1 -63t24 -58q12 29 22 59.5t0 61.5h76q-20 -12 -24.5 -37t-10.5 -45q-6 -18 -22.5 -46 t-16.5 -46q0 -10 -1 -24.5t-1 -29t2 -28t10 -21.5h-71q16 16 13 50t-3 57q-23 41 -39 88q-8 23 -12 45t-23 37zM1067 485q20 0 44 2t26 31q2 31 -24 33t-46 2v-68zM1124 -270h50v-213h-50v213zM1174 893q-4 -10 1 -25.5t21 -3.5q12 10 20.5 31t10.5 37q-4 18 -15 14 q-16 -8 -25 -22.5t-13 -30.5zM1202 -457q0 14 9.5 21.5t19.5 7.5t19.5 -7t9.5 -22q0 -14 -9.5 -21t-19.5 -7t-19.5 7t-9.5 21zM1221 629q-6 -6 4 -8q51 -20 113.5 -16.5t115.5 -0.5q55 -4 111 -18q29 -8 49 -22.5t45 -26.5q0 59 -19.5 101t-76.5 64q33 29 65.5 56t73.5 43 q-47 45 -105.5 72.5t-121.5 44.5q-2 -53 -3.5 -107.5t-5.5 -108.5l-2 3v-7q-25 -2 -60.5 -4t-70.5 -8t-65.5 -19.5t-46.5 -37.5zM1288 -270h53l66 -144q-4 35 -4 72v72h45v-213h-49q-18 37 -34.5 74.5t-35.5 72.5q4 -37 4 -73.5v-73.5h-45v213zM1315 956q16 18 30.5 37.5 t18.5 44.5h-2q-35 -39 -47 -82zM1475.5 -399.5q-7.5 34.5 13.5 75.5q12 29 39.5 42.5t58.5 13.5h10.5t17.5 -2t15 -4t6 -5l-8 -38q-25 12 -46 8t-34.5 -18.5t-18.5 -35t3 -45.5q12 -43 57 -38q10 2 8 20t-2 27h-24v39h71v-115q-39 -14 -74.5 -8t-60 27.5t-32 56z" />
<glyph unicode="1" d="M25 629q66 35 131 64.5t137 49.5q4 0 8 19.5t8 43t7 46t8 31.5q20 31 63 49t76 33q84 35 170 59.5t174 46.5q90 23 179 38t181 24q33 4 77 8t90 3t87 -11.5t66 -36.5q4 -4 0 -28t-6 -32l-6 -92q0 -4 4 -4q76 -23 145.5 -55.5t116.5 -98.5v-2q-16 4 -35.5 -3t-38 -19 t-36 -26.5t-25.5 -24.5q29 -16 46 -45t25.5 -64t7 -69.5t-11.5 -63.5q-16 41 -48 63.5t-69.5 32.5t-80.5 13.5t-80 5.5q-41 4 -88 2t-88 12q-16 6 -22.5 24.5t-7.5 41t2 45t5 34.5q-174 -12 -345 -52t-335 -97q-6 -4 -6 -6q2 -10 7 -33t10 -47.5t6.5 -46t-7.5 -27.5 q-23 -16 -55.5 -20t-60.5 -8q-37 -4 -75 -10.5t-75 -12.5q-66 -12 -123 -37q-14 -6 -27.5 -12t-27.5 -17q-6 -6 -16.5 -17t-16.5 -15q10 33 23.5 63.5t25.5 61.5q2 6 12.5 24.5t20.5 39t17.5 36.5t5.5 20q-23 33 -55.5 64t-73.5 35zM74 -270h43q4 -39 8 -79t10 -79 q4 41 10.5 80t12.5 78h37l22 -158q6 82 19 158h38l-38 -213h-41q-6 35 -11.5 70.5t-9.5 70.5q-4 -35 -10 -71t-12 -70h-41zM78 635q33 -20 57.5 -46t44.5 -57q2 -4 -3 -16t-13 -26.5t-15.5 -27.5t-9.5 -18q-10 -23 -20 -45t-19 -45q47 25 98.5 37t103.5 19.5t104.5 14.5 t101.5 24q-16 18 -44 24t-59.5 7t-62.5 -2t-51 -5v124t4 124q-57 -14 -110.5 -35.5t-106.5 -50.5zM281 -270h43q4 -39 8 -79t10 -79q4 41 10 80t13 78h36l23 -158q6 82 18 158h39l-39 -213h-41q-6 35 -11 70.5t-9 70.5q-4 -35 -10 -71t-13 -70h-41zM315 530q18 0 49 20.5 t50 29.5q35 16 71.5 28.5t71.5 24.5q145 45 299 80q74 16 147.5 29.5t149.5 21.5q70 6 148.5 9t144.5 -28q4 53 4 106.5t4 106.5q2 29 3 55.5t5 53.5q2 12 -5 20.5t-19.5 13.5t-25.5 7t-23 4q-115 16 -236 0t-233 -39q-123 -25 -243 -57.5t-235 -83.5q-23 -10 -45 -21.5 t-41 -27.5q-20 -16 -24 -47t-8 -54q-8 -63 -8.5 -125.5t-0.5 -126.5zM340 641q0 20 14.5 34.5t34.5 18.5q4 2 13.5 -1t5.5 -13q-12 -8 -23 -8q-10 -4 -14 -15.5t2 -21.5q4 -4 16 -8q18 -2 30.5 11t22 31.5t13.5 39t8 32.5q-29 -25 -57 -32q-27 -4 -44 10q-16 10 -16 35 q0 27 12 49q29 59 84 94q20 12 50 23q10 4 20 11t20 9q9 0 7 -12q12 0 18 -2q35 -4 39 -43q6 -41 -21.5 -79t-62.5 -61q-18 -12 -27.5 -30.5t-17.5 -37t-19.5 -35.5t-31.5 -28q-23 -14 -51 -8q-29 6 -25 37zM376 745.5q3 -14.5 21 -14.5q29 0 47.5 19.5t29.5 46t17.5 55.5 t10.5 47q-27 -6 -50.5 -22.5t-41.5 -36.5q-6 -6 -15.5 -23.5t-15.5 -37t-3 -34zM487 -270h43q4 -39 8.5 -79t10.5 -79q4 41 10 80l12 78h37l23 -158q6 82 18 158h39l-39 -213h-41q-6 35 -11 70.5t-9 70.5q-4 -35 -10.5 -71t-12.5 -70h-41zM496 760q14 4 28.5 18.5t23.5 32.5 t13 37.5t0 34.5q-6 20 -31 20q-12 -35 -19 -71.5t-15 -71.5zM545 -12.5q2 32.5 2 57.5q0 18 -1 36.5t1 37.5q0 47 25.5 64.5t68.5 17.5q37 0 53.5 -19.5t21.5 -48.5t3 -61.5t-2 -57.5v-73q0 -47 -25.5 -65.5t-66.5 -16.5q-37 0 -54.5 19.5t-22.5 48t-3 61zM589 760.5 q-5 19.5 5 44t29.5 44t40.5 21.5q12 0 16 -10q8 -12 2 -26q-6 -23 -25.5 -39.5t-42.5 -20.5q2 -12 10.5 -13t16.5 3t16.5 10t12.5 10q23 20 33 44t20 49q4 6 -8.5 24.5t-7.5 30.5q8 27 32 22q10 0 15 -12q4 -10 3 -22.5t-3 -22.5q20 2 28.5 -1t-4.5 -26q-8 -16 -17 -32.5 t-11 -34.5q0 -8 8 -8q20 -2 32.5 17t23.5 45t21.5 49.5t24.5 31.5q6 2 14 -2q6 -6 3 -12q-4 -10 -9.5 -19.5t-1.5 -21.5t11.5 -24.5t5.5 -27.5h2q10 12 17 27.5t14.5 31t16.5 29t25 19.5q35 14 48 -18q8 -14 5 -24.5t-1 -27.5q8 2 14 9q14 12 16 33.5t9 37.5q2 6 9 7t13 -1 q8 -4 6 -12v-2q10 10 23 16q20 8 28 -12q4 -12 1 -22.5t-8 -20.5t-9 -20.5t-2 -22.5q27 20 39 52t41 51q20 12 49 0q4 8 17.5 9t9.5 -14q-4 -18 -14.5 -37.5t-10.5 -37.5q0 -12 8 -4q18 18 28.5 44.5t20 54.5t22.5 51.5t40 39.5q14 6 22 -8q12 -23 4 -46.5t-22 -39.5 q-6 -8 -18.5 -18.5t-23.5 -22.5t-18.5 -24.5t-3.5 -24.5q4 -16 21 -13q14 4 20.5 17.5t14.5 23.5q6 6 12 2q8 0 8 -8l-4 -12q-16 -37 -51 -51q-25 -12 -41 14q-4 4 -4 10q-8 -8 -15.5 -15t-17.5 -11q-14 -4 -26 10q-16 -12 -29 -14q-29 -6 -41 18v2q-8 -8 -16.5 -15 t-20.5 -12q-14 -6 -25 11q-6 12 -3 22t8.5 21.5t8.5 21.5t1 21q-16 -6 -23.5 -17.5t-10.5 -25t-5 -27.5t-8 -27q-6 -16 -25 -8q-6 2 -6 10q0 4 1 8.5t1 8.5q-14 -4 -19.5 -4t-15.5 -10t-22.5 -18.5t-28.5 -8.5q-10 2 -16.5 8t-10.5 14q-16 -16 -38.5 -31.5t-45.5 -11.5 q-14 2 -24 17q-10 -10 -21.5 -20.5t-25.5 -14.5q-29 -10 -33 20q-4 25 8 41.5t21 36.5q2 4 -2.5 5t-6.5 -3q-8 -18 -18 -41.5t-23.5 -43t-33 -33t-45.5 -11.5q-29 2 -34 21.5zM598 11q-2 -36 2 -70q0 -14 9 -25.5t19.5 -14.5t20.5 2t15 21q4 12 3 26.5t-1 26.5v142 q0 14 -9.5 25.5t-20.5 14.5t-22.5 -2t-13.5 -22q-2 -12 -1 -26.5t1 -26.5q0 -35 -2 -71zM612 252q10 14 13.5 35.5t2.5 45t-3 46t-2 39.5v119v29.5t-11 27.5h72q-12 -12 -11 -31.5t1 -36.5v-133q0 -16 -1 -47t9 -45q8 -10 18.5 -11t19.5 4t16 14t9 18q6 25 2 51t-8 51 q-4 14 -10 36.5t-8 46.5t2 44t20 31q10 8 31 9t27 -15t-1 -21.5t-17.5 -3.5t-17.5 8t1 15q-16 -8 -16 -28t6 -42.5t15 -43t13 -32.5q12 -35 17.5 -83t-19.5 -81q-10 -14 -32.5 -18t-48 -4t-50 3t-39.5 3zM614 795q10 -2 26.5 14t18.5 27q4 6 -2 10t-12 0 q-10 -10 -17.5 -23.5t-13.5 -27.5zM672 -457q0 14 9 21.5t19.5 7.5t19.5 -7t9 -22q0 -14 -9 -21t-19.5 -7t-19.5 7t-9 21zM729 924q-2 -9 4 -19h2q0 6 2 12.5t-2 12.5q-4 0 -6 -6zM733 -141q10 12 12.5 32.5t1 43t-3.5 43t-2 36.5v166q0 8 -8 21h53q27 -12 49.5 -49 t32.5 -64q0 25 3 57.5t-13 55.5h72q-10 -10 -10 -23.5v-27.5v-234v-30.5t10 -26.5h-197zM748 -483l57 213h61l56 -213h-50l-14 49h-49l-10 -49h-51zM795 -98q0 -14 11 -22.5t24.5 -10.5t24.5 3t13 17q-2 59 -18 122t-55 110v-219zM814 337.5q-3 18.5 5 29.5q10 12 31.5 14 t26.5 -21q0 -10 -7.5 -15t-14.5 -5t-13 4t-6 14q-12 -4 -12.5 -13t7 -20.5t17.5 -19.5t16 -10q12 -4 31.5 -3t30.5 11q20 20 16 38.5t-19.5 35t-35 30t-29.5 23.5q-16 14 -27.5 40t-11.5 50.5t12.5 45t40.5 26.5q25 4 51.5 3t51.5 -1l-6 -10q0 -12 7 -27.5t12 -30t4 -28 t-15 -25.5q-12 -10 -30.5 -9t-20.5 21q0 10 6 15.5t14 5.5t14.5 -5t4.5 -14q12 2 12 12.5t-7 20.5t-17.5 19.5t-16.5 11.5q-14 4 -31.5 1t-23.5 -17q-12 -25 -4 -42.5t24.5 -30.5t35.5 -25.5t30 -26.5q14 -18 21 -45t4 -50.5t-18.5 -42t-45.5 -20.5q-27 -2 -52.5 -1t-50.5 1 q8 2 5 16.5t-8 32.5t-8 36.5zM815 -397h39q-4 23 -9 44t-11 44zM821 819q4 -12 16.5 -10t14.5 14q2 18 -10 41q-6 -8 -14.5 -21.5t-6.5 -23.5zM934 862l4 -12q6 -18 23 -8q14 6 21 21.5t5 31.5q-2 10 -9 16.5t-22 -4.5q-18 -14 -22 -45zM940 -141q10 14 13 35.5t2 45t-3 46 t-2 39.5v118v29.5t-10 28.5h72q-10 -10 -13.5 -29.5t-2.5 -41t3 -42t2 -33.5v-155h99q23 0 54.5 -3t51.5 11q-4 -8 -7 -28.5t-13 -20.5h-246zM948 -272q27 4 61.5 6t57.5 -15q31 -23 24 -55.5t-36 -46.5q14 -6 20 -18.5t9 -26.5t5.5 -29.5t8.5 -25.5h-49q-6 10 -8.5 25.5 t-6.5 28.5t-12 21.5t-25 6.5v-82h-49v211zM995.5 -330.5q1.5 -23.5 1.5 -34.5h13q18 0 25 10.5t6 21.5t-11 20.5t-26 7.5q-10 -2 -8.5 -25.5zM1004 252q10 10 10 23.5v27.5v234v29.5t-10 27.5h120q23 -25 24 -57.5t-9 -63.5q-4 -8 -13.5 -28.5t-18.5 -43t-12 -43t9 -26.5 q-4 12 6 13t20.5 -4t12.5 -13.5t-17 -16.5q-23 -10 -33 8.5t-8 34.5q0 14 6.5 30.5t8.5 30t-4 21.5t-29 6v-149q16 0 41 -2t41 10q-4 -12 -7 -24.5t-7 -24.5h-131zM1034 201h76q-12 -27 1 -63t24 -58q12 29 22 59.5t0 61.5h76q-20 -12 -24.5 -37t-10.5 -45q-6 -18 -22.5 -46 t-16.5 -46q0 -10 -1 -24.5t-1 -29t2 -28t10 -21.5h-71q16 16 13 50t-3 57q-23 41 -39 88q-8 23 -12 45t-23 37zM1067 485q20 0 44 2t26 31q2 31 -24 33t-46 2v-68zM1124 -270h50v-213h-50v213zM1174 893q-4 -10 1 -25.5t21 -3.5q12 10 20.5 31t10.5 37q-4 18 -15 14 q-16 -8 -25 -22.5t-13 -30.5zM1202 -457q0 14 9.5 21.5t19.5 7.5t19.5 -7t9.5 -22q0 -14 -9.5 -21t-19.5 -7t-19.5 7t-9.5 21zM1221 629q-6 -6 4 -8q51 -20 113.5 -16.5t115.5 -0.5q55 -4 111 -18q29 -8 49 -22.5t45 -26.5q0 59 -19.5 101t-76.5 64q33 29 65.5 56t73.5 43 q-47 45 -105.5 72.5t-121.5 44.5q-2 -53 -3.5 -107.5t-5.5 -108.5l-2 3v-7q-25 -2 -60.5 -4t-70.5 -8t-65.5 -19.5t-46.5 -37.5zM1288 -270h53l66 -144q-4 35 -4 72v72h45v-213h-49q-18 37 -34.5 74.5t-35.5 72.5q4 -37 4 -73.5v-73.5h-45v213zM1315 956q16 18 30.5 37.5 t18.5 44.5h-2q-35 -39 -47 -82zM1475.5 -399.5q-7.5 34.5 13.5 75.5q12 29 39.5 42.5t58.5 13.5h10.5t17.5 -2t15 -4t6 -5l-8 -38q-25 12 -46 8t-34.5 -18.5t-18.5 -35t3 -45.5q12 -43 57 -38q10 2 8 20t-2 27h-24v39h71v-115q-39 -14 -74.5 -8t-60 27.5t-32 56z" />
<glyph unicode="2" d="M25 629q66 35 131 64.5t137 49.5q4 0 8 19.5t8 43t7 46t8 31.5q20 31 63 49t76 33q84 35 170 59.5t174 46.5q90 23 179 38t181 24q33 4 77 8t90 3t87 -11.5t66 -36.5q4 -4 0 -28t-6 -32l-6 -92q0 -4 4 -4q76 -23 145.5 -55.5t116.5 -98.5v-2q-16 4 -35.5 -3t-38 -19 t-36 -26.5t-25.5 -24.5q29 -16 46 -45t25.5 -64t7 -69.5t-11.5 -63.5q-16 41 -48 63.5t-69.5 32.5t-80.5 13.5t-80 5.5q-41 4 -88 2t-88 12q-16 6 -22.5 24.5t-7.5 41t2 45t5 34.5q-174 -12 -345 -52t-335 -97q-6 -4 -6 -6q2 -10 7 -33t10 -47.5t6.5 -46t-7.5 -27.5 q-23 -16 -55.5 -20t-60.5 -8q-37 -4 -75 -10.5t-75 -12.5q-66 -12 -123 -37q-14 -6 -27.5 -12t-27.5 -17q-6 -6 -16.5 -17t-16.5 -15q10 33 23.5 63.5t25.5 61.5q2 6 12.5 24.5t20.5 39t17.5 36.5t5.5 20q-23 33 -55.5 64t-73.5 35zM74 -270h43q4 -39 8 -79t10 -79 q4 41 10.5 80t12.5 78h37l22 -158q6 82 19 158h38l-38 -213h-41q-6 35 -11.5 70.5t-9.5 70.5q-4 -35 -10 -71t-12 -70h-41zM78 635q33 -20 57.5 -46t44.5 -57q2 -4 -3 -16t-13 -26.5t-15.5 -27.5t-9.5 -18q-10 -23 -20 -45t-19 -45q47 25 98.5 37t103.5 19.5t104.5 14.5 t101.5 24q-16 18 -44 24t-59.5 7t-62.5 -2t-51 -5v124t4 124q-57 -14 -110.5 -35.5t-106.5 -50.5zM281 -270h43q4 -39 8 -79t10 -79q4 41 10 80t13 78h36l23 -158q6 82 18 158h39l-39 -213h-41q-6 35 -11 70.5t-9 70.5q-4 -35 -10 -71t-13 -70h-41zM315 530q18 0 49 20.5 t50 29.5q35 16 71.5 28.5t71.5 24.5q145 45 299 80q74 16 147.5 29.5t149.5 21.5q70 6 148.5 9t144.5 -28q4 53 4 106.5t4 106.5q2 29 3 55.5t5 53.5q2 12 -5 20.5t-19.5 13.5t-25.5 7t-23 4q-115 16 -236 0t-233 -39q-123 -25 -243 -57.5t-235 -83.5q-23 -10 -45 -21.5 t-41 -27.5q-20 -16 -24 -47t-8 -54q-8 -63 -8.5 -125.5t-0.5 -126.5zM340 641q0 20 14.5 34.5t34.5 18.5q4 2 13.5 -1t5.5 -13q-12 -8 -23 -8q-10 -4 -14 -15.5t2 -21.5q4 -4 16 -8q18 -2 30.5 11t22 31.5t13.5 39t8 32.5q-29 -25 -57 -32q-27 -4 -44 10q-16 10 -16 35 q0 27 12 49q29 59 84 94q20 12 50 23q10 4 20 11t20 9q9 0 7 -12q12 0 18 -2q35 -4 39 -43q6 -41 -21.5 -79t-62.5 -61q-18 -12 -27.5 -30.5t-17.5 -37t-19.5 -35.5t-31.5 -28q-23 -14 -51 -8q-29 6 -25 37zM376 745.5q3 -14.5 21 -14.5q29 0 47.5 19.5t29.5 46t17.5 55.5 t10.5 47q-27 -6 -50.5 -22.5t-41.5 -36.5q-6 -6 -15.5 -23.5t-15.5 -37t-3 -34zM487 -270h43q4 -39 8.5 -79t10.5 -79q4 41 10 80l12 78h37l23 -158q6 82 18 158h39l-39 -213h-41q-6 35 -11 70.5t-9 70.5q-4 -35 -10.5 -71t-12.5 -70h-41zM496 760q14 4 28.5 18.5t23.5 32.5 t13 37.5t0 34.5q-6 20 -31 20q-12 -35 -19 -71.5t-15 -71.5zM545 -12.5q2 32.5 2 57.5q0 18 -1 36.5t1 37.5q0 47 25.5 64.5t68.5 17.5q37 0 53.5 -19.5t21.5 -48.5t3 -61.5t-2 -57.5v-73q0 -47 -25.5 -65.5t-66.5 -16.5q-37 0 -54.5 19.5t-22.5 48t-3 61zM589 760.5 q-5 19.5 5 44t29.5 44t40.5 21.5q12 0 16 -10q8 -12 2 -26q-6 -23 -25.5 -39.5t-42.5 -20.5q2 -12 10.5 -13t16.5 3t16.5 10t12.5 10q23 20 33 44t20 49q4 6 -8.5 24.5t-7.5 30.5q8 27 32 22q10 0 15 -12q4 -10 3 -22.5t-3 -22.5q20 2 28.5 -1t-4.5 -26q-8 -16 -17 -32.5 t-11 -34.5q0 -8 8 -8q20 -2 32.5 17t23.5 45t21.5 49.5t24.5 31.5q6 2 14 -2q6 -6 3 -12q-4 -10 -9.5 -19.5t-1.5 -21.5t11.5 -24.5t5.5 -27.5h2q10 12 17 27.5t14.5 31t16.5 29t25 19.5q35 14 48 -18q8 -14 5 -24.5t-1 -27.5q8 2 14 9q14 12 16 33.5t9 37.5q2 6 9 7t13 -1 q8 -4 6 -12v-2q10 10 23 16q20 8 28 -12q4 -12 1 -22.5t-8 -20.5t-9 -20.5t-2 -22.5q27 20 39 52t41 51q20 12 49 0q4 8 17.5 9t9.5 -14q-4 -18 -14.5 -37.5t-10.5 -37.5q0 -12 8 -4q18 18 28.5 44.5t20 54.5t22.5 51.5t40 39.5q14 6 22 -8q12 -23 4 -46.5t-22 -39.5 q-6 -8 -18.5 -18.5t-23.5 -22.5t-18.5 -24.5t-3.5 -24.5q4 -16 21 -13q14 4 20.5 17.5t14.5 23.5q6 6 12 2q8 0 8 -8l-4 -12q-16 -37 -51 -51q-25 -12 -41 14q-4 4 -4 10q-8 -8 -15.5 -15t-17.5 -11q-14 -4 -26 10q-16 -12 -29 -14q-29 -6 -41 18v2q-8 -8 -16.5 -15 t-20.5 -12q-14 -6 -25 11q-6 12 -3 22t8.5 21.5t8.5 21.5t1 21q-16 -6 -23.5 -17.5t-10.5 -25t-5 -27.5t-8 -27q-6 -16 -25 -8q-6 2 -6 10q0 4 1 8.5t1 8.5q-14 -4 -19.5 -4t-15.5 -10t-22.5 -18.5t-28.5 -8.5q-10 2 -16.5 8t-10.5 14q-16 -16 -38.5 -31.5t-45.5 -11.5 q-14 2 -24 17q-10 -10 -21.5 -20.5t-25.5 -14.5q-29 -10 -33 20q-4 25 8 41.5t21 36.5q2 4 -2.5 5t-6.5 -3q-8 -18 -18 -41.5t-23.5 -43t-33 -33t-45.5 -11.5q-29 2 -34 21.5zM598 11q-2 -36 2 -70q0 -14 9 -25.5t19.5 -14.5t20.5 2t15 21q4 12 3 26.5t-1 26.5v142 q0 14 -9.5 25.5t-20.5 14.5t-22.5 -2t-13.5 -22q-2 -12 -1 -26.5t1 -26.5q0 -35 -2 -71zM612 252q10 14 13.5 35.5t2.5 45t-3 46t-2 39.5v119v29.5t-11 27.5h72q-12 -12 -11 -31.5t1 -36.5v-133q0 -16 -1 -47t9 -45q8 -10 18.5 -11t19.5 4t16 14t9 18q6 25 2 51t-8 51 q-4 14 -10 36.5t-8 46.5t2 44t20 31q10 8 31 9t27 -15t-1 -21.5t-17.5 -3.5t-17.5 8t1 15q-16 -8 -16 -28t6 -42.5t15 -43t13 -32.5q12 -35 17.5 -83t-19.5 -81q-10 -14 -32.5 -18t-48 -4t-50 3t-39.5 3zM614 795q10 -2 26.5 14t18.5 27q4 6 -2 10t-12 0 q-10 -10 -17.5 -23.5t-13.5 -27.5zM672 -457q0 14 9 21.5t19.5 7.5t19.5 -7t9 -22q0 -14 -9 -21t-19.5 -7t-19.5 7t-9 21zM729 924q-2 -9 4 -19h2q0 6 2 12.5t-2 12.5q-4 0 -6 -6zM733 -141q10 12 12.5 32.5t1 43t-3.5 43t-2 36.5v166q0 8 -8 21h53q27 -12 49.5 -49 t32.5 -64q0 25 3 57.5t-13 55.5h72q-10 -10 -10 -23.5v-27.5v-234v-30.5t10 -26.5h-197zM748 -483l57 213h61l56 -213h-50l-14 49h-49l-10 -49h-51zM795 -98q0 -14 11 -22.5t24.5 -10.5t24.5 3t13 17q-2 59 -18 122t-55 110v-219zM814 337.5q-3 18.5 5 29.5q10 12 31.5 14 t26.5 -21q0 -10 -7.5 -15t-14.5 -5t-13 4t-6 14q-12 -4 -12.5 -13t7 -20.5t17.5 -19.5t16 -10q12 -4 31.5 -3t30.5 11q20 20 16 38.5t-19.5 35t-35 30t-29.5 23.5q-16 14 -27.5 40t-11.5 50.5t12.5 45t40.5 26.5q25 4 51.5 3t51.5 -1l-6 -10q0 -12 7 -27.5t12 -30t4 -28 t-15 -25.5q-12 -10 -30.5 -9t-20.5 21q0 10 6 15.5t14 5.5t14.5 -5t4.5 -14q12 2 12 12.5t-7 20.5t-17.5 19.5t-16.5 11.5q-14 4 -31.5 1t-23.5 -17q-12 -25 -4 -42.5t24.5 -30.5t35.5 -25.5t30 -26.5q14 -18 21 -45t4 -50.5t-18.5 -42t-45.5 -20.5q-27 -2 -52.5 -1t-50.5 1 q8 2 5 16.5t-8 32.5t-8 36.5zM815 -397h39q-4 23 -9 44t-11 44zM821 819q4 -12 16.5 -10t14.5 14q2 18 -10 41q-6 -8 -14.5 -21.5t-6.5 -23.5zM934 862l4 -12q6 -18 23 -8q14 6 21 21.5t5 31.5q-2 10 -9 16.5t-22 -4.5q-18 -14 -22 -45zM940 -141q10 14 13 35.5t2 45t-3 46 t-2 39.5v118v29.5t-10 28.5h72q-10 -10 -13.5 -29.5t-2.5 -41t3 -42t2 -33.5v-155h99q23 0 54.5 -3t51.5 11q-4 -8 -7 -28.5t-13 -20.5h-246zM948 -272q27 4 61.5 6t57.5 -15q31 -23 24 -55.5t-36 -46.5q14 -6 20 -18.5t9 -26.5t5.5 -29.5t8.5 -25.5h-49q-6 10 -8.5 25.5 t-6.5 28.5t-12 21.5t-25 6.5v-82h-49v211zM995.5 -330.5q1.5 -23.5 1.5 -34.5h13q18 0 25 10.5t6 21.5t-11 20.5t-26 7.5q-10 -2 -8.5 -25.5zM1004 252q10 10 10 23.5v27.5v234v29.5t-10 27.5h120q23 -25 24 -57.5t-9 -63.5q-4 -8 -13.5 -28.5t-18.5 -43t-12 -43t9 -26.5 q-4 12 6 13t20.5 -4t12.5 -13.5t-17 -16.5q-23 -10 -33 8.5t-8 34.5q0 14 6.5 30.5t8.5 30t-4 21.5t-29 6v-149q16 0 41 -2t41 10q-4 -12 -7 -24.5t-7 -24.5h-131zM1034 201h76q-12 -27 1 -63t24 -58q12 29 22 59.5t0 61.5h76q-20 -12 -24.5 -37t-10.5 -45q-6 -18 -22.5 -46 t-16.5 -46q0 -10 -1 -24.5t-1 -29t2 -28t10 -21.5h-71q16 16 13 50t-3 57q-23 41 -39 88q-8 23 -12 45t-23 37zM1067 485q20 0 44 2t26 31q2 31 -24 33t-46 2v-68zM1124 -270h50v-213h-50v213zM1174 893q-4 -10 1 -25.5t21 -3.5q12 10 20.5 31t10.5 37q-4 18 -15 14 q-16 -8 -25 -22.5t-13 -30.5zM1202 -457q0 14 9.5 21.5t19.5 7.5t19.5 -7t9.5 -22q0 -14 -9.5 -21t-19.5 -7t-19.5 7t-9.5 21zM1221 629q-6 -6 4 -8q51 -20 113.5 -16.5t115.5 -0.5q55 -4 111 -18q29 -8 49 -22.5t45 -26.5q0 59 -19.5 101t-76.5 64q33 29 65.5 56t73.5 43 q-47 45 -105.5 72.5t-121.5 44.5q-2 -53 -3.5 -107.5t-5.5 -108.5l-2 3v-7q-25 -2 -60.5 -4t-70.5 -8t-65.5 -19.5t-46.5 -37.5zM1288 -270h53l66 -144q-4 35 -4 72v72h45v-213h-49q-18 37 -34.5 74.5t-35.5 72.5q4 -37 4 -73.5v-73.5h-45v213zM1315 956q16 18 30.5 37.5 t18.5 44.5h-2q-35 -39 -47 -82zM1475.5 -399.5q-7.5 34.5 13.5 75.5q12 29 39.5 42.5t58.5 13.5h10.5t17.5 -2t15 -4t6 -5l-8 -38q-25 12 -46 8t-34.5 -18.5t-18.5 -35t3 -45.5q12 -43 57 -38q10 2 8 20t-2 27h-24v39h71v-115q-39 -14 -74.5 -8t-60 27.5t-32 56z" />
<glyph unicode="3" d="M25 629q66 35 131 64.5t137 49.5q4 0 8 19.5t8 43t7 46t8 31.5q20 31 63 49t76 33q84 35 170 59.5t174 46.5q90 23 179 38t181 24q33 4 77 8t90 3t87 -11.5t66 -36.5q4 -4 0 -28t-6 -32l-6 -92q0 -4 4 -4q76 -23 145.5 -55.5t116.5 -98.5v-2q-16 4 -35.5 -3t-38 -19 t-36 -26.5t-25.5 -24.5q29 -16 46 -45t25.5 -64t7 -69.5t-11.5 -63.5q-16 41 -48 63.5t-69.5 32.5t-80.5 13.5t-80 5.5q-41 4 -88 2t-88 12q-16 6 -22.5 24.5t-7.5 41t2 45t5 34.5q-174 -12 -345 -52t-335 -97q-6 -4 -6 -6q2 -10 7 -33t10 -47.5t6.5 -46t-7.5 -27.5 q-23 -16 -55.5 -20t-60.5 -8q-37 -4 -75 -10.5t-75 -12.5q-66 -12 -123 -37q-14 -6 -27.5 -12t-27.5 -17q-6 -6 -16.5 -17t-16.5 -15q10 33 23.5 63.5t25.5 61.5q2 6 12.5 24.5t20.5 39t17.5 36.5t5.5 20q-23 33 -55.5 64t-73.5 35zM74 -270h43q4 -39 8 -79t10 -79 q4 41 10.5 80t12.5 78h37l22 -158q6 82 19 158h38l-38 -213h-41q-6 35 -11.5 70.5t-9.5 70.5q-4 -35 -10 -71t-12 -70h-41zM78 635q33 -20 57.5 -46t44.5 -57q2 -4 -3 -16t-13 -26.5t-15.5 -27.5t-9.5 -18q-10 -23 -20 -45t-19 -45q47 25 98.5 37t103.5 19.5t104.5 14.5 t101.5 24q-16 18 -44 24t-59.5 7t-62.5 -2t-51 -5v124t4 124q-57 -14 -110.5 -35.5t-106.5 -50.5zM281 -270h43q4 -39 8 -79t10 -79q4 41 10 80t13 78h36l23 -158q6 82 18 158h39l-39 -213h-41q-6 35 -11 70.5t-9 70.5q-4 -35 -10 -71t-13 -70h-41zM315 530q18 0 49 20.5 t50 29.5q35 16 71.5 28.5t71.5 24.5q145 45 299 80q74 16 147.5 29.5t149.5 21.5q70 6 148.5 9t144.5 -28q4 53 4 106.5t4 106.5q2 29 3 55.5t5 53.5q2 12 -5 20.5t-19.5 13.5t-25.5 7t-23 4q-115 16 -236 0t-233 -39q-123 -25 -243 -57.5t-235 -83.5q-23 -10 -45 -21.5 t-41 -27.5q-20 -16 -24 -47t-8 -54q-8 -63 -8.5 -125.5t-0.5 -126.5zM340 641q0 20 14.5 34.5t34.5 18.5q4 2 13.5 -1t5.5 -13q-12 -8 -23 -8q-10 -4 -14 -15.5t2 -21.5q4 -4 16 -8q18 -2 30.5 11t22 31.5t13.5 39t8 32.5q-29 -25 -57 -32q-27 -4 -44 10q-16 10 -16 35 q0 27 12 49q29 59 84 94q20 12 50 23q10 4 20 11t20 9q9 0 7 -12q12 0 18 -2q35 -4 39 -43q6 -41 -21.5 -79t-62.5 -61q-18 -12 -27.5 -30.5t-17.5 -37t-19.5 -35.5t-31.5 -28q-23 -14 -51 -8q-29 6 -25 37zM376 745.5q3 -14.5 21 -14.5q29 0 47.5 19.5t29.5 46t17.5 55.5 t10.5 47q-27 -6 -50.5 -22.5t-41.5 -36.5q-6 -6 -15.5 -23.5t-15.5 -37t-3 -34zM487 -270h43q4 -39 8.5 -79t10.5 -79q4 41 10 80l12 78h37l23 -158q6 82 18 158h39l-39 -213h-41q-6 35 -11 70.5t-9 70.5q-4 -35 -10.5 -71t-12.5 -70h-41zM496 760q14 4 28.5 18.5t23.5 32.5 t13 37.5t0 34.5q-6 20 -31 20q-12 -35 -19 -71.5t-15 -71.5zM545 -12.5q2 32.5 2 57.5q0 18 -1 36.5t1 37.5q0 47 25.5 64.5t68.5 17.5q37 0 53.5 -19.5t21.5 -48.5t3 -61.5t-2 -57.5v-73q0 -47 -25.5 -65.5t-66.5 -16.5q-37 0 -54.5 19.5t-22.5 48t-3 61zM589 760.5 q-5 19.5 5 44t29.5 44t40.5 21.5q12 0 16 -10q8 -12 2 -26q-6 -23 -25.5 -39.5t-42.5 -20.5q2 -12 10.5 -13t16.5 3t16.5 10t12.5 10q23 20 33 44t20 49q4 6 -8.5 24.5t-7.5 30.5q8 27 32 22q10 0 15 -12q4 -10 3 -22.5t-3 -22.5q20 2 28.5 -1t-4.5 -26q-8 -16 -17 -32.5 t-11 -34.5q0 -8 8 -8q20 -2 32.5 17t23.5 45t21.5 49.5t24.5 31.5q6 2 14 -2q6 -6 3 -12q-4 -10 -9.5 -19.5t-1.5 -21.5t11.5 -24.5t5.5 -27.5h2q10 12 17 27.5t14.5 31t16.5 29t25 19.5q35 14 48 -18q8 -14 5 -24.5t-1 -27.5q8 2 14 9q14 12 16 33.5t9 37.5q2 6 9 7t13 -1 q8 -4 6 -12v-2q10 10 23 16q20 8 28 -12q4 -12 1 -22.5t-8 -20.5t-9 -20.5t-2 -22.5q27 20 39 52t41 51q20 12 49 0q4 8 17.5 9t9.5 -14q-4 -18 -14.5 -37.5t-10.5 -37.5q0 -12 8 -4q18 18 28.5 44.5t20 54.5t22.5 51.5t40 39.5q14 6 22 -8q12 -23 4 -46.5t-22 -39.5 q-6 -8 -18.5 -18.5t-23.5 -22.5t-18.5 -24.5t-3.5 -24.5q4 -16 21 -13q14 4 20.5 17.5t14.5 23.5q6 6 12 2q8 0 8 -8l-4 -12q-16 -37 -51 -51q-25 -12 -41 14q-4 4 -4 10q-8 -8 -15.5 -15t-17.5 -11q-14 -4 -26 10q-16 -12 -29 -14q-29 -6 -41 18v2q-8 -8 -16.5 -15 t-20.5 -12q-14 -6 -25 11q-6 12 -3 22t8.5 21.5t8.5 21.5t1 21q-16 -6 -23.5 -17.5t-10.5 -25t-5 -27.5t-8 -27q-6 -16 -25 -8q-6 2 -6 10q0 4 1 8.5t1 8.5q-14 -4 -19.5 -4t-15.5 -10t-22.5 -18.5t-28.5 -8.5q-10 2 -16.5 8t-10.5 14q-16 -16 -38.5 -31.5t-45.5 -11.5 q-14 2 -24 17q-10 -10 -21.5 -20.5t-25.5 -14.5q-29 -10 -33 20q-4 25 8 41.5t21 36.5q2 4 -2.5 5t-6.5 -3q-8 -18 -18 -41.5t-23.5 -43t-33 -33t-45.5 -11.5q-29 2 -34 21.5zM598 11q-2 -36 2 -70q0 -14 9 -25.5t19.5 -14.5t20.5 2t15 21q4 12 3 26.5t-1 26.5v142 q0 14 -9.5 25.5t-20.5 14.5t-22.5 -2t-13.5 -22q-2 -12 -1 -26.5t1 -26.5q0 -35 -2 -71zM612 252q10 14 13.5 35.5t2.5 45t-3 46t-2 39.5v119v29.5t-11 27.5h72q-12 -12 -11 -31.5t1 -36.5v-133q0 -16 -1 -47t9 -45q8 -10 18.5 -11t19.5 4t16 14t9 18q6 25 2 51t-8 51 q-4 14 -10 36.5t-8 46.5t2 44t20 31q10 8 31 9t27 -15t-1 -21.5t-17.5 -3.5t-17.5 8t1 15q-16 -8 -16 -28t6 -42.5t15 -43t13 -32.5q12 -35 17.5 -83t-19.5 -81q-10 -14 -32.5 -18t-48 -4t-50 3t-39.5 3zM614 795q10 -2 26.5 14t18.5 27q4 6 -2 10t-12 0 q-10 -10 -17.5 -23.5t-13.5 -27.5zM672 -457q0 14 9 21.5t19.5 7.5t19.5 -7t9 -22q0 -14 -9 -21t-19.5 -7t-19.5 7t-9 21zM729 924q-2 -9 4 -19h2q0 6 2 12.5t-2 12.5q-4 0 -6 -6zM733 -141q10 12 12.5 32.5t1 43t-3.5 43t-2 36.5v166q0 8 -8 21h53q27 -12 49.5 -49 t32.5 -64q0 25 3 57.5t-13 55.5h72q-10 -10 -10 -23.5v-27.5v-234v-30.5t10 -26.5h-197zM748 -483l57 213h61l56 -213h-50l-14 49h-49l-10 -49h-51zM795 -98q0 -14 11 -22.5t24.5 -10.5t24.5 3t13 17q-2 59 -18 122t-55 110v-219zM814 337.5q-3 18.5 5 29.5q10 12 31.5 14 t26.5 -21q0 -10 -7.5 -15t-14.5 -5t-13 4t-6 14q-12 -4 -12.5 -13t7 -20.5t17.5 -19.5t16 -10q12 -4 31.5 -3t30.5 11q20 20 16 38.5t-19.5 35t-35 30t-29.5 23.5q-16 14 -27.5 40t-11.5 50.5t12.5 45t40.5 26.5q25 4 51.5 3t51.5 -1l-6 -10q0 -12 7 -27.5t12 -30t4 -28 t-15 -25.5q-12 -10 -30.5 -9t-20.5 21q0 10 6 15.5t14 5.5t14.5 -5t4.5 -14q12 2 12 12.5t-7 20.5t-17.5 19.5t-16.5 11.5q-14 4 -31.5 1t-23.5 -17q-12 -25 -4 -42.5t24.5 -30.5t35.5 -25.5t30 -26.5q14 -18 21 -45t4 -50.5t-18.5 -42t-45.5 -20.5q-27 -2 -52.5 -1t-50.5 1 q8 2 5 16.5t-8 32.5t-8 36.5zM815 -397h39q-4 23 -9 44t-11 44zM821 819q4 -12 16.5 -10t14.5 14q2 18 -10 41q-6 -8 -14.5 -21.5t-6.5 -23.5zM934 862l4 -12q6 -18 23 -8q14 6 21 21.5t5 31.5q-2 10 -9 16.5t-22 -4.5q-18 -14 -22 -45zM940 -141q10 14 13 35.5t2 45t-3 46 t-2 39.5v118v29.5t-10 28.5h72q-10 -10 -13.5 -29.5t-2.5 -41t3 -42t2 -33.5v-155h99q23 0 54.5 -3t51.5 11q-4 -8 -7 -28.5t-13 -20.5h-246zM948 -272q27 4 61.5 6t57.5 -15q31 -23 24 -55.5t-36 -46.5q14 -6 20 -18.5t9 -26.5t5.5 -29.5t8.5 -25.5h-49q-6 10 -8.5 25.5 t-6.5 28.5t-12 21.5t-25 6.5v-82h-49v211zM995.5 -330.5q1.5 -23.5 1.5 -34.5h13q18 0 25 10.5t6 21.5t-11 20.5t-26 7.5q-10 -2 -8.5 -25.5zM1004 252q10 10 10 23.5v27.5v234v29.5t-10 27.5h120q23 -25 24 -57.5t-9 -63.5q-4 -8 -13.5 -28.5t-18.5 -43t-12 -43t9 -26.5 q-4 12 6 13t20.5 -4t12.5 -13.5t-17 -16.5q-23 -10 -33 8.5t-8 34.5q0 14 6.5 30.5t8.5 30t-4 21.5t-29 6v-149q16 0 41 -2t41 10q-4 -12 -7 -24.5t-7 -24.5h-131zM1034 201h76q-12 -27 1 -63t24 -58q12 29 22 59.5t0 61.5h76q-20 -12 -24.5 -37t-10.5 -45q-6 -18 -22.5 -46 t-16.5 -46q0 -10 -1 -24.5t-1 -29t2 -28t10 -21.5h-71q16 16 13 50t-3 57q-23 41 -39 88q-8 23 -12 45t-23 37zM1067 485q20 0 44 2t26 31q2 31 -24 33t-46 2v-68zM1124 -270h50v-213h-50v213zM1174 893q-4 -10 1 -25.5t21 -3.5q12 10 20.5 31t10.5 37q-4 18 -15 14 q-16 -8 -25 -22.5t-13 -30.5zM1202 -457q0 14 9.5 21.5t19.5 7.5t19.5 -7t9.5 -22q0 -14 -9.5 -21t-19.5 -7t-19.5 7t-9.5 21zM1221 629q-6 -6 4 -8q51 -20 113.5 -16.5t115.5 -0.5q55 -4 111 -18q29 -8 49 -22.5t45 -26.5q0 59 -19.5 101t-76.5 64q33 29 65.5 56t73.5 43 q-47 45 -105.5 72.5t-121.5 44.5q-2 -53 -3.5 -107.5t-5.5 -108.5l-2 3v-7q-25 -2 -60.5 -4t-70.5 -8t-65.5 -19.5t-46.5 -37.5zM1288 -270h53l66 -144q-4 35 -4 72v72h45v-213h-49q-18 37 -34.5 74.5t-35.5 72.5q4 -37 4 -73.5v-73.5h-45v213zM1315 956q16 18 30.5 37.5 t18.5 44.5h-2q-35 -39 -47 -82zM1475.5 -399.5q-7.5 34.5 13.5 75.5q12 29 39.5 42.5t58.5 13.5h10.5t17.5 -2t15 -4t6 -5l-8 -38q-25 12 -46 8t-34.5 -18.5t-18.5 -35t3 -45.5q12 -43 57 -38q10 2 8 20t-2 27h-24v39h71v-115q-39 -14 -74.5 -8t-60 27.5t-32 56z" />
<glyph unicode="4" d="M25 629q66 35 131 64.5t137 49.5q4 0 8 19.5t8 43t7 46t8 31.5q20 31 63 49t76 33q84 35 170 59.5t174 46.5q90 23 179 38t181 24q33 4 77 8t90 3t87 -11.5t66 -36.5q4 -4 0 -28t-6 -32l-6 -92q0 -4 4 -4q76 -23 145.5 -55.5t116.5 -98.5v-2q-16 4 -35.5 -3t-38 -19 t-36 -26.5t-25.5 -24.5q29 -16 46 -45t25.5 -64t7 -69.5t-11.5 -63.5q-16 41 -48 63.5t-69.5 32.5t-80.5 13.5t-80 5.5q-41 4 -88 2t-88 12q-16 6 -22.5 24.5t-7.5 41t2 45t5 34.5q-174 -12 -345 -52t-335 -97q-6 -4 -6 -6q2 -10 7 -33t10 -47.5t6.5 -46t-7.5 -27.5 q-23 -16 -55.5 -20t-60.5 -8q-37 -4 -75 -10.5t-75 -12.5q-66 -12 -123 -37q-14 -6 -27.5 -12t-27.5 -17q-6 -6 -16.5 -17t-16.5 -15q10 33 23.5 63.5t25.5 61.5q2 6 12.5 24.5t20.5 39t17.5 36.5t5.5 20q-23 33 -55.5 64t-73.5 35zM74 -270h43q4 -39 8 -79t10 -79 q4 41 10.5 80t12.5 78h37l22 -158q6 82 19 158h38l-38 -213h-41q-6 35 -11.5 70.5t-9.5 70.5q-4 -35 -10 -71t-12 -70h-41zM78 635q33 -20 57.5 -46t44.5 -57q2 -4 -3 -16t-13 -26.5t-15.5 -27.5t-9.5 -18q-10 -23 -20 -45t-19 -45q47 25 98.5 37t103.5 19.5t104.5 14.5 t101.5 24q-16 18 -44 24t-59.5 7t-62.5 -2t-51 -5v124t4 124q-57 -14 -110.5 -35.5t-106.5 -50.5zM281 -270h43q4 -39 8 -79t10 -79q4 41 10 80t13 78h36l23 -158q6 82 18 158h39l-39 -213h-41q-6 35 -11 70.5t-9 70.5q-4 -35 -10 -71t-13 -70h-41zM315 530q18 0 49 20.5 t50 29.5q35 16 71.5 28.5t71.5 24.5q145 45 299 80q74 16 147.5 29.5t149.5 21.5q70 6 148.5 9t144.5 -28q4 53 4 106.5t4 106.5q2 29 3 55.5t5 53.5q2 12 -5 20.5t-19.5 13.5t-25.5 7t-23 4q-115 16 -236 0t-233 -39q-123 -25 -243 -57.5t-235 -83.5q-23 -10 -45 -21.5 t-41 -27.5q-20 -16 -24 -47t-8 -54q-8 -63 -8.5 -125.5t-0.5 -126.5zM340 641q0 20 14.5 34.5t34.5 18.5q4 2 13.5 -1t5.5 -13q-12 -8 -23 -8q-10 -4 -14 -15.5t2 -21.5q4 -4 16 -8q18 -2 30.5 11t22 31.5t13.5 39t8 32.5q-29 -25 -57 -32q-27 -4 -44 10q-16 10 -16 35 q0 27 12 49q29 59 84 94q20 12 50 23q10 4 20 11t20 9q9 0 7 -12q12 0 18 -2q35 -4 39 -43q6 -41 -21.5 -79t-62.5 -61q-18 -12 -27.5 -30.5t-17.5 -37t-19.5 -35.5t-31.5 -28q-23 -14 -51 -8q-29 6 -25 37zM376 745.5q3 -14.5 21 -14.5q29 0 47.5 19.5t29.5 46t17.5 55.5 t10.5 47q-27 -6 -50.5 -22.5t-41.5 -36.5q-6 -6 -15.5 -23.5t-15.5 -37t-3 -34zM487 -270h43q4 -39 8.5 -79t10.5 -79q4 41 10 80l12 78h37l23 -158q6 82 18 158h39l-39 -213h-41q-6 35 -11 70.5t-9 70.5q-4 -35 -10.5 -71t-12.5 -70h-41zM496 760q14 4 28.5 18.5t23.5 32.5 t13 37.5t0 34.5q-6 20 -31 20q-12 -35 -19 -71.5t-15 -71.5zM545 -12.5q2 32.5 2 57.5q0 18 -1 36.5t1 37.5q0 47 25.5 64.5t68.5 17.5q37 0 53.5 -19.5t21.5 -48.5t3 -61.5t-2 -57.5v-73q0 -47 -25.5 -65.5t-66.5 -16.5q-37 0 -54.5 19.5t-22.5 48t-3 61zM589 760.5 q-5 19.5 5 44t29.5 44t40.5 21.5q12 0 16 -10q8 -12 2 -26q-6 -23 -25.5 -39.5t-42.5 -20.5q2 -12 10.5 -13t16.5 3t16.5 10t12.5 10q23 20 33 44t20 49q4 6 -8.5 24.5t-7.5 30.5q8 27 32 22q10 0 15 -12q4 -10 3 -22.5t-3 -22.5q20 2 28.5 -1t-4.5 -26q-8 -16 -17 -32.5 t-11 -34.5q0 -8 8 -8q20 -2 32.5 17t23.5 45t21.5 49.5t24.5 31.5q6 2 14 -2q6 -6 3 -12q-4 -10 -9.5 -19.5t-1.5 -21.5t11.5 -24.5t5.5 -27.5h2q10 12 17 27.5t14.5 31t16.5 29t25 19.5q35 14 48 -18q8 -14 5 -24.5t-1 -27.5q8 2 14 9q14 12 16 33.5t9 37.5q2 6 9 7t13 -1 q8 -4 6 -12v-2q10 10 23 16q20 8 28 -12q4 -12 1 -22.5t-8 -20.5t-9 -20.5t-2 -22.5q27 20 39 52t41 51q20 12 49 0q4 8 17.5 9t9.5 -14q-4 -18 -14.5 -37.5t-10.5 -37.5q0 -12 8 -4q18 18 28.5 44.5t20 54.5t22.5 51.5t40 39.5q14 6 22 -8q12 -23 4 -46.5t-22 -39.5 q-6 -8 -18.5 -18.5t-23.5 -22.5t-18.5 -24.5t-3.5 -24.5q4 -16 21 -13q14 4 20.5 17.5t14.5 23.5q6 6 12 2q8 0 8 -8l-4 -12q-16 -37 -51 -51q-25 -12 -41 14q-4 4 -4 10q-8 -8 -15.5 -15t-17.5 -11q-14 -4 -26 10q-16 -12 -29 -14q-29 -6 -41 18v2q-8 -8 -16.5 -15 t-20.5 -12q-14 -6 -25 11q-6 12 -3 22t8.5 21.5t8.5 21.5t1 21q-16 -6 -23.5 -17.5t-10.5 -25t-5 -27.5t-8 -27q-6 -16 -25 -8q-6 2 -6 10q0 4 1 8.5t1 8.5q-14 -4 -19.5 -4t-15.5 -10t-22.5 -18.5t-28.5 -8.5q-10 2 -16.5 8t-10.5 14q-16 -16 -38.5 -31.5t-45.5 -11.5 q-14 2 -24 17q-10 -10 -21.5 -20.5t-25.5 -14.5q-29 -10 -33 20q-4 25 8 41.5t21 36.5q2 4 -2.5 5t-6.5 -3q-8 -18 -18 -41.5t-23.5 -43t-33 -33t-45.5 -11.5q-29 2 -34 21.5zM598 11q-2 -36 2 -70q0 -14 9 -25.5t19.5 -14.5t20.5 2t15 21q4 12 3 26.5t-1 26.5v142 q0 14 -9.5 25.5t-20.5 14.5t-22.5 -2t-13.5 -22q-2 -12 -1 -26.5t1 -26.5q0 -35 -2 -71zM612 252q10 14 13.5 35.5t2.5 45t-3 46t-2 39.5v119v29.5t-11 27.5h72q-12 -12 -11 -31.5t1 -36.5v-133q0 -16 -1 -47t9 -45q8 -10 18.5 -11t19.5 4t16 14t9 18q6 25 2 51t-8 51 q-4 14 -10 36.5t-8 46.5t2 44t20 31q10 8 31 9t27 -15t-1 -21.5t-17.5 -3.5t-17.5 8t1 15q-16 -8 -16 -28t6 -42.5t15 -43t13 -32.5q12 -35 17.5 -83t-19.5 -81q-10 -14 -32.5 -18t-48 -4t-50 3t-39.5 3zM614 795q10 -2 26.5 14t18.5 27q4 6 -2 10t-12 0 q-10 -10 -17.5 -23.5t-13.5 -27.5zM672 -457q0 14 9 21.5t19.5 7.5t19.5 -7t9 -22q0 -14 -9 -21t-19.5 -7t-19.5 7t-9 21zM729 924q-2 -9 4 -19h2q0 6 2 12.5t-2 12.5q-4 0 -6 -6zM733 -141q10 12 12.5 32.5t1 43t-3.5 43t-2 36.5v166q0 8 -8 21h53q27 -12 49.5 -49 t32.5 -64q0 25 3 57.5t-13 55.5h72q-10 -10 -10 -23.5v-27.5v-234v-30.5t10 -26.5h-197zM748 -483l57 213h61l56 -213h-50l-14 49h-49l-10 -49h-51zM795 -98q0 -14 11 -22.5t24.5 -10.5t24.5 3t13 17q-2 59 -18 122t-55 110v-219zM814 337.5q-3 18.5 5 29.5q10 12 31.5 14 t26.5 -21q0 -10 -7.5 -15t-14.5 -5t-13 4t-6 14q-12 -4 -12.5 -13t7 -20.5t17.5 -19.5t16 -10q12 -4 31.5 -3t30.5 11q20 20 16 38.5t-19.5 35t-35 30t-29.5 23.5q-16 14 -27.5 40t-11.5 50.5t12.5 45t40.5 26.5q25 4 51.5 3t51.5 -1l-6 -10q0 -12 7 -27.5t12 -30t4 -28 t-15 -25.5q-12 -10 -30.5 -9t-20.5 21q0 10 6 15.5t14 5.5t14.5 -5t4.5 -14q12 2 12 12.5t-7 20.5t-17.5 19.5t-16.5 11.5q-14 4 -31.5 1t-23.5 -17q-12 -25 -4 -42.5t24.5 -30.5t35.5 -25.5t30 -26.5q14 -18 21 -45t4 -50.5t-18.5 -42t-45.5 -20.5q-27 -2 -52.5 -1t-50.5 1 q8 2 5 16.5t-8 32.5t-8 36.5zM815 -397h39q-4 23 -9 44t-11 44zM821 819q4 -12 16.5 -10t14.5 14q2 18 -10 41q-6 -8 -14.5 -21.5t-6.5 -23.5zM934 862l4 -12q6 -18 23 -8q14 6 21 21.5t5 31.5q-2 10 -9 16.5t-22 -4.5q-18 -14 -22 -45zM940 -141q10 14 13 35.5t2 45t-3 46 t-2 39.5v118v29.5t-10 28.5h72q-10 -10 -13.5 -29.5t-2.5 -41t3 -42t2 -33.5v-155h99q23 0 54.5 -3t51.5 11q-4 -8 -7 -28.5t-13 -20.5h-246zM948 -272q27 4 61.5 6t57.5 -15q31 -23 24 -55.5t-36 -46.5q14 -6 20 -18.5t9 -26.5t5.5 -29.5t8.5 -25.5h-49q-6 10 -8.5 25.5 t-6.5 28.5t-12 21.5t-25 6.5v-82h-49v211zM995.5 -330.5q1.5 -23.5 1.5 -34.5h13q18 0 25 10.5t6 21.5t-11 20.5t-26 7.5q-10 -2 -8.5 -25.5zM1004 252q10 10 10 23.5v27.5v234v29.5t-10 27.5h120q23 -25 24 -57.5t-9 -63.5q-4 -8 -13.5 -28.5t-18.5 -43t-12 -43t9 -26.5 q-4 12 6 13t20.5 -4t12.5 -13.5t-17 -16.5q-23 -10 -33 8.5t-8 34.5q0 14 6.5 30.5t8.5 30t-4 21.5t-29 6v-149q16 0 41 -2t41 10q-4 -12 -7 -24.5t-7 -24.5h-131zM1034 201h76q-12 -27 1 -63t24 -58q12 29 22 59.5t0 61.5h76q-20 -12 -24.5 -37t-10.5 -45q-6 -18 -22.5 -46 t-16.5 -46q0 -10 -1 -24.5t-1 -29t2 -28t10 -21.5h-71q16 16 13 50t-3 57q-23 41 -39 88q-8 23 -12 45t-23 37zM1067 485q20 0 44 2t26 31q2 31 -24 33t-46 2v-68zM1124 -270h50v-213h-50v213zM1174 893q-4 -10 1 -25.5t21 -3.5q12 10 20.5 31t10.5 37q-4 18 -15 14 q-16 -8 -25 -22.5t-13 -30.5zM1202 -457q0 14 9.5 21.5t19.5 7.5t19.5 -7t9.5 -22q0 -14 -9.5 -21t-19.5 -7t-19.5 7t-9.5 21zM1221 629q-6 -6 4 -8q51 -20 113.5 -16.5t115.5 -0.5q55 -4 111 -18q29 -8 49 -22.5t45 -26.5q0 59 -19.5 101t-76.5 64q33 29 65.5 56t73.5 43 q-47 45 -105.5 72.5t-121.5 44.5q-2 -53 -3.5 -107.5t-5.5 -108.5l-2 3v-7q-25 -2 -60.5 -4t-70.5 -8t-65.5 -19.5t-46.5 -37.5zM1288 -270h53l66 -144q-4 35 -4 72v72h45v-213h-49q-18 37 -34.5 74.5t-35.5 72.5q4 -37 4 -73.5v-73.5h-45v213zM1315 956q16 18 30.5 37.5 t18.5 44.5h-2q-35 -39 -47 -82zM1475.5 -399.5q-7.5 34.5 13.5 75.5q12 29 39.5 42.5t58.5 13.5h10.5t17.5 -2t15 -4t6 -5l-8 -38q-25 12 -46 8t-34.5 -18.5t-18.5 -35t3 -45.5q12 -43 57 -38q10 2 8 20t-2 27h-24v39h71v-115q-39 -14 -74.5 -8t-60 27.5t-32 56z" />
<glyph unicode="5" d="M25 629q66 35 131 64.5t137 49.5q4 0 8 19.5t8 43t7 46t8 31.5q20 31 63 49t76 33q84 35 170 59.5t174 46.5q90 23 179 38t181 24q33 4 77 8t90 3t87 -11.5t66 -36.5q4 -4 0 -28t-6 -32l-6 -92q0 -4 4 -4q76 -23 145.5 -55.5t116.5 -98.5v-2q-16 4 -35.5 -3t-38 -19 t-36 -26.5t-25.5 -24.5q29 -16 46 -45t25.5 -64t7 -69.5t-11.5 -63.5q-16 41 -48 63.5t-69.5 32.5t-80.5 13.5t-80 5.5q-41 4 -88 2t-88 12q-16 6 -22.5 24.5t-7.5 41t2 45t5 34.5q-174 -12 -345 -52t-335 -97q-6 -4 -6 -6q2 -10 7 -33t10 -47.5t6.5 -46t-7.5 -27.5 q-23 -16 -55.5 -20t-60.5 -8q-37 -4 -75 -10.5t-75 -12.5q-66 -12 -123 -37q-14 -6 -27.5 -12t-27.5 -17q-6 -6 -16.5 -17t-16.5 -15q10 33 23.5 63.5t25.5 61.5q2 6 12.5 24.5t20.5 39t17.5 36.5t5.5 20q-23 33 -55.5 64t-73.5 35zM74 -270h43q4 -39 8 -79t10 -79 q4 41 10.5 80t12.5 78h37l22 -158q6 82 19 158h38l-38 -213h-41q-6 35 -11.5 70.5t-9.5 70.5q-4 -35 -10 -71t-12 -70h-41zM78 635q33 -20 57.5 -46t44.5 -57q2 -4 -3 -16t-13 -26.5t-15.5 -27.5t-9.5 -18q-10 -23 -20 -45t-19 -45q47 25 98.5 37t103.5 19.5t104.5 14.5 t101.5 24q-16 18 -44 24t-59.5 7t-62.5 -2t-51 -5v124t4 124q-57 -14 -110.5 -35.5t-106.5 -50.5zM281 -270h43q4 -39 8 -79t10 -79q4 41 10 80t13 78h36l23 -158q6 82 18 158h39l-39 -213h-41q-6 35 -11 70.5t-9 70.5q-4 -35 -10 -71t-13 -70h-41zM315 530q18 0 49 20.5 t50 29.5q35 16 71.5 28.5t71.5 24.5q145 45 299 80q74 16 147.5 29.5t149.5 21.5q70 6 148.5 9t144.5 -28q4 53 4 106.5t4 106.5q2 29 3 55.5t5 53.5q2 12 -5 20.5t-19.5 13.5t-25.5 7t-23 4q-115 16 -236 0t-233 -39q-123 -25 -243 -57.5t-235 -83.5q-23 -10 -45 -21.5 t-41 -27.5q-20 -16 -24 -47t-8 -54q-8 -63 -8.5 -125.5t-0.5 -126.5zM340 641q0 20 14.5 34.5t34.5 18.5q4 2 13.5 -1t5.5 -13q-12 -8 -23 -8q-10 -4 -14 -15.5t2 -21.5q4 -4 16 -8q18 -2 30.5 11t22 31.5t13.5 39t8 32.5q-29 -25 -57 -32q-27 -4 -44 10q-16 10 -16 35 q0 27 12 49q29 59 84 94q20 12 50 23q10 4 20 11t20 9q9 0 7 -12q12 0 18 -2q35 -4 39 -43q6 -41 -21.5 -79t-62.5 -61q-18 -12 -27.5 -30.5t-17.5 -37t-19.5 -35.5t-31.5 -28q-23 -14 -51 -8q-29 6 -25 37zM376 745.5q3 -14.5 21 -14.5q29 0 47.5 19.5t29.5 46t17.5 55.5 t10.5 47q-27 -6 -50.5 -22.5t-41.5 -36.5q-6 -6 -15.5 -23.5t-15.5 -37t-3 -34zM487 -270h43q4 -39 8.5 -79t10.5 -79q4 41 10 80l12 78h37l23 -158q6 82 18 158h39l-39 -213h-41q-6 35 -11 70.5t-9 70.5q-4 -35 -10.5 -71t-12.5 -70h-41zM496 760q14 4 28.5 18.5t23.5 32.5 t13 37.5t0 34.5q-6 20 -31 20q-12 -35 -19 -71.5t-15 -71.5zM545 -12.5q2 32.5 2 57.5q0 18 -1 36.5t1 37.5q0 47 25.5 64.5t68.5 17.5q37 0 53.5 -19.5t21.5 -48.5t3 -61.5t-2 -57.5v-73q0 -47 -25.5 -65.5t-66.5 -16.5q-37 0 -54.5 19.5t-22.5 48t-3 61zM589 760.5 q-5 19.5 5 44t29.5 44t40.5 21.5q12 0 16 -10q8 -12 2 -26q-6 -23 -25.5 -39.5t-42.5 -20.5q2 -12 10.5 -13t16.5 3t16.5 10t12.5 10q23 20 33 44t20 49q4 6 -8.5 24.5t-7.5 30.5q8 27 32 22q10 0 15 -12q4 -10 3 -22.5t-3 -22.5q20 2 28.5 -1t-4.5 -26q-8 -16 -17 -32.5 t-11 -34.5q0 -8 8 -8q20 -2 32.5 17t23.5 45t21.5 49.5t24.5 31.5q6 2 14 -2q6 -6 3 -12q-4 -10 -9.5 -19.5t-1.5 -21.5t11.5 -24.5t5.5 -27.5h2q10 12 17 27.5t14.5 31t16.5 29t25 19.5q35 14 48 -18q8 -14 5 -24.5t-1 -27.5q8 2 14 9q14 12 16 33.5t9 37.5q2 6 9 7t13 -1 q8 -4 6 -12v-2q10 10 23 16q20 8 28 -12q4 -12 1 -22.5t-8 -20.5t-9 -20.5t-2 -22.5q27 20 39 52t41 51q20 12 49 0q4 8 17.5 9t9.5 -14q-4 -18 -14.5 -37.5t-10.5 -37.5q0 -12 8 -4q18 18 28.5 44.5t20 54.5t22.5 51.5t40 39.5q14 6 22 -8q12 -23 4 -46.5t-22 -39.5 q-6 -8 -18.5 -18.5t-23.5 -22.5t-18.5 -24.5t-3.5 -24.5q4 -16 21 -13q14 4 20.5 17.5t14.5 23.5q6 6 12 2q8 0 8 -8l-4 -12q-16 -37 -51 -51q-25 -12 -41 14q-4 4 -4 10q-8 -8 -15.5 -15t-17.5 -11q-14 -4 -26 10q-16 -12 -29 -14q-29 -6 -41 18v2q-8 -8 -16.5 -15 t-20.5 -12q-14 -6 -25 11q-6 12 -3 22t8.5 21.5t8.5 21.5t1 21q-16 -6 -23.5 -17.5t-10.5 -25t-5 -27.5t-8 -27q-6 -16 -25 -8q-6 2 -6 10q0 4 1 8.5t1 8.5q-14 -4 -19.5 -4t-15.5 -10t-22.5 -18.5t-28.5 -8.5q-10 2 -16.5 8t-10.5 14q-16 -16 -38.5 -31.5t-45.5 -11.5 q-14 2 -24 17q-10 -10 -21.5 -20.5t-25.5 -14.5q-29 -10 -33 20q-4 25 8 41.5t21 36.5q2 4 -2.5 5t-6.5 -3q-8 -18 -18 -41.5t-23.5 -43t-33 -33t-45.5 -11.5q-29 2 -34 21.5zM598 11q-2 -36 2 -70q0 -14 9 -25.5t19.5 -14.5t20.5 2t15 21q4 12 3 26.5t-1 26.5v142 q0 14 -9.5 25.5t-20.5 14.5t-22.5 -2t-13.5 -22q-2 -12 -1 -26.5t1 -26.5q0 -35 -2 -71zM612 252q10 14 13.5 35.5t2.5 45t-3 46t-2 39.5v119v29.5t-11 27.5h72q-12 -12 -11 -31.5t1 -36.5v-133q0 -16 -1 -47t9 -45q8 -10 18.5 -11t19.5 4t16 14t9 18q6 25 2 51t-8 51 q-4 14 -10 36.5t-8 46.5t2 44t20 31q10 8 31 9t27 -15t-1 -21.5t-17.5 -3.5t-17.5 8t1 15q-16 -8 -16 -28t6 -42.5t15 -43t13 -32.5q12 -35 17.5 -83t-19.5 -81q-10 -14 -32.5 -18t-48 -4t-50 3t-39.5 3zM614 795q10 -2 26.5 14t18.5 27q4 6 -2 10t-12 0 q-10 -10 -17.5 -23.5t-13.5 -27.5zM672 -457q0 14 9 21.5t19.5 7.5t19.5 -7t9 -22q0 -14 -9 -21t-19.5 -7t-19.5 7t-9 21zM729 924q-2 -9 4 -19h2q0 6 2 12.5t-2 12.5q-4 0 -6 -6zM733 -141q10 12 12.5 32.5t1 43t-3.5 43t-2 36.5v166q0 8 -8 21h53q27 -12 49.5 -49 t32.5 -64q0 25 3 57.5t-13 55.5h72q-10 -10 -10 -23.5v-27.5v-234v-30.5t10 -26.5h-197zM748 -483l57 213h61l56 -213h-50l-14 49h-49l-10 -49h-51zM795 -98q0 -14 11 -22.5t24.5 -10.5t24.5 3t13 17q-2 59 -18 122t-55 110v-219zM814 337.5q-3 18.5 5 29.5q10 12 31.5 14 t26.5 -21q0 -10 -7.5 -15t-14.5 -5t-13 4t-6 14q-12 -4 -12.5 -13t7 -20.5t17.5 -19.5t16 -10q12 -4 31.5 -3t30.5 11q20 20 16 38.5t-19.5 35t-35 30t-29.5 23.5q-16 14 -27.5 40t-11.5 50.5t12.5 45t40.5 26.5q25 4 51.5 3t51.5 -1l-6 -10q0 -12 7 -27.5t12 -30t4 -28 t-15 -25.5q-12 -10 -30.5 -9t-20.5 21q0 10 6 15.5t14 5.5t14.5 -5t4.5 -14q12 2 12 12.5t-7 20.5t-17.5 19.5t-16.5 11.5q-14 4 -31.5 1t-23.5 -17q-12 -25 -4 -42.5t24.5 -30.5t35.5 -25.5t30 -26.5q14 -18 21 -45t4 -50.5t-18.5 -42t-45.5 -20.5q-27 -2 -52.5 -1t-50.5 1 q8 2 5 16.5t-8 32.5t-8 36.5zM815 -397h39q-4 23 -9 44t-11 44zM821 819q4 -12 16.5 -10t14.5 14q2 18 -10 41q-6 -8 -14.5 -21.5t-6.5 -23.5zM934 862l4 -12q6 -18 23 -8q14 6 21 21.5t5 31.5q-2 10 -9 16.5t-22 -4.5q-18 -14 -22 -45zM940 -141q10 14 13 35.5t2 45t-3 46 t-2 39.5v118v29.5t-10 28.5h72q-10 -10 -13.5 -29.5t-2.5 -41t3 -42t2 -33.5v-155h99q23 0 54.5 -3t51.5 11q-4 -8 -7 -28.5t-13 -20.5h-246zM948 -272q27 4 61.5 6t57.5 -15q31 -23 24 -55.5t-36 -46.5q14 -6 20 -18.5t9 -26.5t5.5 -29.5t8.5 -25.5h-49q-6 10 -8.5 25.5 t-6.5 28.5t-12 21.5t-25 6.5v-82h-49v211zM995.5 -330.5q1.5 -23.5 1.5 -34.5h13q18 0 25 10.5t6 21.5t-11 20.5t-26 7.5q-10 -2 -8.5 -25.5zM1004 252q10 10 10 23.5v27.5v234v29.5t-10 27.5h120q23 -25 24 -57.5t-9 -63.5q-4 -8 -13.5 -28.5t-18.5 -43t-12 -43t9 -26.5 q-4 12 6 13t20.5 -4t12.5 -13.5t-17 -16.5q-23 -10 -33 8.5t-8 34.5q0 14 6.5 30.5t8.5 30t-4 21.5t-29 6v-149q16 0 41 -2t41 10q-4 -12 -7 -24.5t-7 -24.5h-131zM1034 201h76q-12 -27 1 -63t24 -58q12 29 22 59.5t0 61.5h76q-20 -12 -24.5 -37t-10.5 -45q-6 -18 -22.5 -46 t-16.5 -46q0 -10 -1 -24.5t-1 -29t2 -28t10 -21.5h-71q16 16 13 50t-3 57q-23 41 -39 88q-8 23 -12 45t-23 37zM1067 485q20 0 44 2t26 31q2 31 -24 33t-46 2v-68zM1124 -270h50v-213h-50v213zM1174 893q-4 -10 1 -25.5t21 -3.5q12 10 20.5 31t10.5 37q-4 18 -15 14 q-16 -8 -25 -22.5t-13 -30.5zM1202 -457q0 14 9.5 21.5t19.5 7.5t19.5 -7t9.5 -22q0 -14 -9.5 -21t-19.5 -7t-19.5 7t-9.5 21zM1221 629q-6 -6 4 -8q51 -20 113.5 -16.5t115.5 -0.5q55 -4 111 -18q29 -8 49 -22.5t45 -26.5q0 59 -19.5 101t-76.5 64q33 29 65.5 56t73.5 43 q-47 45 -105.5 72.5t-121.5 44.5q-2 -53 -3.5 -107.5t-5.5 -108.5l-2 3v-7q-25 -2 -60.5 -4t-70.5 -8t-65.5 -19.5t-46.5 -37.5zM1288 -270h53l66 -144q-4 35 -4 72v72h45v-213h-49q-18 37 -34.5 74.5t-35.5 72.5q4 -37 4 -73.5v-73.5h-45v213zM1315 956q16 18 30.5 37.5 t18.5 44.5h-2q-35 -39 -47 -82zM1475.5 -399.5q-7.5 34.5 13.5 75.5q12 29 39.5 42.5t58.5 13.5h10.5t17.5 -2t15 -4t6 -5l-8 -38q-25 12 -46 8t-34.5 -18.5t-18.5 -35t3 -45.5q12 -43 57 -38q10 2 8 20t-2 27h-24v39h71v-115q-39 -14 -74.5 -8t-60 27.5t-32 56z" />
<glyph unicode="6" d="M25 629q66 35 131 64.5t137 49.5q4 0 8 19.5t8 43t7 46t8 31.5q20 31 63 49t76 33q84 35 170 59.5t174 46.5q90 23 179 38t181 24q33 4 77 8t90 3t87 -11.5t66 -36.5q4 -4 0 -28t-6 -32l-6 -92q0 -4 4 -4q76 -23 145.5 -55.5t116.5 -98.5v-2q-16 4 -35.5 -3t-38 -19 t-36 -26.5t-25.5 -24.5q29 -16 46 -45t25.5 -64t7 -69.5t-11.5 -63.5q-16 41 -48 63.5t-69.5 32.5t-80.5 13.5t-80 5.5q-41 4 -88 2t-88 12q-16 6 -22.5 24.5t-7.5 41t2 45t5 34.5q-174 -12 -345 -52t-335 -97q-6 -4 -6 -6q2 -10 7 -33t10 -47.5t6.5 -46t-7.5 -27.5 q-23 -16 -55.5 -20t-60.5 -8q-37 -4 -75 -10.5t-75 -12.5q-66 -12 -123 -37q-14 -6 -27.5 -12t-27.5 -17q-6 -6 -16.5 -17t-16.5 -15q10 33 23.5 63.5t25.5 61.5q2 6 12.5 24.5t20.5 39t17.5 36.5t5.5 20q-23 33 -55.5 64t-73.5 35zM74 -270h43q4 -39 8 -79t10 -79 q4 41 10.5 80t12.5 78h37l22 -158q6 82 19 158h38l-38 -213h-41q-6 35 -11.5 70.5t-9.5 70.5q-4 -35 -10 -71t-12 -70h-41zM78 635q33 -20 57.5 -46t44.5 -57q2 -4 -3 -16t-13 -26.5t-15.5 -27.5t-9.5 -18q-10 -23 -20 -45t-19 -45q47 25 98.5 37t103.5 19.5t104.5 14.5 t101.5 24q-16 18 -44 24t-59.5 7t-62.5 -2t-51 -5v124t4 124q-57 -14 -110.5 -35.5t-106.5 -50.5zM281 -270h43q4 -39 8 -79t10 -79q4 41 10 80t13 78h36l23 -158q6 82 18 158h39l-39 -213h-41q-6 35 -11 70.5t-9 70.5q-4 -35 -10 -71t-13 -70h-41zM315 530q18 0 49 20.5 t50 29.5q35 16 71.5 28.5t71.5 24.5q145 45 299 80q74 16 147.5 29.5t149.5 21.5q70 6 148.5 9t144.5 -28q4 53 4 106.5t4 106.5q2 29 3 55.5t5 53.5q2 12 -5 20.5t-19.5 13.5t-25.5 7t-23 4q-115 16 -236 0t-233 -39q-123 -25 -243 -57.5t-235 -83.5q-23 -10 -45 -21.5 t-41 -27.5q-20 -16 -24 -47t-8 -54q-8 -63 -8.5 -125.5t-0.5 -126.5zM340 641q0 20 14.5 34.5t34.5 18.5q4 2 13.5 -1t5.5 -13q-12 -8 -23 -8q-10 -4 -14 -15.5t2 -21.5q4 -4 16 -8q18 -2 30.5 11t22 31.5t13.5 39t8 32.5q-29 -25 -57 -32q-27 -4 -44 10q-16 10 -16 35 q0 27 12 49q29 59 84 94q20 12 50 23q10 4 20 11t20 9q9 0 7 -12q12 0 18 -2q35 -4 39 -43q6 -41 -21.5 -79t-62.5 -61q-18 -12 -27.5 -30.5t-17.5 -37t-19.5 -35.5t-31.5 -28q-23 -14 -51 -8q-29 6 -25 37zM376 745.5q3 -14.5 21 -14.5q29 0 47.5 19.5t29.5 46t17.5 55.5 t10.5 47q-27 -6 -50.5 -22.5t-41.5 -36.5q-6 -6 -15.5 -23.5t-15.5 -37t-3 -34zM487 -270h43q4 -39 8.5 -79t10.5 -79q4 41 10 80l12 78h37l23 -158q6 82 18 158h39l-39 -213h-41q-6 35 -11 70.5t-9 70.5q-4 -35 -10.5 -71t-12.5 -70h-41zM496 760q14 4 28.5 18.5t23.5 32.5 t13 37.5t0 34.5q-6 20 -31 20q-12 -35 -19 -71.5t-15 -71.5zM545 -12.5q2 32.5 2 57.5q0 18 -1 36.5t1 37.5q0 47 25.5 64.5t68.5 17.5q37 0 53.5 -19.5t21.5 -48.5t3 -61.5t-2 -57.5v-73q0 -47 -25.5 -65.5t-66.5 -16.5q-37 0 -54.5 19.5t-22.5 48t-3 61zM589 760.5 q-5 19.5 5 44t29.5 44t40.5 21.5q12 0 16 -10q8 -12 2 -26q-6 -23 -25.5 -39.5t-42.5 -20.5q2 -12 10.5 -13t16.5 3t16.5 10t12.5 10q23 20 33 44t20 49q4 6 -8.5 24.5t-7.5 30.5q8 27 32 22q10 0 15 -12q4 -10 3 -22.5t-3 -22.5q20 2 28.5 -1t-4.5 -26q-8 -16 -17 -32.5 t-11 -34.5q0 -8 8 -8q20 -2 32.5 17t23.5 45t21.5 49.5t24.5 31.5q6 2 14 -2q6 -6 3 -12q-4 -10 -9.5 -19.5t-1.5 -21.5t11.5 -24.5t5.5 -27.5h2q10 12 17 27.5t14.5 31t16.5 29t25 19.5q35 14 48 -18q8 -14 5 -24.5t-1 -27.5q8 2 14 9q14 12 16 33.5t9 37.5q2 6 9 7t13 -1 q8 -4 6 -12v-2q10 10 23 16q20 8 28 -12q4 -12 1 -22.5t-8 -20.5t-9 -20.5t-2 -22.5q27 20 39 52t41 51q20 12 49 0q4 8 17.5 9t9.5 -14q-4 -18 -14.5 -37.5t-10.5 -37.5q0 -12 8 -4q18 18 28.5 44.5t20 54.5t22.5 51.5t40 39.5q14 6 22 -8q12 -23 4 -46.5t-22 -39.5 q-6 -8 -18.5 -18.5t-23.5 -22.5t-18.5 -24.5t-3.5 -24.5q4 -16 21 -13q14 4 20.5 17.5t14.5 23.5q6 6 12 2q8 0 8 -8l-4 -12q-16 -37 -51 -51q-25 -12 -41 14q-4 4 -4 10q-8 -8 -15.5 -15t-17.5 -11q-14 -4 -26 10q-16 -12 -29 -14q-29 -6 -41 18v2q-8 -8 -16.5 -15 t-20.5 -12q-14 -6 -25 11q-6 12 -3 22t8.5 21.5t8.5 21.5t1 21q-16 -6 -23.5 -17.5t-10.5 -25t-5 -27.5t-8 -27q-6 -16 -25 -8q-6 2 -6 10q0 4 1 8.5t1 8.5q-14 -4 -19.5 -4t-15.5 -10t-22.5 -18.5t-28.5 -8.5q-10 2 -16.5 8t-10.5 14q-16 -16 -38.5 -31.5t-45.5 -11.5 q-14 2 -24 17q-10 -10 -21.5 -20.5t-25.5 -14.5q-29 -10 -33 20q-4 25 8 41.5t21 36.5q2 4 -2.5 5t-6.5 -3q-8 -18 -18 -41.5t-23.5 -43t-33 -33t-45.5 -11.5q-29 2 -34 21.5zM598 11q-2 -36 2 -70q0 -14 9 -25.5t19.5 -14.5t20.5 2t15 21q4 12 3 26.5t-1 26.5v142 q0 14 -9.5 25.5t-20.5 14.5t-22.5 -2t-13.5 -22q-2 -12 -1 -26.5t1 -26.5q0 -35 -2 -71zM612 252q10 14 13.5 35.5t2.5 45t-3 46t-2 39.5v119v29.5t-11 27.5h72q-12 -12 -11 -31.5t1 -36.5v-133q0 -16 -1 -47t9 -45q8 -10 18.5 -11t19.5 4t16 14t9 18q6 25 2 51t-8 51 q-4 14 -10 36.5t-8 46.5t2 44t20 31q10 8 31 9t27 -15t-1 -21.5t-17.5 -3.5t-17.5 8t1 15q-16 -8 -16 -28t6 -42.5t15 -43t13 -32.5q12 -35 17.5 -83t-19.5 -81q-10 -14 -32.5 -18t-48 -4t-50 3t-39.5 3zM614 795q10 -2 26.5 14t18.5 27q4 6 -2 10t-12 0 q-10 -10 -17.5 -23.5t-13.5 -27.5zM672 -457q0 14 9 21.5t19.5 7.5t19.5 -7t9 -22q0 -14 -9 -21t-19.5 -7t-19.5 7t-9 21zM729 924q-2 -9 4 -19h2q0 6 2 12.5t-2 12.5q-4 0 -6 -6zM733 -141q10 12 12.5 32.5t1 43t-3.5 43t-2 36.5v166q0 8 -8 21h53q27 -12 49.5 -49 t32.5 -64q0 25 3 57.5t-13 55.5h72q-10 -10 -10 -23.5v-27.5v-234v-30.5t10 -26.5h-197zM748 -483l57 213h61l56 -213h-50l-14 49h-49l-10 -49h-51zM795 -98q0 -14 11 -22.5t24.5 -10.5t24.5 3t13 17q-2 59 -18 122t-55 110v-219zM814 337.5q-3 18.5 5 29.5q10 12 31.5 14 t26.5 -21q0 -10 -7.5 -15t-14.5 -5t-13 4t-6 14q-12 -4 -12.5 -13t7 -20.5t17.5 -19.5t16 -10q12 -4 31.5 -3t30.5 11q20 20 16 38.5t-19.5 35t-35 30t-29.5 23.5q-16 14 -27.5 40t-11.5 50.5t12.5 45t40.5 26.5q25 4 51.5 3t51.5 -1l-6 -10q0 -12 7 -27.5t12 -30t4 -28 t-15 -25.5q-12 -10 -30.5 -9t-20.5 21q0 10 6 15.5t14 5.5t14.5 -5t4.5 -14q12 2 12 12.5t-7 20.5t-17.5 19.5t-16.5 11.5q-14 4 -31.5 1t-23.5 -17q-12 -25 -4 -42.5t24.5 -30.5t35.5 -25.5t30 -26.5q14 -18 21 -45t4 -50.5t-18.5 -42t-45.5 -20.5q-27 -2 -52.5 -1t-50.5 1 q8 2 5 16.5t-8 32.5t-8 36.5zM815 -397h39q-4 23 -9 44t-11 44zM821 819q4 -12 16.5 -10t14.5 14q2 18 -10 41q-6 -8 -14.5 -21.5t-6.5 -23.5zM934 862l4 -12q6 -18 23 -8q14 6 21 21.5t5 31.5q-2 10 -9 16.5t-22 -4.5q-18 -14 -22 -45zM940 -141q10 14 13 35.5t2 45t-3 46 t-2 39.5v118v29.5t-10 28.5h72q-10 -10 -13.5 -29.5t-2.5 -41t3 -42t2 -33.5v-155h99q23 0 54.5 -3t51.5 11q-4 -8 -7 -28.5t-13 -20.5h-246zM948 -272q27 4 61.5 6t57.5 -15q31 -23 24 -55.5t-36 -46.5q14 -6 20 -18.5t9 -26.5t5.5 -29.5t8.5 -25.5h-49q-6 10 -8.5 25.5 t-6.5 28.5t-12 21.5t-25 6.5v-82h-49v211zM995.5 -330.5q1.5 -23.5 1.5 -34.5h13q18 0 25 10.5t6 21.5t-11 20.5t-26 7.5q-10 -2 -8.5 -25.5zM1004 252q10 10 10 23.5v27.5v234v29.5t-10 27.5h120q23 -25 24 -57.5t-9 -63.5q-4 -8 -13.5 -28.5t-18.5 -43t-12 -43t9 -26.5 q-4 12 6 13t20.5 -4t12.5 -13.5t-17 -16.5q-23 -10 -33 8.5t-8 34.5q0 14 6.5 30.5t8.5 30t-4 21.5t-29 6v-149q16 0 41 -2t41 10q-4 -12 -7 -24.5t-7 -24.5h-131zM1034 201h76q-12 -27 1 -63t24 -58q12 29 22 59.5t0 61.5h76q-20 -12 -24.5 -37t-10.5 -45q-6 -18 -22.5 -46 t-16.5 -46q0 -10 -1 -24.5t-1 -29t2 -28t10 -21.5h-71q16 16 13 50t-3 57q-23 41 -39 88q-8 23 -12 45t-23 37zM1067 485q20 0 44 2t26 31q2 31 -24 33t-46 2v-68zM1124 -270h50v-213h-50v213zM1174 893q-4 -10 1 -25.5t21 -3.5q12 10 20.5 31t10.5 37q-4 18 -15 14 q-16 -8 -25 -22.5t-13 -30.5zM1202 -457q0 14 9.5 21.5t19.5 7.5t19.5 -7t9.5 -22q0 -14 -9.5 -21t-19.5 -7t-19.5 7t-9.5 21zM1221 629q-6 -6 4 -8q51 -20 113.5 -16.5t115.5 -0.5q55 -4 111 -18q29 -8 49 -22.5t45 -26.5q0 59 -19.5 101t-76.5 64q33 29 65.5 56t73.5 43 q-47 45 -105.5 72.5t-121.5 44.5q-2 -53 -3.5 -107.5t-5.5 -108.5l-2 3v-7q-25 -2 -60.5 -4t-70.5 -8t-65.5 -19.5t-46.5 -37.5zM1288 -270h53l66 -144q-4 35 -4 72v72h45v-213h-49q-18 37 -34.5 74.5t-35.5 72.5q4 -37 4 -73.5v-73.5h-45v213zM1315 956q16 18 30.5 37.5 t18.5 44.5h-2q-35 -39 -47 -82zM1475.5 -399.5q-7.5 34.5 13.5 75.5q12 29 39.5 42.5t58.5 13.5h10.5t17.5 -2t15 -4t6 -5l-8 -38q-25 12 -46 8t-34.5 -18.5t-18.5 -35t3 -45.5q12 -43 57 -38q10 2 8 20t-2 27h-24v39h71v-115q-39 -14 -74.5 -8t-60 27.5t-32 56z" />
<glyph unicode="7" d="M25 629q66 35 131 64.5t137 49.5q4 0 8 19.5t8 43t7 46t8 31.5q20 31 63 49t76 33q84 35 170 59.5t174 46.5q90 23 179 38t181 24q33 4 77 8t90 3t87 -11.5t66 -36.5q4 -4 0 -28t-6 -32l-6 -92q0 -4 4 -4q76 -23 145.5 -55.5t116.5 -98.5v-2q-16 4 -35.5 -3t-38 -19 t-36 -26.5t-25.5 -24.5q29 -16 46 -45t25.5 -64t7 -69.5t-11.5 -63.5q-16 41 -48 63.5t-69.5 32.5t-80.5 13.5t-80 5.5q-41 4 -88 2t-88 12q-16 6 -22.5 24.5t-7.5 41t2 45t5 34.5q-174 -12 -345 -52t-335 -97q-6 -4 -6 -6q2 -10 7 -33t10 -47.5t6.5 -46t-7.5 -27.5 q-23 -16 -55.5 -20t-60.5 -8q-37 -4 -75 -10.5t-75 -12.5q-66 -12 -123 -37q-14 -6 -27.5 -12t-27.5 -17q-6 -6 -16.5 -17t-16.5 -15q10 33 23.5 63.5t25.5 61.5q2 6 12.5 24.5t20.5 39t17.5 36.5t5.5 20q-23 33 -55.5 64t-73.5 35zM74 -270h43q4 -39 8 -79t10 -79 q4 41 10.5 80t12.5 78h37l22 -158q6 82 19 158h38l-38 -213h-41q-6 35 -11.5 70.5t-9.5 70.5q-4 -35 -10 -71t-12 -70h-41zM78 635q33 -20 57.5 -46t44.5 -57q2 -4 -3 -16t-13 -26.5t-15.5 -27.5t-9.5 -18q-10 -23 -20 -45t-19 -45q47 25 98.5 37t103.5 19.5t104.5 14.5 t101.5 24q-16 18 -44 24t-59.5 7t-62.5 -2t-51 -5v124t4 124q-57 -14 -110.5 -35.5t-106.5 -50.5zM281 -270h43q4 -39 8 -79t10 -79q4 41 10 80t13 78h36l23 -158q6 82 18 158h39l-39 -213h-41q-6 35 -11 70.5t-9 70.5q-4 -35 -10 -71t-13 -70h-41zM315 530q18 0 49 20.5 t50 29.5q35 16 71.5 28.5t71.5 24.5q145 45 299 80q74 16 147.5 29.5t149.5 21.5q70 6 148.5 9t144.5 -28q4 53 4 106.5t4 106.5q2 29 3 55.5t5 53.5q2 12 -5 20.5t-19.5 13.5t-25.5 7t-23 4q-115 16 -236 0t-233 -39q-123 -25 -243 -57.5t-235 -83.5q-23 -10 -45 -21.5 t-41 -27.5q-20 -16 -24 -47t-8 -54q-8 -63 -8.5 -125.5t-0.5 -126.5zM340 641q0 20 14.5 34.5t34.5 18.5q4 2 13.5 -1t5.5 -13q-12 -8 -23 -8q-10 -4 -14 -15.5t2 -21.5q4 -4 16 -8q18 -2 30.5 11t22 31.5t13.5 39t8 32.5q-29 -25 -57 -32q-27 -4 -44 10q-16 10 -16 35 q0 27 12 49q29 59 84 94q20 12 50 23q10 4 20 11t20 9q9 0 7 -12q12 0 18 -2q35 -4 39 -43q6 -41 -21.5 -79t-62.5 -61q-18 -12 -27.5 -30.5t-17.5 -37t-19.5 -35.5t-31.5 -28q-23 -14 -51 -8q-29 6 -25 37zM376 745.5q3 -14.5 21 -14.5q29 0 47.5 19.5t29.5 46t17.5 55.5 t10.5 47q-27 -6 -50.5 -22.5t-41.5 -36.5q-6 -6 -15.5 -23.5t-15.5 -37t-3 -34zM487 -270h43q4 -39 8.5 -79t10.5 -79q4 41 10 80l12 78h37l23 -158q6 82 18 158h39l-39 -213h-41q-6 35 -11 70.5t-9 70.5q-4 -35 -10.5 -71t-12.5 -70h-41zM496 760q14 4 28.5 18.5t23.5 32.5 t13 37.5t0 34.5q-6 20 -31 20q-12 -35 -19 -71.5t-15 -71.5zM545 -12.5q2 32.5 2 57.5q0 18 -1 36.5t1 37.5q0 47 25.5 64.5t68.5 17.5q37 0 53.5 -19.5t21.5 -48.5t3 -61.5t-2 -57.5v-73q0 -47 -25.5 -65.5t-66.5 -16.5q-37 0 -54.5 19.5t-22.5 48t-3 61zM589 760.5 q-5 19.5 5 44t29.5 44t40.5 21.5q12 0 16 -10q8 -12 2 -26q-6 -23 -25.5 -39.5t-42.5 -20.5q2 -12 10.5 -13t16.5 3t16.5 10t12.5 10q23 20 33 44t20 49q4 6 -8.5 24.5t-7.5 30.5q8 27 32 22q10 0 15 -12q4 -10 3 -22.5t-3 -22.5q20 2 28.5 -1t-4.5 -26q-8 -16 -17 -32.5 t-11 -34.5q0 -8 8 -8q20 -2 32.5 17t23.5 45t21.5 49.5t24.5 31.5q6 2 14 -2q6 -6 3 -12q-4 -10 -9.5 -19.5t-1.5 -21.5t11.5 -24.5t5.5 -27.5h2q10 12 17 27.5t14.5 31t16.5 29t25 19.5q35 14 48 -18q8 -14 5 -24.5t-1 -27.5q8 2 14 9q14 12 16 33.5t9 37.5q2 6 9 7t13 -1 q8 -4 6 -12v-2q10 10 23 16q20 8 28 -12q4 -12 1 -22.5t-8 -20.5t-9 -20.5t-2 -22.5q27 20 39 52t41 51q20 12 49 0q4 8 17.5 9t9.5 -14q-4 -18 -14.5 -37.5t-10.5 -37.5q0 -12 8 -4q18 18 28.5 44.5t20 54.5t22.5 51.5t40 39.5q14 6 22 -8q12 -23 4 -46.5t-22 -39.5 q-6 -8 -18.5 -18.5t-23.5 -22.5t-18.5 -24.5t-3.5 -24.5q4 -16 21 -13q14 4 20.5 17.5t14.5 23.5q6 6 12 2q8 0 8 -8l-4 -12q-16 -37 -51 -51q-25 -12 -41 14q-4 4 -4 10q-8 -8 -15.5 -15t-17.5 -11q-14 -4 -26 10q-16 -12 -29 -14q-29 -6 -41 18v2q-8 -8 -16.5 -15 t-20.5 -12q-14 -6 -25 11q-6 12 -3 22t8.5 21.5t8.5 21.5t1 21q-16 -6 -23.5 -17.5t-10.5 -25t-5 -27.5t-8 -27q-6 -16 -25 -8q-6 2 -6 10q0 4 1 8.5t1 8.5q-14 -4 -19.5 -4t-15.5 -10t-22.5 -18.5t-28.5 -8.5q-10 2 -16.5 8t-10.5 14q-16 -16 -38.5 -31.5t-45.5 -11.5 q-14 2 -24 17q-10 -10 -21.5 -20.5t-25.5 -14.5q-29 -10 -33 20q-4 25 8 41.5t21 36.5q2 4 -2.5 5t-6.5 -3q-8 -18 -18 -41.5t-23.5 -43t-33 -33t-45.5 -11.5q-29 2 -34 21.5zM598 11q-2 -36 2 -70q0 -14 9 -25.5t19.5 -14.5t20.5 2t15 21q4 12 3 26.5t-1 26.5v142 q0 14 -9.5 25.5t-20.5 14.5t-22.5 -2t-13.5 -22q-2 -12 -1 -26.5t1 -26.5q0 -35 -2 -71zM612 252q10 14 13.5 35.5t2.5 45t-3 46t-2 39.5v119v29.5t-11 27.5h72q-12 -12 -11 -31.5t1 -36.5v-133q0 -16 -1 -47t9 -45q8 -10 18.5 -11t19.5 4t16 14t9 18q6 25 2 51t-8 51 q-4 14 -10 36.5t-8 46.5t2 44t20 31q10 8 31 9t27 -15t-1 -21.5t-17.5 -3.5t-17.5 8t1 15q-16 -8 -16 -28t6 -42.5t15 -43t13 -32.5q12 -35 17.5 -83t-19.5 -81q-10 -14 -32.5 -18t-48 -4t-50 3t-39.5 3zM614 795q10 -2 26.5 14t18.5 27q4 6 -2 10t-12 0 q-10 -10 -17.5 -23.5t-13.5 -27.5zM672 -457q0 14 9 21.5t19.5 7.5t19.5 -7t9 -22q0 -14 -9 -21t-19.5 -7t-19.5 7t-9 21zM729 924q-2 -9 4 -19h2q0 6 2 12.5t-2 12.5q-4 0 -6 -6zM733 -141q10 12 12.5 32.5t1 43t-3.5 43t-2 36.5v166q0 8 -8 21h53q27 -12 49.5 -49 t32.5 -64q0 25 3 57.5t-13 55.5h72q-10 -10 -10 -23.5v-27.5v-234v-30.5t10 -26.5h-197zM748 -483l57 213h61l56 -213h-50l-14 49h-49l-10 -49h-51zM795 -98q0 -14 11 -22.5t24.5 -10.5t24.5 3t13 17q-2 59 -18 122t-55 110v-219zM814 337.5q-3 18.5 5 29.5q10 12 31.5 14 t26.5 -21q0 -10 -7.5 -15t-14.5 -5t-13 4t-6 14q-12 -4 -12.5 -13t7 -20.5t17.5 -19.5t16 -10q12 -4 31.5 -3t30.5 11q20 20 16 38.5t-19.5 35t-35 30t-29.5 23.5q-16 14 -27.5 40t-11.5 50.5t12.5 45t40.5 26.5q25 4 51.5 3t51.5 -1l-6 -10q0 -12 7 -27.5t12 -30t4 -28 t-15 -25.5q-12 -10 -30.5 -9t-20.5 21q0 10 6 15.5t14 5.5t14.5 -5t4.5 -14q12 2 12 12.5t-7 20.5t-17.5 19.5t-16.5 11.5q-14 4 -31.5 1t-23.5 -17q-12 -25 -4 -42.5t24.5 -30.5t35.5 -25.5t30 -26.5q14 -18 21 -45t4 -50.5t-18.5 -42t-45.5 -20.5q-27 -2 -52.5 -1t-50.5 1 q8 2 5 16.5t-8 32.5t-8 36.5zM815 -397h39q-4 23 -9 44t-11 44zM821 819q4 -12 16.5 -10t14.5 14q2 18 -10 41q-6 -8 -14.5 -21.5t-6.5 -23.5zM934 862l4 -12q6 -18 23 -8q14 6 21 21.5t5 31.5q-2 10 -9 16.5t-22 -4.5q-18 -14 -22 -45zM940 -141q10 14 13 35.5t2 45t-3 46 t-2 39.5v118v29.5t-10 28.5h72q-10 -10 -13.5 -29.5t-2.5 -41t3 -42t2 -33.5v-155h99q23 0 54.5 -3t51.5 11q-4 -8 -7 -28.5t-13 -20.5h-246zM948 -272q27 4 61.5 6t57.5 -15q31 -23 24 -55.5t-36 -46.5q14 -6 20 -18.5t9 -26.5t5.5 -29.5t8.5 -25.5h-49q-6 10 -8.5 25.5 t-6.5 28.5t-12 21.5t-25 6.5v-82h-49v211zM995.5 -330.5q1.5 -23.5 1.5 -34.5h13q18 0 25 10.5t6 21.5t-11 20.5t-26 7.5q-10 -2 -8.5 -25.5zM1004 252q10 10 10 23.5v27.5v234v29.5t-10 27.5h120q23 -25 24 -57.5t-9 -63.5q-4 -8 -13.5 -28.5t-18.5 -43t-12 -43t9 -26.5 q-4 12 6 13t20.5 -4t12.5 -13.5t-17 -16.5q-23 -10 -33 8.5t-8 34.5q0 14 6.5 30.5t8.5 30t-4 21.5t-29 6v-149q16 0 41 -2t41 10q-4 -12 -7 -24.5t-7 -24.5h-131zM1034 201h76q-12 -27 1 -63t24 -58q12 29 22 59.5t0 61.5h76q-20 -12 -24.5 -37t-10.5 -45q-6 -18 -22.5 -46 t-16.5 -46q0 -10 -1 -24.5t-1 -29t2 -28t10 -21.5h-71q16 16 13 50t-3 57q-23 41 -39 88q-8 23 -12 45t-23 37zM1067 485q20 0 44 2t26 31q2 31 -24 33t-46 2v-68zM1124 -270h50v-213h-50v213zM1174 893q-4 -10 1 -25.5t21 -3.5q12 10 20.5 31t10.5 37q-4 18 -15 14 q-16 -8 -25 -22.5t-13 -30.5zM1202 -457q0 14 9.5 21.5t19.5 7.5t19.5 -7t9.5 -22q0 -14 -9.5 -21t-19.5 -7t-19.5 7t-9.5 21zM1221 629q-6 -6 4 -8q51 -20 113.5 -16.5t115.5 -0.5q55 -4 111 -18q29 -8 49 -22.5t45 -26.5q0 59 -19.5 101t-76.5 64q33 29 65.5 56t73.5 43 q-47 45 -105.5 72.5t-121.5 44.5q-2 -53 -3.5 -107.5t-5.5 -108.5l-2 3v-7q-25 -2 -60.5 -4t-70.5 -8t-65.5 -19.5t-46.5 -37.5zM1288 -270h53l66 -144q-4 35 -4 72v72h45v-213h-49q-18 37 -34.5 74.5t-35.5 72.5q4 -37 4 -73.5v-73.5h-45v213zM1315 956q16 18 30.5 37.5 t18.5 44.5h-2q-35 -39 -47 -82zM1475.5 -399.5q-7.5 34.5 13.5 75.5q12 29 39.5 42.5t58.5 13.5h10.5t17.5 -2t15 -4t6 -5l-8 -38q-25 12 -46 8t-34.5 -18.5t-18.5 -35t3 -45.5q12 -43 57 -38q10 2 8 20t-2 27h-24v39h71v-115q-39 -14 -74.5 -8t-60 27.5t-32 56z" />
<glyph unicode="8" d="M25 629q66 35 131 64.5t137 49.5q4 0 8 19.5t8 43t7 46t8 31.5q20 31 63 49t76 33q84 35 170 59.5t174 46.5q90 23 179 38t181 24q33 4 77 8t90 3t87 -11.5t66 -36.5q4 -4 0 -28t-6 -32l-6 -92q0 -4 4 -4q76 -23 145.5 -55.5t116.5 -98.5v-2q-16 4 -35.5 -3t-38 -19 t-36 -26.5t-25.5 -24.5q29 -16 46 -45t25.5 -64t7 -69.5t-11.5 -63.5q-16 41 -48 63.5t-69.5 32.5t-80.5 13.5t-80 5.5q-41 4 -88 2t-88 12q-16 6 -22.5 24.5t-7.5 41t2 45t5 34.5q-174 -12 -345 -52t-335 -97q-6 -4 -6 -6q2 -10 7 -33t10 -47.5t6.5 -46t-7.5 -27.5 q-23 -16 -55.5 -20t-60.5 -8q-37 -4 -75 -10.5t-75 -12.5q-66 -12 -123 -37q-14 -6 -27.5 -12t-27.5 -17q-6 -6 -16.5 -17t-16.5 -15q10 33 23.5 63.5t25.5 61.5q2 6 12.5 24.5t20.5 39t17.5 36.5t5.5 20q-23 33 -55.5 64t-73.5 35zM74 -270h43q4 -39 8 -79t10 -79 q4 41 10.5 80t12.5 78h37l22 -158q6 82 19 158h38l-38 -213h-41q-6 35 -11.5 70.5t-9.5 70.5q-4 -35 -10 -71t-12 -70h-41zM78 635q33 -20 57.5 -46t44.5 -57q2 -4 -3 -16t-13 -26.5t-15.5 -27.5t-9.5 -18q-10 -23 -20 -45t-19 -45q47 25 98.5 37t103.5 19.5t104.5 14.5 t101.5 24q-16 18 -44 24t-59.5 7t-62.5 -2t-51 -5v124t4 124q-57 -14 -110.5 -35.5t-106.5 -50.5zM281 -270h43q4 -39 8 -79t10 -79q4 41 10 80t13 78h36l23 -158q6 82 18 158h39l-39 -213h-41q-6 35 -11 70.5t-9 70.5q-4 -35 -10 -71t-13 -70h-41zM315 530q18 0 49 20.5 t50 29.5q35 16 71.5 28.5t71.5 24.5q145 45 299 80q74 16 147.5 29.5t149.5 21.5q70 6 148.5 9t144.5 -28q4 53 4 106.5t4 106.5q2 29 3 55.5t5 53.5q2 12 -5 20.5t-19.5 13.5t-25.5 7t-23 4q-115 16 -236 0t-233 -39q-123 -25 -243 -57.5t-235 -83.5q-23 -10 -45 -21.5 t-41 -27.5q-20 -16 -24 -47t-8 -54q-8 -63 -8.5 -125.5t-0.5 -126.5zM340 641q0 20 14.5 34.5t34.5 18.5q4 2 13.5 -1t5.5 -13q-12 -8 -23 -8q-10 -4 -14 -15.5t2 -21.5q4 -4 16 -8q18 -2 30.5 11t22 31.5t13.5 39t8 32.5q-29 -25 -57 -32q-27 -4 -44 10q-16 10 -16 35 q0 27 12 49q29 59 84 94q20 12 50 23q10 4 20 11t20 9q9 0 7 -12q12 0 18 -2q35 -4 39 -43q6 -41 -21.5 -79t-62.5 -61q-18 -12 -27.5 -30.5t-17.5 -37t-19.5 -35.5t-31.5 -28q-23 -14 -51 -8q-29 6 -25 37zM376 745.5q3 -14.5 21 -14.5q29 0 47.5 19.5t29.5 46t17.5 55.5 t10.5 47q-27 -6 -50.5 -22.5t-41.5 -36.5q-6 -6 -15.5 -23.5t-15.5 -37t-3 -34zM487 -270h43q4 -39 8.5 -79t10.5 -79q4 41 10 80l12 78h37l23 -158q6 82 18 158h39l-39 -213h-41q-6 35 -11 70.5t-9 70.5q-4 -35 -10.5 -71t-12.5 -70h-41zM496 760q14 4 28.5 18.5t23.5 32.5 t13 37.5t0 34.5q-6 20 -31 20q-12 -35 -19 -71.5t-15 -71.5zM545 -12.5q2 32.5 2 57.5q0 18 -1 36.5t1 37.5q0 47 25.5 64.5t68.5 17.5q37 0 53.5 -19.5t21.5 -48.5t3 -61.5t-2 -57.5v-73q0 -47 -25.5 -65.5t-66.5 -16.5q-37 0 -54.5 19.5t-22.5 48t-3 61zM589 760.5 q-5 19.5 5 44t29.5 44t40.5 21.5q12 0 16 -10q8 -12 2 -26q-6 -23 -25.5 -39.5t-42.5 -20.5q2 -12 10.5 -13t16.5 3t16.5 10t12.5 10q23 20 33 44t20 49q4 6 -8.5 24.5t-7.5 30.5q8 27 32 22q10 0 15 -12q4 -10 3 -22.5t-3 -22.5q20 2 28.5 -1t-4.5 -26q-8 -16 -17 -32.5 t-11 -34.5q0 -8 8 -8q20 -2 32.5 17t23.5 45t21.5 49.5t24.5 31.5q6 2 14 -2q6 -6 3 -12q-4 -10 -9.5 -19.5t-1.5 -21.5t11.5 -24.5t5.5 -27.5h2q10 12 17 27.5t14.5 31t16.5 29t25 19.5q35 14 48 -18q8 -14 5 -24.5t-1 -27.5q8 2 14 9q14 12 16 33.5t9 37.5q2 6 9 7t13 -1 q8 -4 6 -12v-2q10 10 23 16q20 8 28 -12q4 -12 1 -22.5t-8 -20.5t-9 -20.5t-2 -22.5q27 20 39 52t41 51q20 12 49 0q4 8 17.5 9t9.5 -14q-4 -18 -14.5 -37.5t-10.5 -37.5q0 -12 8 -4q18 18 28.5 44.5t20 54.5t22.5 51.5t40 39.5q14 6 22 -8q12 -23 4 -46.5t-22 -39.5 q-6 -8 -18.5 -18.5t-23.5 -22.5t-18.5 -24.5t-3.5 -24.5q4 -16 21 -13q14 4 20.5 17.5t14.5 23.5q6 6 12 2q8 0 8 -8l-4 -12q-16 -37 -51 -51q-25 -12 -41 14q-4 4 -4 10q-8 -8 -15.5 -15t-17.5 -11q-14 -4 -26 10q-16 -12 -29 -14q-29 -6 -41 18v2q-8 -8 -16.5 -15 t-20.5 -12q-14 -6 -25 11q-6 12 -3 22t8.5 21.5t8.5 21.5t1 21q-16 -6 -23.5 -17.5t-10.5 -25t-5 -27.5t-8 -27q-6 -16 -25 -8q-6 2 -6 10q0 4 1 8.5t1 8.5q-14 -4 -19.5 -4t-15.5 -10t-22.5 -18.5t-28.5 -8.5q-10 2 -16.5 8t-10.5 14q-16 -16 -38.5 -31.5t-45.5 -11.5 q-14 2 -24 17q-10 -10 -21.5 -20.5t-25.5 -14.5q-29 -10 -33 20q-4 25 8 41.5t21 36.5q2 4 -2.5 5t-6.5 -3q-8 -18 -18 -41.5t-23.5 -43t-33 -33t-45.5 -11.5q-29 2 -34 21.5zM598 11q-2 -36 2 -70q0 -14 9 -25.5t19.5 -14.5t20.5 2t15 21q4 12 3 26.5t-1 26.5v142 q0 14 -9.5 25.5t-20.5 14.5t-22.5 -2t-13.5 -22q-2 -12 -1 -26.5t1 -26.5q0 -35 -2 -71zM612 252q10 14 13.5 35.5t2.5 45t-3 46t-2 39.5v119v29.5t-11 27.5h72q-12 -12 -11 -31.5t1 -36.5v-133q0 -16 -1 -47t9 -45q8 -10 18.5 -11t19.5 4t16 14t9 18q6 25 2 51t-8 51 q-4 14 -10 36.5t-8 46.5t2 44t20 31q10 8 31 9t27 -15t-1 -21.5t-17.5 -3.5t-17.5 8t1 15q-16 -8 -16 -28t6 -42.5t15 -43t13 -32.5q12 -35 17.5 -83t-19.5 -81q-10 -14 -32.5 -18t-48 -4t-50 3t-39.5 3zM614 795q10 -2 26.5 14t18.5 27q4 6 -2 10t-12 0 q-10 -10 -17.5 -23.5t-13.5 -27.5zM672 -457q0 14 9 21.5t19.5 7.5t19.5 -7t9 -22q0 -14 -9 -21t-19.5 -7t-19.5 7t-9 21zM729 924q-2 -9 4 -19h2q0 6 2 12.5t-2 12.5q-4 0 -6 -6zM733 -141q10 12 12.5 32.5t1 43t-3.5 43t-2 36.5v166q0 8 -8 21h53q27 -12 49.5 -49 t32.5 -64q0 25 3 57.5t-13 55.5h72q-10 -10 -10 -23.5v-27.5v-234v-30.5t10 -26.5h-197zM748 -483l57 213h61l56 -213h-50l-14 49h-49l-10 -49h-51zM795 -98q0 -14 11 -22.5t24.5 -10.5t24.5 3t13 17q-2 59 -18 122t-55 110v-219zM814 337.5q-3 18.5 5 29.5q10 12 31.5 14 t26.5 -21q0 -10 -7.5 -15t-14.5 -5t-13 4t-6 14q-12 -4 -12.5 -13t7 -20.5t17.5 -19.5t16 -10q12 -4 31.5 -3t30.5 11q20 20 16 38.5t-19.5 35t-35 30t-29.5 23.5q-16 14 -27.5 40t-11.5 50.5t12.5 45t40.5 26.5q25 4 51.5 3t51.5 -1l-6 -10q0 -12 7 -27.5t12 -30t4 -28 t-15 -25.5q-12 -10 -30.5 -9t-20.5 21q0 10 6 15.5t14 5.5t14.5 -5t4.5 -14q12 2 12 12.5t-7 20.5t-17.5 19.5t-16.5 11.5q-14 4 -31.5 1t-23.5 -17q-12 -25 -4 -42.5t24.5 -30.5t35.5 -25.5t30 -26.5q14 -18 21 -45t4 -50.5t-18.5 -42t-45.5 -20.5q-27 -2 -52.5 -1t-50.5 1 q8 2 5 16.5t-8 32.5t-8 36.5zM815 -397h39q-4 23 -9 44t-11 44zM821 819q4 -12 16.5 -10t14.5 14q2 18 -10 41q-6 -8 -14.5 -21.5t-6.5 -23.5zM934 862l4 -12q6 -18 23 -8q14 6 21 21.5t5 31.5q-2 10 -9 16.5t-22 -4.5q-18 -14 -22 -45zM940 -141q10 14 13 35.5t2 45t-3 46 t-2 39.5v118v29.5t-10 28.5h72q-10 -10 -13.5 -29.5t-2.5 -41t3 -42t2 -33.5v-155h99q23 0 54.5 -3t51.5 11q-4 -8 -7 -28.5t-13 -20.5h-246zM948 -272q27 4 61.5 6t57.5 -15q31 -23 24 -55.5t-36 -46.5q14 -6 20 -18.5t9 -26.5t5.5 -29.5t8.5 -25.5h-49q-6 10 -8.5 25.5 t-6.5 28.5t-12 21.5t-25 6.5v-82h-49v211zM995.5 -330.5q1.5 -23.5 1.5 -34.5h13q18 0 25 10.5t6 21.5t-11 20.5t-26 7.5q-10 -2 -8.5 -25.5zM1004 252q10 10 10 23.5v27.5v234v29.5t-10 27.5h120q23 -25 24 -57.5t-9 -63.5q-4 -8 -13.5 -28.5t-18.5 -43t-12 -43t9 -26.5 q-4 12 6 13t20.5 -4t12.5 -13.5t-17 -16.5q-23 -10 -33 8.5t-8 34.5q0 14 6.5 30.5t8.5 30t-4 21.5t-29 6v-149q16 0 41 -2t41 10q-4 -12 -7 -24.5t-7 -24.5h-131zM1034 201h76q-12 -27 1 -63t24 -58q12 29 22 59.5t0 61.5h76q-20 -12 -24.5 -37t-10.5 -45q-6 -18 -22.5 -46 t-16.5 -46q0 -10 -1 -24.5t-1 -29t2 -28t10 -21.5h-71q16 16 13 50t-3 57q-23 41 -39 88q-8 23 -12 45t-23 37zM1067 485q20 0 44 2t26 31q2 31 -24 33t-46 2v-68zM1124 -270h50v-213h-50v213zM1174 893q-4 -10 1 -25.5t21 -3.5q12 10 20.5 31t10.5 37q-4 18 -15 14 q-16 -8 -25 -22.5t-13 -30.5zM1202 -457q0 14 9.5 21.5t19.5 7.5t19.5 -7t9.5 -22q0 -14 -9.5 -21t-19.5 -7t-19.5 7t-9.5 21zM1221 629q-6 -6 4 -8q51 -20 113.5 -16.5t115.5 -0.5q55 -4 111 -18q29 -8 49 -22.5t45 -26.5q0 59 -19.5 101t-76.5 64q33 29 65.5 56t73.5 43 q-47 45 -105.5 72.5t-121.5 44.5q-2 -53 -3.5 -107.5t-5.5 -108.5l-2 3v-7q-25 -2 -60.5 -4t-70.5 -8t-65.5 -19.5t-46.5 -37.5zM1288 -270h53l66 -144q-4 35 -4 72v72h45v-213h-49q-18 37 -34.5 74.5t-35.5 72.5q4 -37 4 -73.5v-73.5h-45v213zM1315 956q16 18 30.5 37.5 t18.5 44.5h-2q-35 -39 -47 -82zM1475.5 -399.5q-7.5 34.5 13.5 75.5q12 29 39.5 42.5t58.5 13.5h10.5t17.5 -2t15 -4t6 -5l-8 -38q-25 12 -46 8t-34.5 -18.5t-18.5 -35t3 -45.5q12 -43 57 -38q10 2 8 20t-2 27h-24v39h71v-115q-39 -14 -74.5 -8t-60 27.5t-32 56z" />
<glyph unicode="9" d="M25 629q66 35 131 64.5t137 49.5q4 0 8 19.5t8 43t7 46t8 31.5q20 31 63 49t76 33q84 35 170 59.5t174 46.5q90 23 179 38t181 24q33 4 77 8t90 3t87 -11.5t66 -36.5q4 -4 0 -28t-6 -32l-6 -92q0 -4 4 -4q76 -23 145.5 -55.5t116.5 -98.5v-2q-16 4 -35.5 -3t-38 -19 t-36 -26.5t-25.5 -24.5q29 -16 46 -45t25.5 -64t7 -69.5t-11.5 -63.5q-16 41 -48 63.5t-69.5 32.5t-80.5 13.5t-80 5.5q-41 4 -88 2t-88 12q-16 6 -22.5 24.5t-7.5 41t2 45t5 34.5q-174 -12 -345 -52t-335 -97q-6 -4 -6 -6q2 -10 7 -33t10 -47.5t6.5 -46t-7.5 -27.5 q-23 -16 -55.5 -20t-60.5 -8q-37 -4 -75 -10.5t-75 -12.5q-66 -12 -123 -37q-14 -6 -27.5 -12t-27.5 -17q-6 -6 -16.5 -17t-16.5 -15q10 33 23.5 63.5t25.5 61.5q2 6 12.5 24.5t20.5 39t17.5 36.5t5.5 20q-23 33 -55.5 64t-73.5 35zM74 -270h43q4 -39 8 -79t10 -79 q4 41 10.5 80t12.5 78h37l22 -158q6 82 19 158h38l-38 -213h-41q-6 35 -11.5 70.5t-9.5 70.5q-4 -35 -10 -71t-12 -70h-41zM78 635q33 -20 57.5 -46t44.5 -57q2 -4 -3 -16t-13 -26.5t-15.5 -27.5t-9.5 -18q-10 -23 -20 -45t-19 -45q47 25 98.5 37t103.5 19.5t104.5 14.5 t101.5 24q-16 18 -44 24t-59.5 7t-62.5 -2t-51 -5v124t4 124q-57 -14 -110.5 -35.5t-106.5 -50.5zM281 -270h43q4 -39 8 -79t10 -79q4 41 10 80t13 78h36l23 -158q6 82 18 158h39l-39 -213h-41q-6 35 -11 70.5t-9 70.5q-4 -35 -10 -71t-13 -70h-41zM315 530q18 0 49 20.5 t50 29.5q35 16 71.5 28.5t71.5 24.5q145 45 299 80q74 16 147.5 29.5t149.5 21.5q70 6 148.5 9t144.5 -28q4 53 4 106.5t4 106.5q2 29 3 55.5t5 53.5q2 12 -5 20.5t-19.5 13.5t-25.5 7t-23 4q-115 16 -236 0t-233 -39q-123 -25 -243 -57.5t-235 -83.5q-23 -10 -45 -21.5 t-41 -27.5q-20 -16 -24 -47t-8 -54q-8 -63 -8.5 -125.5t-0.5 -126.5zM340 641q0 20 14.5 34.5t34.5 18.5q4 2 13.5 -1t5.5 -13q-12 -8 -23 -8q-10 -4 -14 -15.5t2 -21.5q4 -4 16 -8q18 -2 30.5 11t22 31.5t13.5 39t8 32.5q-29 -25 -57 -32q-27 -4 -44 10q-16 10 -16 35 q0 27 12 49q29 59 84 94q20 12 50 23q10 4 20 11t20 9q9 0 7 -12q12 0 18 -2q35 -4 39 -43q6 -41 -21.5 -79t-62.5 -61q-18 -12 -27.5 -30.5t-17.5 -37t-19.5 -35.5t-31.5 -28q-23 -14 -51 -8q-29 6 -25 37zM376 745.5q3 -14.5 21 -14.5q29 0 47.5 19.5t29.5 46t17.5 55.5 t10.5 47q-27 -6 -50.5 -22.5t-41.5 -36.5q-6 -6 -15.5 -23.5t-15.5 -37t-3 -34zM487 -270h43q4 -39 8.5 -79t10.5 -79q4 41 10 80l12 78h37l23 -158q6 82 18 158h39l-39 -213h-41q-6 35 -11 70.5t-9 70.5q-4 -35 -10.5 -71t-12.5 -70h-41zM496 760q14 4 28.5 18.5t23.5 32.5 t13 37.5t0 34.5q-6 20 -31 20q-12 -35 -19 -71.5t-15 -71.5zM545 -12.5q2 32.5 2 57.5q0 18 -1 36.5t1 37.5q0 47 25.5 64.5t68.5 17.5q37 0 53.5 -19.5t21.5 -48.5t3 -61.5t-2 -57.5v-73q0 -47 -25.5 -65.5t-66.5 -16.5q-37 0 -54.5 19.5t-22.5 48t-3 61zM589 760.5 q-5 19.5 5 44t29.5 44t40.5 21.5q12 0 16 -10q8 -12 2 -26q-6 -23 -25.5 -39.5t-42.5 -20.5q2 -12 10.5 -13t16.5 3t16.5 10t12.5 10q23 20 33 44t20 49q4 6 -8.5 24.5t-7.5 30.5q8 27 32 22q10 0 15 -12q4 -10 3 -22.5t-3 -22.5q20 2 28.5 -1t-4.5 -26q-8 -16 -17 -32.5 t-11 -34.5q0 -8 8 -8q20 -2 32.5 17t23.5 45t21.5 49.5t24.5 31.5q6 2 14 -2q6 -6 3 -12q-4 -10 -9.5 -19.5t-1.5 -21.5t11.5 -24.5t5.5 -27.5h2q10 12 17 27.5t14.5 31t16.5 29t25 19.5q35 14 48 -18q8 -14 5 -24.5t-1 -27.5q8 2 14 9q14 12 16 33.5t9 37.5q2 6 9 7t13 -1 q8 -4 6 -12v-2q10 10 23 16q20 8 28 -12q4 -12 1 -22.5t-8 -20.5t-9 -20.5t-2 -22.5q27 20 39 52t41 51q20 12 49 0q4 8 17.5 9t9.5 -14q-4 -18 -14.5 -37.5t-10.5 -37.5q0 -12 8 -4q18 18 28.5 44.5t20 54.5t22.5 51.5t40 39.5q14 6 22 -8q12 -23 4 -46.5t-22 -39.5 q-6 -8 -18.5 -18.5t-23.5 -22.5t-18.5 -24.5t-3.5 -24.5q4 -16 21 -13q14 4 20.5 17.5t14.5 23.5q6 6 12 2q8 0 8 -8l-4 -12q-16 -37 -51 -51q-25 -12 -41 14q-4 4 -4 10q-8 -8 -15.5 -15t-17.5 -11q-14 -4 -26 10q-16 -12 -29 -14q-29 -6 -41 18v2q-8 -8 -16.5 -15 t-20.5 -12q-14 -6 -25 11q-6 12 -3 22t8.5 21.5t8.5 21.5t1 21q-16 -6 -23.5 -17.5t-10.5 -25t-5 -27.5t-8 -27q-6 -16 -25 -8q-6 2 -6 10q0 4 1 8.5t1 8.5q-14 -4 -19.5 -4t-15.5 -10t-22.5 -18.5t-28.5 -8.5q-10 2 -16.5 8t-10.5 14q-16 -16 -38.5 -31.5t-45.5 -11.5 q-14 2 -24 17q-10 -10 -21.5 -20.5t-25.5 -14.5q-29 -10 -33 20q-4 25 8 41.5t21 36.5q2 4 -2.5 5t-6.5 -3q-8 -18 -18 -41.5t-23.5 -43t-33 -33t-45.5 -11.5q-29 2 -34 21.5zM598 11q-2 -36 2 -70q0 -14 9 -25.5t19.5 -14.5t20.5 2t15 21q4 12 3 26.5t-1 26.5v142 q0 14 -9.5 25.5t-20.5 14.5t-22.5 -2t-13.5 -22q-2 -12 -1 -26.5t1 -26.5q0 -35 -2 -71zM612 252q10 14 13.5 35.5t2.5 45t-3 46t-2 39.5v119v29.5t-11 27.5h72q-12 -12 -11 -31.5t1 -36.5v-133q0 -16 -1 -47t9 -45q8 -10 18.5 -11t19.5 4t16 14t9 18q6 25 2 51t-8 51 q-4 14 -10 36.5t-8 46.5t2 44t20 31q10 8 31 9t27 -15t-1 -21.5t-17.5 -3.5t-17.5 8t1 15q-16 -8 -16 -28t6 -42.5t15 -43t13 -32.5q12 -35 17.5 -83t-19.5 -81q-10 -14 -32.5 -18t-48 -4t-50 3t-39.5 3zM614 795q10 -2 26.5 14t18.5 27q4 6 -2 10t-12 0 q-10 -10 -17.5 -23.5t-13.5 -27.5zM672 -457q0 14 9 21.5t19.5 7.5t19.5 -7t9 -22q0 -14 -9 -21t-19.5 -7t-19.5 7t-9 21zM729 924q-2 -9 4 -19h2q0 6 2 12.5t-2 12.5q-4 0 -6 -6zM733 -141q10 12 12.5 32.5t1 43t-3.5 43t-2 36.5v166q0 8 -8 21h53q27 -12 49.5 -49 t32.5 -64q0 25 3 57.5t-13 55.5h72q-10 -10 -10 -23.5v-27.5v-234v-30.5t10 -26.5h-197zM748 -483l57 213h61l56 -213h-50l-14 49h-49l-10 -49h-51zM795 -98q0 -14 11 -22.5t24.5 -10.5t24.5 3t13 17q-2 59 -18 122t-55 110v-219zM814 337.5q-3 18.5 5 29.5q10 12 31.5 14 t26.5 -21q0 -10 -7.5 -15t-14.5 -5t-13 4t-6 14q-12 -4 -12.5 -13t7 -20.5t17.5 -19.5t16 -10q12 -4 31.5 -3t30.5 11q20 20 16 38.5t-19.5 35t-35 30t-29.5 23.5q-16 14 -27.5 40t-11.5 50.5t12.5 45t40.5 26.5q25 4 51.5 3t51.5 -1l-6 -10q0 -12 7 -27.5t12 -30t4 -28 t-15 -25.5q-12 -10 -30.5 -9t-20.5 21q0 10 6 15.5t14 5.5t14.5 -5t4.5 -14q12 2 12 12.5t-7 20.5t-17.5 19.5t-16.5 11.5q-14 4 -31.5 1t-23.5 -17q-12 -25 -4 -42.5t24.5 -30.5t35.5 -25.5t30 -26.5q14 -18 21 -45t4 -50.5t-18.5 -42t-45.5 -20.5q-27 -2 -52.5 -1t-50.5 1 q8 2 5 16.5t-8 32.5t-8 36.5zM815 -397h39q-4 23 -9 44t-11 44zM821 819q4 -12 16.5 -10t14.5 14q2 18 -10 41q-6 -8 -14.5 -21.5t-6.5 -23.5zM934 862l4 -12q6 -18 23 -8q14 6 21 21.5t5 31.5q-2 10 -9 16.5t-22 -4.5q-18 -14 -22 -45zM940 -141q10 14 13 35.5t2 45t-3 46 t-2 39.5v118v29.5t-10 28.5h72q-10 -10 -13.5 -29.5t-2.5 -41t3 -42t2 -33.5v-155h99q23 0 54.5 -3t51.5 11q-4 -8 -7 -28.5t-13 -20.5h-246zM948 -272q27 4 61.5 6t57.5 -15q31 -23 24 -55.5t-36 -46.5q14 -6 20 -18.5t9 -26.5t5.5 -29.5t8.5 -25.5h-49q-6 10 -8.5 25.5 t-6.5 28.5t-12 21.5t-25 6.5v-82h-49v211zM995.5 -330.5q1.5 -23.5 1.5 -34.5h13q18 0 25 10.5t6 21.5t-11 20.5t-26 7.5q-10 -2 -8.5 -25.5zM1004 252q10 10 10 23.5v27.5v234v29.5t-10 27.5h120q23 -25 24 -57.5t-9 -63.5q-4 -8 -13.5 -28.5t-18.5 -43t-12 -43t9 -26.5 q-4 12 6 13t20.5 -4t12.5 -13.5t-17 -16.5q-23 -10 -33 8.5t-8 34.5q0 14 6.5 30.5t8.5 30t-4 21.5t-29 6v-149q16 0 41 -2t41 10q-4 -12 -7 -24.5t-7 -24.5h-131zM1034 201h76q-12 -27 1 -63t24 -58q12 29 22 59.5t0 61.5h76q-20 -12 -24.5 -37t-10.5 -45q-6 -18 -22.5 -46 t-16.5 -46q0 -10 -1 -24.5t-1 -29t2 -28t10 -21.5h-71q16 16 13 50t-3 57q-23 41 -39 88q-8 23 -12 45t-23 37zM1067 485q20 0 44 2t26 31q2 31 -24 33t-46 2v-68zM1124 -270h50v-213h-50v213zM1174 893q-4 -10 1 -25.5t21 -3.5q12 10 20.5 31t10.5 37q-4 18 -15 14 q-16 -8 -25 -22.5t-13 -30.5zM1202 -457q0 14 9.5 21.5t19.5 7.5t19.5 -7t9.5 -22q0 -14 -9.5 -21t-19.5 -7t-19.5 7t-9.5 21zM1221 629q-6 -6 4 -8q51 -20 113.5 -16.5t115.5 -0.5q55 -4 111 -18q29 -8 49 -22.5t45 -26.5q0 59 -19.5 101t-76.5 64q33 29 65.5 56t73.5 43 q-47 45 -105.5 72.5t-121.5 44.5q-2 -53 -3.5 -107.5t-5.5 -108.5l-2 3v-7q-25 -2 -60.5 -4t-70.5 -8t-65.5 -19.5t-46.5 -37.5zM1288 -270h53l66 -144q-4 35 -4 72v72h45v-213h-49q-18 37 -34.5 74.5t-35.5 72.5q4 -37 4 -73.5v-73.5h-45v213zM1315 956q16 18 30.5 37.5 t18.5 44.5h-2q-35 -39 -47 -82zM1475.5 -399.5q-7.5 34.5 13.5 75.5q12 29 39.5 42.5t58.5 13.5h10.5t17.5 -2t15 -4t6 -5l-8 -38q-25 12 -46 8t-34.5 -18.5t-18.5 -35t3 -45.5q12 -43 57 -38q10 2 8 20t-2 27h-24v39h71v-115q-39 -14 -74.5 -8t-60 27.5t-32 56z" />
<glyph unicode=":" horiz-adv-x="321" d="M61 25.5q-6 19.5 6.5 42t38 41t54.5 18.5q31 0 37 -19.5t-6.5 -43t-37 -42t-55.5 -18.5q-31 2 -37 21.5zM199 277.5q-6 19.5 6 43t37.5 42t54.5 18.5q31 0 37 -19.5t-6.5 -43t-37 -42t-54.5 -18.5q-31 0 -37 19.5z" />
<glyph unicode=";" horiz-adv-x="321" d="M-73.5 -116.5q0.5 10.5 10.5 18.5q47 35 89 76.5t70 95.5q10 20 18.5 48t37.5 28q23 -2 32 -19.5t-2 -36.5q-16 -47 -57 -89t-76 -71q-18 -16 -39.5 -38.5t-44.5 -32.5q-10 -8 -19 -6t-14.5 9t-5 17.5zM199 277.5q-6 19.5 6 43t37.5 42t54.5 18.5q31 0 37 -19.5t-6.5 -43 t-37 -42t-54.5 -18.5q-31 0 -37 19.5z" />
<glyph unicode="&#x3c;" horiz-adv-x="589" d="M115 259.5q0 21.5 41 31.5q49 10 97 28.5t95 40.5q41 23 80 47.5t74 59.5q14 14 29.5 11t24.5 -14t8 -27.5t-19 -26.5q-86 -51 -175 -90t-175 -87q12 -31 28.5 -61.5t38.5 -52.5q35 -35 72 -43q18 -4 27.5 -20.5t-1.5 -32.5q-10 -16 -25.5 -18.5t-33.5 2.5t-34.5 15.5 t-24.5 16.5q-41 33 -66.5 77t-48.5 91q-12 31 -12 52.5z" />
<glyph unicode="=" horiz-adv-x="647" d="M47 147q-8 12 0.5 24.5t24.5 10.5q72 -8 144.5 -3t143.5 16q33 4 73 15t73 7q27 -4 32 -30.5t-20 -39.5q-12 -8 -28.5 -10t-35 -2h-37h-32.5q-39 -2 -77 -3t-77 -1q-35 0 -71.5 1t-73.5 1q-10 0 -22.5 2t-16.5 12zM111 291q-8 12 0 24.5t24 8.5q72 -6 145.5 -2t145.5 14 q31 4 71 15t72 7q27 -4 32 -29.5t-19 -37.5q-12 -8 -28.5 -10t-35 -2h-36h-31.5q-80 -6 -156 -7q-35 0 -72 1t-73 1q-10 0 -21.5 2.5t-17.5 14.5z" />
<glyph unicode="&#x3e;" horiz-adv-x="622" d="M53 2q-6 20 8.5 34.5t36 25t44 17.5t34.5 11q84 37 160 85t129 124q-29 33 -74 51.5t-80 30.5q-18 8 -33.5 18.5t-7.5 32.5q4 16 17.5 22.5t29.5 2.5q12 -4 57.5 -23.5t90.5 -45.5t71.5 -55.5t0.5 -53.5q-80 -78 -166 -134.5t-185 -111.5q-10 -6 -29.5 -21.5t-40 -25 t-38 -9.5t-25.5 25z" />
<glyph unicode="?" horiz-adv-x="518" d="M30 25.5q-5 19.5 7 42t36.5 41t53.5 18.5q31 0 37 -19.5t-6.5 -43t-37 -42t-54.5 -18.5q-31 2 -36 21.5zM205 299q10 49 35.5 80t59.5 49t76 25.5t87 11.5q37 4 85 12t89 27.5t67.5 52.5t22.5 86q-4 47 -39 70.5t-81 27.5t-92 -7t-73 -34q-12 -10 -20 -23t-19 -28 q-10 -18 -12 -41.5t-12 -40.5q-10 -16 -24.5 -17t-26 6t-16.5 22.5t3 31.5q12 33 39 71t60 58q27 23 64.5 39.5t79.5 23.5t83 2t76 -26q43 -25 60.5 -62.5t14 -78.5t-25 -80t-53.5 -68q-41 -31 -85 -44t-90 -19t-93.5 -12t-90.5 -21q-16 -6 -31.5 -15t-25.5 -24 q-14 -18 -15 -37.5t-10 -37.5q-6 -16 -18 -21.5t-23.5 -0.5t-19.5 16.5t-6 25.5z" />
<glyph unicode="@" horiz-adv-x="1007" d="M49 -37q0 98 34 180t89 149.5t128 123t153 100.5q78 43 175 59.5t183 -12.5q92 -29 133 -108.5t14 -171.5q-20 -68 -67 -126.5t-107 -95.5q-25 -16 -62.5 -32.5t-74.5 -22.5t-66.5 4t-39.5 47q-27 -12 -53.5 -27.5t-53 -22.5t-53.5 -2t-51 32q-25 27 -28 55.5t7 56 t30.5 52t39.5 43.5q23 20 51.5 41.5t59 37t63.5 21.5t65 -2q16 -4 36 -15.5t22 -31.5q2 -27 -23 -36t-41 7q-27 33 -64.5 26t-74.5 -34t-66.5 -61.5t-35.5 -59.5q-6 -23 3 -37t25.5 -21t38 -8t37.5 5q20 6 42 24.5t44 18.5q23 0 22 -20.5t5 -35.5q8 -20 33.5 -19t53 12.5 t53.5 26.5t36 23q45 31 80 75t51 98q14 49 4 96t-49 84q-41 41 -100.5 47t-112.5 2q-100 -6 -205.5 -58.5t-185.5 -134.5t-120 -185t-11 -214q16 -57 55 -88t88 -38t101.5 6.5t93.5 43.5q10 8 24.5 24.5t30.5 32t33.5 24.5t33.5 7q18 -4 26.5 -20.5t-1.5 -32.5 q-10 -18 -40 -32.5t-48 -24.5q-59 -37 -126 -70t-138 -29q-49 2 -87 23.5t-62.5 55.5t-37 77t-12.5 88z" />
<glyph unicode="A" horiz-adv-x="1495" d="M4 36q2 9 12 15q72 35 150 58.5t156 42.5l51 79q68 96 137.5 186.5t144.5 180.5q74 86 153 169t167 155q43 35 88 65.5t92 54.5q12 6 40 18.5t56.5 19.5t53 5t32.5 -24q4 -14 -3 -29.5t-11 -27.5l-47 -97l-39 -80q-41 -80 -79 -159.5t-75 -163.5q-33 -74 -63.5 -147.5 t-56.5 -151.5q16 0 31.5 -2t27.5 -6q25 -10 23.5 -36t-25.5 -34q-18 -4 -38.5 -2t-43.5 6l-8 -43q-12 -43 -23.5 -91t-18.5 -96q-7 -47 -9 -95v-19q0 -37 6 -72q57 57 108 110.5t113 100.5q92 72 189.5 133.5t199.5 116.5q10 6 18.5 3t13.5 -11t4 -17.5t-11 -15.5l-84 -45 q-53 -31 -105.5 -62.5t-101.5 -68.5q-158 -115 -285 -270q-10 -16 -21.5 -28.5t-33.5 -16.5q-29 -4 -45.5 8t-25.5 32.5t-11 45t0 45.5q2 90 26.5 182t53.5 178q-35 2 -70 3t-69 1q-37 2 -74 2l-74 -2q-74 -4 -145 -14l-95 -14l-28 -54q-25 -47 -51.5 -98t-32.5 -104 q-2 -16 -7 -33t-28 -19q-18 0 -29.5 12.5t-9.5 28.5q2 51 27.5 100.5t48.5 92.5q8 16 16 28.5t19 28.5q-29 -6 -54.5 -13t-54.5 -18q-37 -10 -70.5 -24t-68.5 -31q-10 -6 -19.5 -2t-12.5 12.5t-1 17.5zM395 168l170 25q76 6 152 9q33 1 65 1q44 0 88 -2h41q0 6 2 8 q53 141 111.5 276.5t118.5 272.5q29 61 55.5 123.5t50.5 128.5q-47 -8 -94 -32t-90 -54.5t-81 -63.5t-71 -61q-172 -158 -319 -348q-104 -139 -199 -283z" />
<glyph unicode="B" horiz-adv-x="1355" d="M2 -78q0 27 14.5 32t32 -2t35.5 -18.5t29 -15.5q57 -20 118.5 -24.5t122.5 -4.5h37v12q-1 72 21 146q24 80 47 139l10 31q-14 -6 -28.5 -11t-30.5 -9h-2q-23 -4 -38.5 3t-13.5 31q0 14 13.5 24.5t32 18t40 11.5t37.5 8l27 6q35 80 75 155.5t85 149.5q43 72 88 142.5 t96 136.5q-57 -23 -110.5 -47.5t-100.5 -49.5q-76 -37 -146.5 -83t-136.5 -101q-10 -8 -23.5 -23.5t-27.5 -31t-29.5 -26.5t-29.5 -9q-25 2 -32 24.5t9 38.5q88 78 188.5 140.5t202.5 115.5q72 37 148 70t156 57l20 25q37 39 79 76t91 55q12 4 35.5 8t45 2t36 -13t6.5 -38 q-4 -14 -18.5 -20t-30.5 0q-18 8 -39 4t-42.5 -15.5t-42 -28t-36.5 -28.5q50 8 108 10h18q48 0 94 -9q54 -11 99 -41t70 -85q12 -28 12 -54q-1 -22 -9 -44q-20 -47 -59.5 -87t-87.5 -72t-85 -52q-86 -53 -175 -98t-182 -86q91 18 185 23q12 1 24 1q80 0 148 -31 q45 -18 67.5 -52t25.5 -72v-13q-1 -32 -13 -66q-16 -40 -45 -71q-76 -76 -182.5 -114t-207.5 -62q-178 -49 -362 -68q10 -29 31 -47q16 -14 14 -28.5t-14.5 -22.5t-29.5 -7t-32 19q-14 18 -22.5 39t-14.5 43q-53 -6 -114.5 -6t-114.5 8q-16 2 -44 6t-55.5 13.5t-47 25 t-19.5 37.5zM457 -109q94 8 187 24.5t183 45.5q45 12 98.5 29.5t103.5 42t93 56.5t68 75q19 33 19 58q-1 15 -7 27q-18 32 -59 49t-91.5 23.5t-82.5 6.5q-84 -4 -172 -15.5t-174 -33.5l-91 -35h-2q-27 -66 -44 -131.5t-23 -135.5q-7 -26 -7 -59q0 -13 1 -27zM565 319 q115 39 226.5 88.5t218.5 104.5q70 35 134 76t122 92q25 23 52.5 54.5t31.5 66.5q2 18 -7.5 34.5t-24.5 30t-32.5 23.5t-32.5 16q-67 27 -141 27h-10q-80 -2 -158 -23q-20 -20 -39 -41.5t-35 -44.5q-72 -92 -134 -189t-113 -200q-16 -29 -30.5 -57.5t-27.5 -57.5z" />
<glyph unicode="C" horiz-adv-x="1024" d="M11 58q5 54 20.5 105.5t37 100.5t44.5 92q102 209 252 383q33 37 67.5 76t74.5 73t84 60.5t93 38.5q40 13 88 13h7q52 -1 89 -33q38 -33 44 -79q3 -19 2 -38q0 -26 -5 -53q-18 -109 -67 -211.5t-103 -196.5q-29 -47 -57.5 -93t-65.5 -87q-16 -10 -31.5 -7t-24.5 13 t-9 24.5t16 26.5q41 31 76 74t64.5 92t53 99.5t42.5 97.5q23 51 35 107q9 42 9 82q0 14 -1 28q-4 60 -42 74q-22 9 -50 8q-19 0 -41 -4q-55 -10 -105.5 -38t-95.5 -67t-85 -83t-73 -85q-74 -92 -134 -191.5t-101 -209.5q-16 -37 -31.5 -92.5t-17.5 -110.5q0 -5 -1 -10 q0 -49 18 -90q19 -45 75 -62q44 -13 90 -13q12 0 24 1q58 4 117.5 19.5t116.5 38t106 42.5q53 23 105.5 48.5t105.5 52.5l107 51q10 6 25.5 15.5t33 19.5t33.5 16t29 6q18 -2 20 -21.5t-14 -25.5q-16 -16 -43 -23.5t-47 -17.5q-57 -29 -113.5 -58.5t-116.5 -58.5 q-94 -47 -191 -94t-204 -69q-47 -10 -100 -10q-2 0 -4 -1q-52 1 -96 15q-46 14 -81.5 47t-48.5 90q-7 33 -7 67q0 18 2 36z" />
<glyph unicode="D" horiz-adv-x="1378" d="M14 -74q2 16 15.5 24.5t29.5 4.5q33 -10 66 -16.5t68 -10.5q51 -8 104 -9h21l85 3q4 70 26 139.5t42 124.5q41 111 93 214.5t112 203.5q31 55 65.5 108.5t71.5 106.5q-106 -41 -196.5 -90t-170.5 -111q-18 -14 -35.5 -29.5t-33.5 -31.5q-16 -14 -31.5 -34.5t-34.5 -30.5 q-14 -8 -26.5 -4t-20.5 15t-7 24.5t13 23.5q86 76 183.5 137.5t199.5 112.5q53 27 108.5 50t110.5 44l78 88q37 39 79 76t91 55q12 4 36 8t45.5 2t35.5 -13t6 -38q-4 -14 -18.5 -20t-30.5 0q-18 8 -38.5 4t-41 -14.5t-39 -24.5t-31.5 -25q-23 -16 -41 -34.5t-36 -36.5 q29 8 59.5 13t63.5 9q38 4 80 4h28q57 -2 112.5 -17.5t101.5 -46t73 -81.5q23 -43 23 -90v-9q-2 -52 -20 -104.5t-45.5 -99.5t-56.5 -86q-135 -184 -328.5 -313.5t-410.5 -188.5q-90 -23 -178 -37q4 -25 12 -44t27 -36q16 -14 14 -28.5t-14 -22.5t-29.5 -7t-32.5 19 q-18 25 -27 53.5t-13 59.5q-57 -4 -116 -5h-24l-94 3q-14 0 -42 1t-55.5 6t-46 17.5t-14.5 34.5zM467 -74q129 16 254 58.5t237 111.5q86 53 165 119t145 143q29 35 58.5 76t53 85t39 91t15.5 95q0 45 -22.5 76.5t-57.5 53t-76 33t-78 15.5q-23 1 -46 1q-54 0 -106 -6 q-74 -10 -149 -30q-86 -111 -150.5 -211t-117.5 -203q-53 -106 -98.5 -221t-61.5 -236q-2 -10 -3 -22t-1 -29z" />
<glyph unicode="E" horiz-adv-x="1003" d="M22 -109q-10 22 -10 47q0 29 13 60q25 59 70.5 107.5t90.5 91.5l113 96q-33 2 -60.5 12t-50.5 37q-26 32 -26 71q0 35 11 71q11 38 30.5 73t38.5 61q86 135 216 243t279 161q33 12 73 20q30 6 60 5l20 -1q40 -2 73.5 -18t54.5 -53q18 -32 18 -64v-7q-2 -36 -16 -71.5 t-36.5 -67.5t-47.5 -56q-53 -59 -117.5 -102.5t-134.5 -78.5q-27 -12 -61.5 -30.5t-65.5 -20.5q-16 -2 -25.5 7.5t-11.5 22.5t5.5 25.5t23.5 16.5q104 23 206.5 78t166.5 147q10 14 21 37t18.5 46.5t5.5 47t-17 41.5q-16 20 -40.5 26.5t-52.5 5.5t-55.5 -7t-47.5 -13 q-109 -31 -203 -92t-170 -145q-10 -12 -33.5 -42t-49.5 -68t-47.5 -80t-29.5 -77.5t2 -61t49 -32.5q12 -2 23 -2q31 0 59 12q37 16 78 21q16 4 31.5 -8t11.5 -31q-4 -25 -34.5 -39t-49.5 -26q-43 -27 -88 -58.5t-87 -68.5t-77 -81t-53 -93q-9 -23 -8 -40q0 -23 14 -37 q26 -24 71 -31q26 -4 53 -5q20 0 41 3q50 5 77 11q113 23 218 69t208 97l196 99q14 6 33 18t35 12q18 -2 21.5 -10t-1 -17.5t-13.5 -17.5t-15 -12q-35 -14 -70 -30.5t-69 -35.5q-125 -63 -253 -129.5t-266 -103.5q-58 -18 -126 -24q-13 -1 -26 -1q-54 0 -104 19 q-58 23 -80 71z" />
<glyph unicode="F" horiz-adv-x="798" d="M10.5 202.5q1.5 12.5 14.5 20.5q61 27 133 47q27 47 55.5 93.5t56.5 93.5q49 78 103.5 154.5t113.5 150.5l-116 -47q-47 -18 -91 -38t-87 -38q-16 -8 -29.5 -1t-19 20.5t-1 27t20.5 19.5q98 35 194.5 69.5t196.5 65.5q66 78 144.5 155.5t172.5 118.5q12 4 30 8t34 5 t31.5 -4t25.5 -17q16 -23 -1 -44.5t-44 -8.5q-16 6 -33.5 4t-36 -10.5t-35 -18.5t-28.5 -18q-47 -31 -88 -66t-80 -74q66 18 131.5 36t130.5 32q92 23 185.5 34t187.5 11q49 -2 97 -3t96 -17q12 -4 20 -14.5t9 -23t-6 -21.5t-25 -11q-43 0 -83 11t-79 16q-49 4 -97.5 4 t-95.5 -4q-98 -8 -192.5 -28t-188.5 -46q-41 -14 -81 -26.5t-81 -28.5q-63 -70 -119.5 -144t-109.5 -153q-33 -49 -64.5 -100.5t-60.5 -102.5q55 14 111.5 23.5t113.5 17.5q53 6 108.5 9t111.5 5q18 0 45.5 2t42.5 -16q12 -16 6 -33.5t-23 -24.5q-16 -4 -36.5 -2t-36.5 7 q-29 2 -57.5 2h-57.5q-59 0 -115.5 -5.5t-114.5 -15.5q-70 -10 -126 -27q-23 -37 -38.5 -74.5t-31.5 -76.5q-18 -47 -32.5 -96t-14.5 -101q-2 -23 1 -44t17 -38q10 -16 16.5 -34.5t-16.5 -34.5q-18 -10 -32.5 -2t-24.5 24.5t-16.5 36t-8.5 31.5q-3 20 -3 41q-1 37 9 75 q14 58 35 111q16 41 33.5 81t38.5 79q-10 -2 -23.5 -10t-27 -15.5t-27.5 -10.5t-24 5q-14 10 -12.5 22.5z" />
<glyph unicode="G" horiz-adv-x="1150" d="M15 -86q-3 22 -3 44q0 31 6 62q9 56 29.5 110t38.5 95q47 106 108.5 205.5t133.5 192.5q68 88 148.5 166.5t172.5 142.5q39 25 84 46t92 30q29 6 58 6q18 0 37 -2q47 -6 88 -39q43 -35 57 -79q11 -34 11 -71q0 -10 -1 -21q-4 -48 -23.5 -95.5t-43.5 -88.5 q-57 -92 -136 -170.5t-172 -138.5q-8 -6 -19 -14t-24.5 -15.5t-26 -10.5t-24.5 3q-23 10 -21 34t25 34q104 39 192.5 114.5t147.5 168.5q29 41 50 93q17 44 17 88q0 8 -1 17q-6 55 -49 90q-41 33 -91 33h-6q-55 0 -107 -20.5t-101.5 -51t-93.5 -67.5t-81 -72 q-80 -78 -146.5 -167t-121.5 -183q-27 -47 -54.5 -98.5t-49 -106.5t-33.5 -112q-8 -37 -8 -74q0 -19 2 -37q8 -66 48 -89q35 -19 79 -19h12q51 3 104.5 23.5t90.5 43.5q90 53 179 122.5t146 158.5q12 10 26.5 11t26 -6t14.5 -19.5t-7 -28.5q-8 -14 -20.5 -28.5t-22.5 -27.5 q-45 -63 -88 -124.5t-91 -121.5q123 74 246 143.5t252 139.5q6 4 26.5 16.5t41 20.5t36 7t15.5 -21q0 -16 -18.5 -25.5t-30.5 -15.5l-88 -45q-84 -47 -166 -95.5t-166 -95.5q-59 -33 -116.5 -67.5t-115.5 -69.5q-35 -43 -70.5 -83t-74.5 -79q-25 -25 -53.5 -49.5t-59 -45 t-64.5 -33.5t-71 -13q-35 0 -35 45q0 29 32 51.5t50 34.5q68 53 142.5 101t165.5 106q41 49 81.5 102t77.5 109q-41 -29 -79.5 -56.5t-79.5 -52.5q-41 -23 -91.5 -49.5t-102.5 -41.5q-39 -11 -78 -11q-13 0 -25 1q-52 5 -93 46q-39 39 -46 90zM147 -477q53 18 103 57 q16 12 33.5 25.5t33.5 27.5l-73 -47q-18 -10 -46 -27.5t-51 -35.5z" />
<glyph unicode="H" horiz-adv-x="1386" d="M12 -119.5q2 23.5 13 45.5q23 47 60.5 89t82.5 77t93 65.5t93 55.5l54 31q35 53 65.5 106t63.5 109q49 88 97 178t75 188q4 23 8 44.5t0 43.5q-2 29 -13.5 37t-29.5 23q-12 10 -13.5 23.5t6 23.5t19.5 15t27 -1q49 -20 65 -62q11 -30 10 -63q0 -15 -2 -29 q-6 -50 -24.5 -98.5t-34.5 -83.5q-47 -109 -109.5 -207t-130.5 -208q76 35 152 63.5t156 50.5q66 25 143 37q45 66 89 129.5t87 128.5q47 74 96.5 148.5t100.5 146.5q20 31 45.5 72t56.5 61q14 8 26.5 4t19.5 -14t7 -24.5t-12 -24.5q-59 -55 -110.5 -122t-98.5 -136 q-61 -86 -121.5 -176t-117.5 -183q2 0 3 1t3 1q8 2 39.5 4.5t60.5 -2t43 -17.5t-8 -40q-14 -16 -33.5 -12t-36.5 4q-37 0 -64.5 -2t-54.5 -8q-53 -84 -103 -171t-79 -182q-4 -16 -9 -39.5t5 -37.5q14 -16 41 -13.5t45 7.5q57 12 107.5 35.5t103.5 50.5l205 96l100 51 q10 4 20.5 9t20.5 -3q10 -6 10 -20.5t-12 -20.5q-90 -47 -181 -88t-179 -88q-53 -29 -113.5 -61.5t-120.5 -36.5q-8 -1 -15 -1q-28 0 -54 11q-34 14 -48 47q-9 23 -9 47q1 23 9 48q18 50 37 89q33 68 71 132.5t79 125.5q-39 -10 -76 -19t-74 -19q-78 -23 -154.5 -54.5 t-150.5 -68.5q-47 -74 -97 -144.5t-108 -136.5q-29 -33 -62.5 -64.5t-78.5 -46.5q-31 -6 -48 3.5t-23.5 28t-4.5 42zM82 -121q33 12 68.5 42t67.5 66t60.5 72.5t49.5 65.5l18 27q-47 -29 -91 -62t-81 -74q-10 -10 -25.5 -26.5t-30 -34.5t-25.5 -37.5t-11 -38.5z" />
<glyph unicode="I" horiz-adv-x="845" d="M69 -26.5q3 24.5 12 49t21.5 48t24.5 44.5q49 88 104.5 171t108.5 167q68 104 128 211.5t126 212.5q-29 -6 -55.5 -11.5t-55.5 -9.5q-12 -2 -29.5 -6t-36 -7t-35.5 -3t-28 8q-12 8 -15 20.5t1 23.5t13.5 18.5t23.5 7.5q40 -4 79 -4q26 0 52 2q65 4 129 26h2q6 10 11 18.5 t14 18.5q14 18 35.5 48t47 55.5t55 41t58.5 4.5q39 -12 38 -36.5t-19.5 -52t-46 -51t-41.5 -32.5q-23 -16 -48.5 -26t-50.5 -21q-33 -45 -62.5 -90t-62.5 -92l-260 -408q-29 -49 -59.5 -98t-52.5 -100l-18.5 -37t-24 -53.5t-15.5 -53t8 -36.5q8 -7 30 -7q15 0 39 4 q56 9 119.5 24t119 32.5t71.5 21.5q53 18 104.5 43t100.5 54l102 57q10 4 20.5 9t20.5 -3q12 -6 11.5 -20.5t-11.5 -20.5q-94 -49 -188 -97t-195 -83q-72 -25 -141 -52.5t-147 -37.5q-10 -1 -21 -1q-28 0 -56 8q-38 11 -50 52q-8 25 -5 49.5zM760 995q14 10 27.5 23.5 t21.5 25.5q-29 -18 -49 -49z" />
<glyph unicode="J" horiz-adv-x="1306" d="M4 39q0 18 7 25.5t18.5 7.5t22.5 -4.5t20 -8.5q31 -16 60.5 -40.5t39.5 -32.5q45 -31 96 -56.5t104 -37.5q37 -9 73 -9q17 0 34 2q53 6 107 37q84 51 140 134t110 165q55 92 112.5 178t112.5 179q41 63 78 127.5t78 128.5l-181 -72q-90 -39 -184 -85t-166 -114 q-35 -35 -47 -73q-3 -10 -3 -20q0 -29 26 -60q12 -16 28.5 -32t5.5 -38q-8 -16 -26.5 -20t-30.5 8q-57 49 -69 97q-6 19 -6 38q0 27 12 53q18 43 60 82t92 71.5t103.5 58.5t92.5 42q84 33 171 66.5t171 74.5l20 27q20 31 48 68.5t62 66.5t74 45q20 7 41 7q20 0 41 -7 q37 -11 37 -40v-6q-4 -34 -28 -56q-35 -33 -75 -54.5t-81 -41.5q-23 -10 -46.5 -22.5t-45.5 -23.5q-29 -39 -54.5 -76.5t-52.5 -76.5q-84 -129 -166 -256t-159 -258q-51 -82 -109.5 -170t-142.5 -148q66 16 129 38t125 48q111 47 215 96.5t209 104.5q10 6 19 2t13 -11 t2 -16.5t-12 -15.5l-88 -41l-225 -114q-106 -47 -212 -92.5t-222 -67.5q-53 -8 -106 -8q-61 0 -122 11q-112 21 -211 87q-12 8 -35.5 22.5t-47 32t-40 36.5t-16.5 38zM1419 1001l68 41q-18 8 -34.5 -9t-33.5 -32z" />
<glyph unicode="K" horiz-adv-x="1568" d="M6.5 24.5q-12.5 28.5 7.5 51.5q17 21 47 21q9 -1 19 -3q43 -8 78 -22q41 102 94 197.5t115 187.5q125 197 276 374q68 78 147.5 160t178.5 123q12 4 28.5 8t34 5t32.5 -4t26 -17q16 -23 -1.5 -44.5t-44.5 -8.5q-14 6 -31.5 4t-36 -10.5t-35.5 -18.5t-30 -18 q-49 -33 -94 -73t-88 -85q-78 -84 -149.5 -172t-137.5 -186t-123 -201t-98 -211q-4 -8 -7 -16.5t-5 -16.5l29 -10l20 8q68 23 134.5 54.5t127.5 68.5q129 74 250 157t238 173q119 90 232.5 182t223.5 190q113 98 217 199q8 8 19.5 23.5t25 29t26.5 22.5t28 7 q23 -4 30.5 -25.5t-8.5 -35.5q-180 -174 -373.5 -328t-392.5 -301q-98 -74 -199.5 -145.5t-207.5 -137.5q-74 -47 -150 -95t-157 -83l88 -35q53 -18 110.5 -36.5t117.5 -32t120 -18.5q27 -2 53 -2q32 0 63 3q119 16 232 65.5t219 102.5l244 127q10 6 19 3t13.5 -11 t2.5 -17.5t-15 -15.5l-119 -63q-125 -66 -248.5 -135.5t-258.5 -108.5q-70 -21 -138 -21q-47 -1 -91 9q-112 24 -226 65l-191 68q-18 8 -35.5 13t-35.5 11l-66 -20q-8 -31 -8 -68q0 -23 2 -44t14 -38q12 -16 19.5 -34.5t-19.5 -34.5q-18 -10 -32.5 -2t-23.5 24.5t-15 36 t-6 31.5q-6 31 -3 61.5t11 63.5q-49 4 -82 31q-18 16 -30.5 44.5z" />
<glyph unicode="L" horiz-adv-x="1318" d="M8 -25.5q4 21.5 25 39.5q29 27 61 31q10 1 21 1q23 0 46 -6q34 -9 68.5 -27.5t67.5 -39.5q70 39 122 100.5t95 127.5q82 121 152.5 246.5t142.5 254.5q47 82 97 161t110 153q20 29 48 65.5t62 51.5q14 6 25.5 0.5t18 -15.5t6 -24.5t-12.5 -22.5q-72 -57 -130 -127 t-108.5 -146.5t-95.5 -157.5t-90 -157q-41 -72 -84 -144.5t-90 -143.5q-41 -66 -88 -139.5t-110 -127.5l26 -14q81 -38 166 -38q13 0 25 1q98 6 195.5 38t190.5 79t173 88l176 94q12 6 21.5 2t13.5 -11t2 -16.5t-13 -15.5q-25 -16 -51 -28.5t-53 -24.5q-47 -27 -94 -52.5 t-96 -49.5q-78 -41 -155 -81t-161 -67q-53 -16 -105 -22q-22 -3 -44 -3q-30 0 -60 5q-59 10 -107 34.5t-95 53.5l-41 -21q-51 -17 -105 -25q-15 -2 -30 -2q-39 0 -74 17q-23 8 -38.5 25.5t-22.5 38t-3 42zM77 -40q-3 -5 5 -13q18 -23 49 -22t53 5q12 4 25.5 7.5t26.5 9.5 q-29 12 -58.5 21t-58.5 9q-6 0 -15.5 -2t-16.5 -6t-10 -9z" />
<glyph unicode="M" horiz-adv-x="2023" d="M12 -136q-4 11 8 34q33 70 77 131t89 121q27 66 27 141q0 10 -5 24.5t-7 29.5t-1 28.5t13 23.5q16 12 33.5 5t23.5 -23q14 -49 15 -100q74 90 153.5 175t165.5 164q84 78 171 152t183 137q86 55 186.5 104.5t205.5 55.5q8 1 16 1q38 0 73 -16q42 -20 52 -71q2 -14 2 -28 q-1 -32 -13 -64q-18 -45 -42 -86q-57 -98 -132 -185.5t-141 -179.5q-27 -37 -52.5 -72.5t-47.5 -72.5q94 96 193.5 185t203.5 173q86 68 181.5 136.5t201.5 101.5q14 4 36 9t42.5 5t33.5 -10t9 -35q-6 -33 -35.5 -61.5t-50.5 -48.5q-66 -68 -136.5 -137.5t-135 -144.5 t-115.5 -158t-76 -175q-6 -23 -8 -44t2 -39.5t18.5 -32t43.5 -15.5q13 -1 25 -1q42 1 88 11q58 14 112 29q53 16 106.5 38.5t104.5 45.5l102 45q10 4 19.5 9t19.5 -3q12 -6 11 -20.5t-13 -20.5q-49 -25 -98 -44t-97 -42q-53 -23 -107 -44l-108 -42q-29 -10 -62.5 -19.5 t-67.5 -13.5q-13 -2 -27 -2q-21 0 -42 4q-34 6 -61 29q-25 20 -34 49t-7 59.5t12.5 61.5t22.5 55q29 72 72 133.5t88 120.5q8 10 48 56.5t91 106t103.5 119.5t85.5 101q-33 -8 -65 -20t-60 -29q-53 -29 -102.5 -60.5t-96.5 -66.5q-94 -72 -181 -149.5t-171 -161.5 q-174 -174 -324 -361q-10 -12 -20.5 -29.5t-26.5 -27.5t-33.5 0t-19.5 31q-2 23 20.5 47t32.5 41l84 115q76 102 149.5 204.5t147.5 204.5q43 59 87 117.5t81 122.5q6 12 21.5 37.5t26.5 53.5t13 54.5t-14 38.5q-20 14 -49 14t-59.5 -7t-59.5 -18t-47 -18 q-113 -41 -215 -103t-197 -140q-221 -182 -403 -404q-29 -35 -55.5 -68.5t-53.5 -68.5q-25 -82 -70.5 -160t-101.5 -133q-18 -18 -36.5 -25.5t-32 -4t-17.5 14.5z" />
<glyph unicode="N" horiz-adv-x="1521" d="M21 644.5q-11 25.5 12 43.5q123 94 251 182t273 150q27 12 61.5 24.5t70.5 18.5q24 4 48 4q12 0 23 -1q35 -3 63 -22q31 -23 39 -53q4 -16 4 -33q0 -15 -3 -31q-7 -34 -22.5 -68t-29.5 -58q-37 -59 -82 -114.5t-90 -111.5q-47 -63 -94 -127.5t-94 -130.5l-142 -192 q72 63 143.5 123.5t145.5 120.5q152 123 313.5 239.5t339.5 202.5q37 18 75 33.5t79 19.5q16 2 31.5 -1t26 -10t11.5 -19.5t-12 -30.5q-20 -29 -51 -53.5t-57 -53.5q-94 -106 -180.5 -216.5t-145.5 -233.5q-12 -27 -29.5 -64t-30 -74.5t-14.5 -69.5t15 -50q18 -18 50 -16 t66.5 14t69.5 27.5t57 23.5q78 29 156 64.5t154 74.5q12 8 24.5 1t9.5 -21q0 -16 -18 -24.5t-29 -12.5l-172 -82q-76 -35 -154.5 -75t-164.5 -50q-14 -1 -26 -1q-38 -1 -59 13q-28 18 -36 52q-4 16 -4 35t4 40q8 43 23.5 86t34 81t30.5 61q76 131 166 258t192 245 q-25 -8 -50 -20t-48 -23q-57 -27 -112.5 -56.5t-108.5 -64.5q-98 -61 -192.5 -130.5t-184.5 -143.5q-96 -74 -183 -152.5t-171 -162.5q-43 -41 -82 -84t-78 -90q-14 -14 -29.5 -40t-37.5 -32q-23 -6 -38.5 14.5t-2.5 40.5q10 20 29.5 41t33.5 39q8 12 19.5 27.5t35 47.5 t64.5 85t108 143l138 185q57 80 116.5 157.5t114.5 159.5q10 14 34.5 50t46 76t31 78t-11.5 56q-12 10 -30.5 13t-40 1t-42 -7t-32.5 -7q-90 -23 -174 -63q-78 -37 -146.5 -86.5t-134.5 -104.5l-65 -57q-12 -12 -26.5 -28.5t-31.5 -20.5q-29 -4 -40 21.5z" />
<glyph unicode="O" horiz-adv-x="911" d="M18 -22q-3 24 -3 47q0 31 5 61q18 111 70.5 214t114.5 196q59 98 131 185t153 167q76 72 167.5 137.5t195.5 83.5q33 6 79 6t73 -22q12 -10 13 -23.5t-5 -24t-18.5 -15.5t-26.5 1q-35 15 -73 15q-8 0 -16 -1q-46 -4 -92 -20q11 1 22 0q114 -1 187 -57q71 -56 71 -163 q0 -14 -1 -28q-10 -113 -62.5 -219t-115.5 -201q-53 -80 -121 -162.5t-149.5 -151.5t-175 -117t-195.5 -56q-14 -1 -29 -1q-33 0 -69 6q-50 9 -85 46q-39 41 -45 97zM82 56.5q-2 -25.5 1 -50t12 -46t30 -36.5q33 -24 74 -23q2 -1 5 -1q44 2 81 10q111 23 205 86t174 137 q84 78 152.5 168t117.5 193q18 37 40 89t34 107q7 34 8 67q0 19 -3 39q-7 52 -46 87q-37 35 -93 36h-11q-49 0 -91 -8q-18 -4 -32.5 10.5t-12.5 36.5q-41 -23 -80.5 -51t-68.5 -51q-90 -74 -165 -161t-141 -183q-63 -92 -113 -195.5t-71 -214.5q-4 -20 -6 -45.5z" />
<glyph unicode="P" horiz-adv-x="1269" d="M12 0q-8 16 4.5 33.5t30.5 14.5q20 -1 40 0q31 0 61 2q52 3 100 9l45 72q66 106 130 212t134 210q45 66 92 131.5t101 128.5q-23 -4 -44.5 -10t-41.5 -15q-147 -47 -279 -126q-10 -6 -24.5 -19.5t-30 -26t-31.5 -21.5t-29 -5q-25 6 -28.5 29.5t16.5 35.5q96 66 205.5 110 t220.5 79q29 10 58.5 18t58.5 15l47 53q37 39 77 72.5t87 62.5q12 6 34.5 18.5t47 20.5t47 8t35.5 -14q16 -16 5.5 -39t-34.5 -23h-6q-69 0 -131 -41q-66 -43 -123 -98q66 13 130 19q40 4 80 3q25 0 50 -1q53 -4 105.5 -20.5t94.5 -46.5t67.5 -75t25.5 -104 q0 -55 -24.5 -104.5t-62.5 -91.5t-83 -78t-86 -62q-193 -127 -416 -205t-451 -119l-36 -8l-23 -39l-113 -211q-10 -16 -21 -41.5t-36 -29.5q-23 -2 -35 17t-2 38q35 66 76 129t82 129q-31 -6 -61.5 -9t-59.5 -7q-20 -2 -42.5 -3.5t-33.5 23.5zM311 66q109 14 217 43 q154 37 301.5 96t278.5 149q31 20 71 51t76.5 69t67.5 81t41 86q4 18 4 36q0 25 -8 49q-14 42 -66 77q-59 41 -136 50q-53 6 -104 6q-22 0 -44 -1q-47 -4 -91.5 -9t-91.5 -15l-41 -50q-78 -92 -145.5 -189t-132.5 -200q-51 -82 -99.5 -163.5t-97.5 -165.5z" />
<glyph unicode="Q" horiz-adv-x="1302" d="M7 214q-3 15 5.5 29.5t28.5 14.5h11q34 0 71 -10q29 66 63.5 128t73.5 120q61 98 133 185t152 167q39 37 81 71.5t88 65.5t94 52.5t101 31.5q31 6 77 6t73 -22q12 -10 14 -23.5t-5 -24t-19.5 -15.5t-26.5 1q-34 15 -71 15q-8 0 -17 -1q-47 -4 -90 -20q11 1 22 1 q114 0 186 -58q69 -55 69 -163q0 -13 -1 -28q-10 -113 -61 -219t-115 -201q-70 -102 -162 -207.5t-204 -179.5q27 -6 54 -9t56 1q104 16 204.5 58.5t197.5 89.5q49 23 97 47t95 51q27 14 47.5 10t1.5 -33q-10 -18 -36.5 -27t-43.5 -20q-94 -47 -187 -98t-192 -94 q-41 -16 -85 -32.5t-89 -23.5q-26 -5 -52 -5q-18 0 -37 3q-44 5 -85 29l-20 12q-47 -25 -97.5 -39t-103.5 -20q-15 -1 -30 -1l-68 6q-49 9 -84 46q-39 41 -46 97q-3 25 -3 51q0 29 4 57q10 55 24 102h-22t-25 -4q-18 -6 -30.5 4.5t-15.5 25.5zM139 6.5q2 -24.5 12.5 -46 t30.5 -36.5q31 -24 73 -24h5q45 2 82 10q43 8 96 29q-59 49 -110.5 104t-110.5 96l-57 33q-4 -16 -8.5 -35t-6.5 -35q-4 -20 -6 -45.5t0 -50zM176 225q53 -29 101.5 -71.5t91.5 -79.5q31 -29 63.5 -54.5t69.5 -48.5q59 31 114.5 73t104.5 89q166 154 272 361q18 37 40 89 t33 107q6 32 6 63q0 22 -3 43q-8 52 -47 87q-37 35 -92 36h-12q-49 0 -91 -8q-8 -2 -18 2.5t-17.5 12.5t-10.5 16t5 16q-45 -23 -83.5 -51t-67.5 -51q-90 -74 -165 -161t-140 -183q-45 -66 -85 -137.5t-69 -149.5z" />
<glyph unicode="R" horiz-adv-x="1558" d="M6 53q0 30 39 43q19 6 39 6q27 0 54 -12q46 -20 83 -41l2 2q41 109 97.5 209t119.5 197q59 92 125 181t137 175q-139 -45 -224 -81t-150 -81q-10 -6 -21.5 -17t-25 -22.5t-26.5 -18.5t-26 -3q-25 6 -29.5 29.5t17.5 35.5q94 63 201.5 107.5t216.5 77.5q29 10 58.5 18 t60.5 16q61 72 131.5 138.5t156.5 101.5q12 4 28.5 8t34 5t33 -4t25.5 -17q16 -23 -1 -44.5t-44 -8.5q-14 6 -31.5 4t-36 -10.5t-36 -18.5t-29.5 -18q-78 -53 -139 -115q116 23 228 23h18q55 -4 109 -19.5t98 -44.5t72 -74t28 -106q0 -55 -20.5 -105.5t-54.5 -94.5t-75 -82 t-82 -68q-184 -135 -398 -213t-437 -113q82 -35 166 -59.5t170 -40.5q70 -14 134 -15q38 -1 74 5q97 14 203 53q113 43 218.5 97t211.5 112q6 4 17.5 11t24 13t24.5 6t18 -12q10 -23 -11 -34t-34 -15q-53 -27 -103 -53.5t-102 -55.5q-98 -55 -202.5 -109.5t-216.5 -80.5 q-55 -14 -111 -14h-5q-58 0 -116.5 12t-115 30.5t-109.5 38.5t-106.5 43t-102.5 45q-12 -43 -12 -90q0 -23 2 -44t14 -38q12 -16 20 -34.5t-20 -34.5q-18 -10 -32.5 -2t-23.5 24.5t-15.5 36t-6.5 31.5q-5 22 -5 44q0 16 3 33q6 38 17 76q-63 -8 -109 -13q-6 -1 -12 -1 q-36 0 -51 27q-21 31 -21 63zM76 41l10 -8l25 -4l28 8q-24 8 -41 8q-13 0 -22 -4zM281 45q76 6 149.5 19.5t147.5 33.5q150 41 292 106.5t260 166.5q45 37 95.5 95t78.5 122q20 47 20 93q0 17 -3 33q-10 60 -90 101q-92 49 -205 49h-9q-118 -2 -231 -28q-76 -80 -142.5 -165 t-127.5 -177q-66 -98 -123 -201t-98 -211z" />
<glyph unicode="S" horiz-adv-x="997" d="M6 -57q0 51 14 99q14 50 37 98t54 91q29 41 66.5 78t82.5 65q45 30 94 46q44 15 91 14h12q55 -2 104 -25.5t80 -62.5t40 -90q3 -15 2 -30q0 -37 -15 -76q-10 -14 -24.5 -18.5t-27 0.5t-18.5 16.5t4 27.5q15 30 15 61q1 19 -5 39q-16 52 -63 78q-49 27 -100.5 27 t-99.5 -18.5t-91 -50t-76 -68.5q-35 -41 -62.5 -90.5t-41.5 -102.5q-12 -43 -13 -86q-1 -11 1 -21q4 -54 28 -104q25 -51 64 -80.5t86 -41.5q35 -9 72 -8q13 0 27 1q52 4 101 21q109 33 197 102.5t139 161.5q50 92 56 200q0 9 1 19q0 99 -53 199q-27 51 -54.5 103 t-47.5 105.5t-30 111.5q-7 37 -7 74q0 22 2 44q4 53 27.5 105.5t62.5 90.5t89 56q25 9 52 10q28 0 58 -10q57 -16 95 -56t56.5 -90.5t18.5 -107.5t-14 -109q-16 -55 -45 -104t-64 -96q-10 -16 -25.5 -32.5t-37.5 -6.5q-20 4 -23.5 25.5t12.5 35.5q37 33 72 76t55.5 91 t22.5 100v8q0 48 -23 94q-20 41 -57 71.5t-84 36.5q-7 1 -13 1q-39 1 -69 -21q-35 -24 -63 -59q-36 -45 -48 -97q-8 -34 -8 -70q0 -18 2 -38q6 -54 24.5 -107t41.5 -100q25 -49 49.5 -96t42.5 -95.5t28 -100.5q6 -32 5 -66q0 -22 -2 -44q-10 -104 -67.5 -199t-142.5 -167 t-189 -111q-85 -32 -172 -32q-20 0 -40 2q-88 6 -155.5 58t-95.5 138q-17 52 -17 107z" />
<glyph unicode="T" horiz-adv-x="880" d="M14 610q-4 14 3.5 28.5t21.5 20.5q223 61 446.5 124t452.5 104q31 6 61.5 11t61.5 9q51 49 105.5 94.5t113.5 81.5q41 27 90 47q27 11 54 10q23 0 46 -7q20 -6 26.5 -20.5t2.5 -28t-17.5 -21.5t-31.5 2q-20 10 -45 6t-49.5 -15.5t-47 -24.5t-38.5 -23q-31 -20 -60.5 -43 t-58.5 -45q59 8 120.5 11t125.5 3q55 0 111.5 -3t111.5 -13q18 -4 35.5 -12.5t13.5 -33.5q-2 -16 -15.5 -24t-29.5 -4q-45 0 -91 11t-93 15q-57 4 -113.5 4t-114.5 -4q-35 -2 -65.5 -5t-63.5 -7q-86 -80 -159.5 -165t-145.5 -177q-70 -92 -132 -188.5t-109 -202.5 q-25 -47 -43.5 -98.5t-28.5 -102.5q-4 -25 -5 -49.5t7 -46.5q8 -20 24.5 -36.5t8.5 -37.5q-10 -25 -24.5 -25.5t-29 10.5t-25.5 28.5t-15 27.5q-11 32 -11 65q0 20 4 42q11 56 27 106q39 106 95.5 205.5t121.5 192.5q68 98 140.5 190t150.5 178l70 74q-68 -10 -132.5 -23.5 t-130.5 -27.5q-113 -27 -222 -58.5t-220 -66.5q-55 -18 -109.5 -37t-107.5 -41q-18 -6 -37.5 -6t-30.5 22z" />
<glyph unicode="U" horiz-adv-x="1521" d="M20 641q-14 27 13 47q127 100 263 192.5t290 151.5q29 10 68.5 21.5t78.5 13.5h10q33 1 63 -11q34 -14 50 -50q10 -26 10 -53q0 -12 -2 -23q-6 -39 -23.5 -77t-42 -71.5t-44.5 -60.5q-66 -88 -139.5 -170t-145.5 -166q-57 -66 -111.5 -132.5t-107.5 -137.5 q-23 -31 -46.5 -64t-45.5 -67q-16 -23 -41 -61q-22 -33 -22 -58q0 -4 1 -8q14 2 35 11t41.5 21.5t37.5 23.5t26 15q45 29 89 56.5t89 56.5q90 61 176 124.5t172 129.5t171 135.5t169 138.5q72 63 145.5 126t138.5 132q10 14 20.5 25.5t27.5 15.5q23 2 35 -14t4 -39 q-8 -16 -25.5 -30.5t-36.5 -26.5q-86 -82 -159.5 -176.5t-141.5 -190.5q-39 -59 -71.5 -120.5t-55.5 -127.5q-13 -35 -21 -77q-3 -17 -3 -33q0 -23 8 -43l2 -2q27 -10 60.5 -3t62.5 15q113 31 223 78l198 96q8 4 18.5 5t17.5 -2t8.5 -11t-7.5 -23q-10 -18 -43.5 -28.5 t-52.5 -20.5q-49 -25 -100 -52.5t-105.5 -53t-109 -46t-109.5 -28.5q-21 -4 -39 -4q-49 0 -75 32q-25 31 -25 77q0 19 4 40q8 51 28.5 103.5t48 101.5t58.5 96.5t62 90.5l71 100l-245 -197q-98 -78 -194.5 -153.5t-197.5 -151.5q-45 -35 -93 -72.5t-98 -72.5t-103.5 -64.5 t-108.5 -46.5q-41 -10 -62.5 0t-28.5 33.5t-2 53.5t19 59q49 102 127 190t152 174q80 90 160.5 179t154.5 186q8 12 28.5 39.5t43 63.5t43 75t29 70.5t-1 54t-44.5 24.5h-15q-44 0 -90 -10q-54 -12 -106.5 -33.5t-101.5 -49.5t-92 -54q-43 -29 -84 -62.5t-82 -68.5 q-10 -8 -29.5 -29.5t-42 -40t-44 -25t-34.5 18.5z" />
<glyph unicode="V" horiz-adv-x="919" d="M16 566.5q-3 19.5 11 33.5q80 68 161.5 132.5t165.5 129.5q51 41 102.5 81t108.5 73q29 16 61 28q25 9 50 10q8 0 16 -1q46 -10 56 -50q5 -19 5 -38q0 -20 -5 -39q-23 -76 -68 -143.5t-92 -131.5q-53 -76 -109.5 -148.5t-109.5 -146.5q-8 -12 -37 -53t-61.5 -94 t-65.5 -113.5t-53.5 -113t-20.5 -88t33 -39.5q8 -2 17 -1q27 0 60 13q44 18 87 48t80.5 60.5t60.5 49.5q92 74 175 155.5t165 167.5q168 180 324.5 367.5t302.5 386.5q10 16 24.5 34.5t38.5 10.5q18 -4 24.5 -22.5t-3.5 -32.5q-33 -45 -73 -85t-75 -81 q-82 -94 -160.5 -187.5t-158.5 -185.5q-78 -90 -157 -181t-162 -180.5t-171 -171t-184 -151.5q-27 -18 -60.5 -40t-69.5 -35t-73 -14h-4q-35 0 -66 19q-49 31 -49 84.5t24.5 111.5t59.5 110.5t56 82.5q72 109 147.5 210.5t149.5 205.5q70 92 124 199q12 23 23.5 46t22.5 50 q10 27 14 49.5t0 32.5q-6 8 -30.5 0t-53.5 -22.5t-54.5 -30t-33.5 -21.5q-53 -35 -104.5 -71.5t-98.5 -75.5q-51 -41 -98 -82t-92 -88q-6 -8 -14.5 -19.5t-17.5 -20.5t-20.5 -13.5t-23.5 2.5q-18 8 -21 27.5z" />
<glyph unicode="W" horiz-adv-x="1355" d="M15 571.5q0 18.5 12 28.5q63 55 127.5 106.5t130.5 104.5q39 29 77.5 61.5t79.5 64.5t83 58.5t89 44.5q27 10 57 10q13 0 26 -2q44 -6 55 -57q2 -12 2 -24q0 -39 -20 -77q-26 -50 -48 -91q-61 -102 -133 -195.5t-139 -189.5q-70 -98 -134.5 -198.5t-111.5 -211.5 q-4 -10 -15.5 -34.5t-18.5 -50t-4 -45t28 -19.5q27 0 54.5 10t53 25.5t49 33t43.5 31.5q123 86 240 195q37 72 78 140t86 136q59 88 123.5 173t142.5 161q31 31 64.5 61.5t74.5 50.5q14 8 27.5 7.5t23 -9t12.5 -20.5t-3 -27q-16 -35 -44 -70.5t-44 -56.5q-68 -90 -146 -182 q-86 -100 -173 -200.5t-181 -198.5q-27 -57 -47 -115q-14 -40 -15 -78q0 -17 3 -33q2 -31 24.5 -35t50 5.5t55 24t40.5 22.5q100 61 188 139t170 160q176 174 338 359.5t311 379.5q29 39 57.5 77t57.5 77q6 8 14 19t18.5 20.5t21.5 11.5t26 -6q18 -14 12 -35t-23.5 -42.5 t-37 -39.5t-27.5 -27q-152 -172 -297 -345t-299 -343q-74 -80 -150.5 -160.5t-158.5 -154.5q-35 -31 -74 -66.5t-82 -67.5t-89 -54.5t-95 -26.5q-8 -1 -15 -1q-44 0 -67 20q-27 24 -33 61q-3 16 -3 33q0 23 5 47q8 43 21 79q-45 -41 -91.5 -78.5t-93.5 -72.5 q-27 -18 -75 -44t-97 -36q-19 -4 -36 -4q-27 -1 -49 9q-36 16 -38 79v8q-1 47 21 93q24 50 51 92q29 53 59.5 101t65.5 95q66 98 132.5 191.5t131.5 187.5q63 94 117 197q6 16 15.5 36.5t16.5 41t10 37t1 26.5l-9 -1t-21.5 -4t-24 -6t-13.5 -5q-94 -35 -175 -96.5 t-152 -121.5q-47 -41 -94.5 -80.5t-88.5 -86.5q-14 -16 -32.5 -36t-42.5 1q-12 10 -12 28.5zM715 266q168 174 313 369q20 29 41 56.5t39 58.5q-20 -16 -38.5 -36t-35.5 -36q-41 -41 -78.5 -85t-74.5 -91q-45 -57 -87 -115.5t-79 -120.5z" />
<glyph unicode="X" horiz-adv-x="1531" d="M10 -76q-2 18 13.5 30.5t37 22t43 15.5t33.5 10q55 25 108.5 52.5t106.5 56.5q104 57 200.5 123.5t192.5 138.5q-8 85 -8 170q0 43 2 85q6 128 25 253q8 49 18.5 98t26.5 98q8 14 22.5 18.5t26.5 -0.5t18 -16.5t-2 -29.5q-47 -106 -64 -227.5t-22 -235.5q-2 -45 -2 -89.5 t2 -88.5q350 279 635 624q12 12 28.5 22.5t35.5 -5.5q12 -10 13 -25.5t-9 -26.5q-166 -174 -338 -337.5t-362 -311.5q6 -59 16 -119.5t27 -117.5q12 -41 36.5 -90.5t71.5 -65.5q17 -5 38 -4q32 1 74 11q70 18 144 47.5t139.5 62t98.5 51.5l86 49q10 4 18 8t19 -4 q23 -14 8 -28.5t-29 -22.5q-111 -53 -216 -108.5t-218 -102.5q-43 -18 -85 -26q-25 -5 -47 -5q-16 0 -31 2q-36 6 -66.5 31t-51.5 74q-35 76 -51 158.5t-24 166.5q-90 -70 -180.5 -133t-186.5 -121q-47 -29 -97.5 -56.5t-101.5 -53.5q-12 -6 -39.5 -21.5t-56.5 -25.5 t-51.5 -9t-24.5 29z" />
<glyph unicode="Y" horiz-adv-x="1312" d="M10 39q0 33 16.5 33t43.5 -11q2 0 17 -10t31.5 -22.5t32 -23.5t21.5 -15q45 -31 95 -56.5t103 -39.5q42 -10 83 -10q12 0 24 1q53 4 105 33q61 37 110 91t91 115.5t78 126t73 122.5q35 55 70.5 109.5t68.5 107.5q-55 -57 -113.5 -110.5t-119.5 -102.5q-33 -27 -70 -54.5 t-77 -51t-82 -41t-85 -21.5q-11 -1 -21 -1q-48 0 -64 24q-15 24 -15 56q0 8 1 17q5 43 25.5 89t36.5 75q47 86 103.5 164t103.5 162q8 14 20.5 36.5t24 47t17.5 48t0 42.5q-4 10 -23.5 6t-43 -14.5t-44 -21.5t-24.5 -13q-84 -47 -160 -110.5t-144 -129.5l-65 -68 q-16 -16 -32.5 -40.5t-35.5 -36.5q-14 -10 -27.5 -6t-21.5 15t-9 24.5t11 25.5q78 70 157 137.5t159 132.5q29 25 61.5 54.5t67 54.5t72.5 43t79 22q8 1 14 1q46 0 66 -35q16 -26 16 -57q0 -15 -4 -31q-12 -53 -42.5 -102.5t-63.5 -94.5q-4 -6 -29.5 -41t-58.5 -83 t-67 -103.5t-57.5 -102.5t-30.5 -79.5t16 -34.5q7 -1 15 -1q26 0 57 10q40 13 82 34.5t77 45t53 38.5q98 66 183.5 142.5t164.5 162.5l54 57q29 49 60.5 98.5t62.5 100.5q16 23 34.5 50.5t39 53t44 44t49.5 24.5q25 6 36.5 -3.5t10.5 -24.5t-10.5 -33.5t-23.5 -32.5l-86 -99 l-156 -178q-20 -33 -39.5 -62.5t-38.5 -60.5l-159 -252q-41 -61 -80 -130.5t-82 -137.5t-92.5 -129t-110.5 -107q66 14 127 36t121 48q111 47 215 96.5t211 104.5q10 6 18 2t12.5 -11t3.5 -16.5t-12 -15.5l-90 -41l-225 -114q-109 -47 -213.5 -92.5t-218.5 -67.5 q-54 -8 -107 -8q-62 0 -123 11q-112 21 -211 87q-12 8 -35.5 22.5t-46 32t-39 36.5t-16.5 38z" />
<glyph unicode="Z" horiz-adv-x="1523" d="M0 -70q4 23 23.5 34t42.5 22q68 31 135 63.5t143 61.5q102 57 197.5 122.5t187.5 137.5q324 246 588 547q-59 -29 -118.5 -52.5t-119.5 -44.5q-41 -14 -89 -29.5t-98 -22.5q-32 -4 -63 -4q-17 0 -35 1q-48 4 -92 29q-48 25 -66 69q-15 35 -14 72q0 10 1 20 q-31 -35 -56.5 -71.5t-52.5 -71.5l-39 -63q-10 -16 -19.5 -38t-25.5 -28q-14 -8 -26.5 -4t-19.5 14.5t-8 23.5t9 23q45 45 81 91.5t65.5 91.5t57 87t58.5 81q8 10 17.5 20t19.5 14t19.5 -1t17.5 -23q2 -8 -4 -24.5t-15.5 -36t-18.5 -37t-11 -29.5q-2 -13 -2 -24 q0 -34 18 -56q24 -29 63.5 -42t85.5 -15q15 -1 29 0q28 0 52 2q98 10 190 45t182 82l82 45q18 12 38 27.5t38 19.5q14 4 26.5 -3t16.5 -24q6 -16 0 -26.5t-16 -14.5q-166 -180 -343.5 -345t-369.5 -314q-61 -47 -121.5 -92t-124.5 -88q16 2 33 2q23 0 47 -4q41 -6 76 -25 q25 -14 44 -33.5t37.5 -40t37 -40t40.5 -34.5q33 -20 75 -24q17 -2 34 -1q25 0 51 3q43 6 85 18.5t77 24.5q51 20 102.5 44t100.5 48q12 6 44 25.5t65.5 37t63.5 25.5t36 -6q8 -14 -8.5 -29.5t-42 -29t-52 -23.5t-35.5 -14q-55 -29 -110 -55.5t-113 -53.5q-39 -16 -81 -36.5 t-85 -34t-88 -16.5h-13q-38 0 -75 14q-49 23 -81.5 59.5t-67.5 75.5q-66 79 -166 79q-14 0 -29 -2q-29 -4 -58.5 -11t-58.5 -17q-72 -41 -124 -71t-105 -56q-14 -6 -34.5 -18.5t-43 -23.5t-44 -16.5t-36.5 5.5q-8 4 -12 15t-2 17z" />
<glyph unicode="[" horiz-adv-x="432" d="M-25 -217q-4 14 4.5 33.5t21.5 39t26.5 37t21.5 29.5q25 39 45.5 78t42.5 78q53 102 113.5 199.5t122.5 193.5q20 31 36.5 67.5t37 69.5t48 56.5t70.5 27.5q29 4 59.5 -2t55.5 6h23.5t19.5 -12q10 -14 7 -31.5t-19 -25.5q-20 -10 -43 -9.5t-45.5 2t-44 0t-39.5 -13.5 q-33 -18 -53.5 -52t-41.5 -62l-92 -136q-45 -68 -87 -138.5t-79 -141.5q-33 -63 -68.5 -128t-60.5 -130q41 -10 88.5 -2t87.5 4q12 0 25.5 -7.5t21 -17.5t5.5 -21.5t-19 -21.5q-18 -10 -44.5 -8t-47.5 2q-18 -2 -49 -5t-62.5 -1t-56 11t-31.5 32z" />
<glyph unicode="\" horiz-adv-x="456" d="M-61 637q2 29 27.5 34t41.5 -20l86 -159q68 -127 134.5 -251t131.5 -253l72 -140l23 -47q6 -12 2 -20t-11.5 -13.5t-16.5 -3t-15 12.5q-72 152 -151 296t-165 285l-78 138q-10 12 -24 30.5t-27.5 38t-22.5 39t-7 33.5z" />
<glyph unicode="]" horiz-adv-x="440" d="M-239 -212q4 18 20 26q20 8 42.5 8t45 -1t44 0t40.5 11q33 18 53.5 53t40.5 64q45 61 90 137q45 66 87 136.5t81 142.5q31 61 64.5 125.5t60.5 132.5q-41 10 -86 1.5t-86 -6.5q-14 2 -27.5 9.5t-20.5 17.5t-5 21.5t18 21.5q18 10 46 7t48 1q18 0 49 3t62 1t56.5 -12 t31.5 -33q4 -14 -4 -32.5t-21.5 -37t-26.5 -36t-22 -29.5q-25 -41 -45 -80t-43 -80q-55 -102 -115.5 -198t-119.5 -195q-20 -31 -36.5 -66.5t-38 -68.5t-49.5 -56.5t-71 -29.5q-27 -4 -58.5 2t-58.5 -4q-10 2 -20 1t-20 11q-10 14 -6 32z" />
<glyph unicode="^" horiz-adv-x="462" d="M191 455.5q3 25.5 26 33.5q41 14 80 36t80 44q10 6 26.5 22.5t35 30t36 19.5t29.5 -6q20 -23 31.5 -65t21.5 -68q4 -10 12.5 -28.5t5.5 -31.5q-4 -29 -25.5 -18.5t-29.5 27.5l-57 106q-88 -37 -168 -94q-16 -14 -37.5 -34.5t-46.5 -8.5q-23 10 -20 35.5z" />
<glyph unicode="_" horiz-adv-x="557" d="M-61 -32q8 11 24 9q72 -8 145.5 -2.5t145.5 15.5q31 4 71 15t72 7q27 -4 32 -29.5t-19 -39.5q-23 -14 -64 -12.5t-67 -0.5q-41 -2 -79 -3t-77 -1q-35 0 -72 1t-74 1q-10 0 -21 2t-17 13q-8 14 0 25z" />
<glyph unicode="`" horiz-adv-x="403" d="M29 782q-2 14 6 23.5t20.5 12.5t24.5 -1t18 -18q6 -10 23.5 -22.5t39 -24t44 -21.5t39.5 -16q29 -10 61.5 -16.5t54.5 -22.5q16 -4 19.5 -16.5t-6.5 -22.5q-10 -14 -26.5 -8t-29.5 10q-63 20 -129.5 40.5t-121.5 57.5q-10 8 -21.5 18.5t-15.5 26.5z" />
<glyph unicode="a" horiz-adv-x="901" d="M-15 159q1 9 13 15q25 12 62.5 31.5t80.5 38t83 35t67 26.5q14 6 51 18.5t78 22.5t76.5 15t52.5 -7q25 -23 9.5 -41t-38.5 -22l-92 -10q-29 -8 -48.5 -19.5t-43.5 -28.5q-10 -8 -36 -33.5t-50.5 -55t-38.5 -57.5t0 -40q12 -10 40 -4t56.5 18.5t53 25.5t32.5 19 q59 37 96 78q18 20 40 5t14 -42q-4 -14 -15 -24q-10 -10 -19 -19.5t-15 -25.5q-8 -14 -4 -21.5t14 -9.5q10 -1 21 -1q23 0 51 5q42 8 88.5 22.5t91.5 34t78 35.5q8 2 22 11.5t29.5 15.5t30 6t20.5 -12q8 -12 -1 -22.5t-25.5 -17.5t-33 -13.5t-24.5 -10.5 q-35 -16 -69.5 -31.5t-71.5 -31.5q-25 -10 -53.5 -24.5t-59.5 -25t-62.5 -14.5t-58.5 7q-35 14 -41 39.5t2 54.5l-55 -33q-35 -20 -73 -42t-79 -26h-7q-32 1 -58 17q-28 18 -31 57q0 20 16.5 52t42 66t56.5 62.5t57 42.5q-14 -4 -46 -18t-71.5 -34.5t-84 -42t-80.5 -40.5 q-10 -6 -20.5 -3t-15.5 10.5t-4 16.5z" />
<glyph unicode="b" horiz-adv-x="759" d="M-9 155.5q1 14.5 13 20.5q102 45 196.5 106.5t180.5 133.5q29 53 60.5 105t64.5 106q57 94 129 184q29 37 65.5 78t83.5 53q18 4 37 0t29 -22t6 -38t-14.5 -39.5t-23.5 -37t-23 -31.5q-90 -104 -181.5 -201.5t-195.5 -183.5l-41 -92q-6 -14 -21.5 -52t-28 -79t-14.5 -77 t19 -44q45 0 82 23.5t65 56.5q2 4 8.5 10t12.5 17q-11 26 -11 55q0 13 2 27q7 45 33 75q22 29 48 29q4 0 8 -1q32 -5 32 -52q0 -35 -16 -71t-39 -67q4 -4 8 -7t10 -5q23 -10 48.5 -9t48.5 9q25 6 56.5 25.5t55.5 19.5q20 0 23.5 -19.5t-12.5 -27.5q-49 -23 -95 -37 q-43 -14 -90 -15h-3q-45 0 -79 28q-31 -39 -71.5 -77t-87.5 -55q-18 -5 -35 -5t-33 4q-33 10 -47 47q-8 23 -8 47q0 25 9 52q17 52 36 95q10 25 21.5 51.5t23.5 53.5q-41 -29 -84 -57.5t-84 -55.5l-127 -70q-10 -4 -19.5 -9t-19.5 3q-12 8 -11 22.5zM477 496q47 45 93.5 94 t91.5 98q33 39 64.5 81t47.5 91q-16 -10 -32.5 -25.5t-28.5 -25.5q-35 -35 -67 -72t-60 -75q-31 -41 -56.5 -82t-52.5 -84z" />
<glyph unicode="c" horiz-adv-x="729" d="M-9 150.5q-3 19.5 13 25.5q53 23 101.5 51.5t99.5 53.5q18 8 34.5 16t34.5 12q35 15 82 25q34 8 63 7q11 0 21 -1q14 -4 23.5 -15.5t10.5 -23.5t-6 -22.5t-26 -12.5q-12 -4 -27.5 -1t-31.5 5q-29 2 -56.5 -2t-54.5 -18q-41 -18 -59 -56q-7 -14 -6 -29q0 -24 18 -50 q31 -37 76 -49q30 -8 63 -7q16 -1 32 1q50 6 99.5 20t86.5 26q47 14 86 35t67 35q14 10 27.5 -3t3.5 -30q-6 -16 -27.5 -24t-38.5 -13q-84 -41 -176 -75.5t-188 -34.5h-9q-38 0 -73 14q-39 16 -65.5 45t-36.5 69q-3 12 -2 25q0 29 14 60v2q-23 -12 -44.5 -26.5t-43.5 -24.5 q-12 -8 -29.5 -20.5t-34.5 -8.5q-18 0 -21 19.5z" />
<glyph unicode="d" horiz-adv-x="823" d="M-10 163q2 9 14 13q53 18 101.5 45t99.5 49q33 16 67.5 26.5t69.5 20.5q41 14 88 15q18 0 30.5 -16.5t2.5 -34.5q-6 -12 -18.5 -17.5t-28 -6.5t-30.5 -1h-28q-29 -2 -58.5 -17.5t-55.5 -37.5q-35 -25 -64 -66q-2 -4 -9 -17.5t-13 -27.5t-9.5 -26.5t3.5 -18.5q6 -6 19 -3 t26.5 10t24.5 14.5t16 9.5q35 20 65.5 42.5t63.5 45.5l96 86q35 72 73.5 142.5t79.5 139.5q29 47 57.5 94.5t61.5 94.5q31 43 68 89t86 71q14 4 27.5 8t27.5 0q23 -4 33 -16.5t11 -30t-4 -37t-13 -33.5q-35 -59 -79 -112.5t-89 -106.5q-70 -84 -140.5 -163t-148.5 -152 q-10 -29 -19.5 -55.5t-19.5 -55.5q-4 -10 -9 -24.5t-10 -31t-8.5 -32.5t-1.5 -27q37 2 75 16.5t71 28.5q57 23 115.5 54.5t111.5 60.5q6 4 17.5 5t20.5 -1t11 -10t-6 -23q-10 -16 -30.5 -23t-34.5 -14q-57 -29 -114.5 -59.5t-113.5 -60.5q-16 -8 -36.5 -19.5t-43 -19.5 t-44 -8t-39.5 12q-18 14 -23.5 34.5t-2.5 44t10 45t13 38.5q2 8 4.5 15t6.5 17l-103 -88q-16 -16 -36.5 -33.5t-44 -30.5t-48 -19.5t-49.5 -0.5q-41 12 -50 39t2 59.5t35.5 66.5t53.5 63l-51 -21q-20 -10 -49 -27.5t-51 -19.5q-12 -6 -20.5 -1t-11.5 13.5t-1 17.5zM573 365 l13 12q53 55 104 113.5t98 119.5q20 29 41 56.5t39 58.5q6 12 23.5 39t21.5 49q-29 -10 -53 -39t-39 -45q-47 -51 -88 -106.5t-78 -114.5z" />
<glyph unicode="e" horiz-adv-x="727" d="M-9 157.5q1 14.5 13 18.5q37 18 77 41t81 39q27 47 76 76.5t104 40.5q14 2 31 2t35 -2q38 -4 59 -31q14 -16 7 -34.5t-24.5 -35t-39 -30t-31.5 -19.5q-37 -23 -81 -34q-32 -8 -65 -8q-12 0 -24 1h-8q8 -45 36.5 -69.5t67.5 -35.5q33 -9 68 -9h13q42 2 77 8q49 10 96 25.5 t92 35.5q20 10 42 19.5t40 19.5q14 4 29.5 -4t3.5 -27q-10 -16 -28.5 -22t-32.5 -12l-103 -45q-94 -37 -186 -62q-30 -6 -60 -6q-11 0 -23 1q-42 3 -78 18.5t-64.5 44t-40.5 73.5q-4 16 -7.5 32.5t0.5 31.5q-23 -10 -44 -23.5t-38 -23.5q-10 -4 -26.5 -15.5t-32.5 -1.5 q-12 8 -11 22.5zM213 233q49 2 95 25t81 57q-29 10 -56.5 6t-51 -16t-42 -32t-26.5 -40z" />
<glyph unicode="f" horiz-adv-x="565" d="M-74 -264.5q0 20.5 4 42t10.5 42t10.5 35.5q14 43 45 96t73 104t90 95.5t97 68.5q10 20 19.5 38.5t19.5 37.5l-86 -59q-37 -23 -75 -45.5t-77 -43.5q-12 -6 -28.5 -14t-28.5 0q-10 8 -9 22.5t13 20.5q90 41 174 94.5t162 112.5q39 74 77 149.5t83 147.5q16 31 37.5 66.5 t49 67.5t60.5 53.5t74 21.5q43 0 52 -22.5t0 -52.5t-27.5 -59.5t-30.5 -43.5q-51 -76 -112.5 -143.5t-131.5 -127.5q-23 -23 -47.5 -43t-46.5 -41l-82 -155v-8q0 -53 23 -74q21 -18 54 -18q9 0 19 1q29 6 55.5 15.5t53.5 19.5q18 8 42.5 25.5t45.5 17.5q18 0 23 -19.5 t-13 -27.5l-96 -45q-43 -16 -94 -32q-30 -8 -57 -8q-21 0 -42 5q-39 14 -63 56q-41 -80 -85 -157t-91 -153q-6 -10 -23.5 -36.5t-37 -49t-40 -31t-35.5 18.5q-8 14 -8 34.5zM-8 -199q59 66 109.5 144t95.5 157q-76 -53 -136.5 -134t-68.5 -167zM432 463q43 39 84 80t78 88 q47 53 78 104q10 14 20 36t13 42q-23 -8 -42.5 -25.5t-35.5 -33.5q-39 -41 -71 -86t-60 -93q-16 -29 -31.5 -56t-32.5 -56z" />
<glyph unicode="g" horiz-adv-x="677" d="M-12 148.5q-4 17.5 12 25.5q53 27 104.5 51.5t104.5 44.5q57 20 113.5 30.5t117.5 10.5q23 0 35 -11t2 -38q-12 -20 -37 -20q-26 2 -53 2t-54 -2q-54 -4 -104 -25q-16 -6 -34.5 -18.5t-34 -27.5t-21.5 -33.5t4 -39.5q16 -35 63 -41q19 -3 37 -3q23 0 42 5q27 6 47 16.5 t36.5 18.5t30 11.5t27.5 -9.5q14 -20 1 -46.5t-21 -45.5l-29 -67q55 57 116.5 109t131.5 93q6 4 16 12.5t22.5 15.5t24.5 10t21 -3q14 -10 10 -20.5t-14 -20.5q-53 -29 -102.5 -61.5t-96.5 -73.5q-53 -45 -101.5 -96.5t-89.5 -106.5l-53 -123q-25 -61 -49.5 -124.5 t-52.5 -125.5q-6 -12 -15.5 -29.5t-20.5 -32.5t-26.5 -24.5t-34.5 -7.5q-25 4 -31.5 22.5t-3.5 41t10 45t13 37.5q39 92 97.5 179t123.5 165l70 198q-37 -10 -79 -15q-23 -3 -45 -3q-18 0 -34 2q-37 4 -66.5 20.5t-43.5 53.5q-9 22 -9 43q0 22 11 43q-16 -10 -33.5 -21.5 t-30.5 -7.5q-20 0 -24 17.5z" />
<glyph unicode="h" horiz-adv-x="944" d="M-8 155.5q0 14.5 12 20.5q129 61 250 133t209 158l74 133q35 59 75.5 121.5t98.5 101.5q14 8 40.5 17.5t50 9.5t37 -13.5t1.5 -50.5q-10 -29 -29.5 -54t-43.5 -50t-48.5 -46.5t-42.5 -41.5q-43 -41 -88 -82t-92 -78q-12 -23 -23.5 -44t-21.5 -44q-18 -35 -37 -69.5 t-41 -69.5q63 37 129.5 68.5t132.5 60.5q23 12 52.5 20.5t57.5 -0.5q31 -10 39.5 -38.5t-8.5 -57.5q-12 -25 -31.5 -49.5t-40 -50t-35 -53t-14.5 -54.5q53 6 111.5 32t105.5 50q16 8 38 21.5t38 19.5q10 6 19.5 2t14.5 -11t4 -17.5t-13 -16.5q-45 -27 -92 -48.5t-93 -47.5 q-18 -10 -42.5 -24.5t-50 -22.5t-51.5 -6t-44 24q-14 18 -13 39t10 40t22.5 37.5t23.5 33.5q23 29 44.5 61.5t25.5 67.5q-16 2 -36 -2t-40.5 -11.5t-39.5 -15.5t-34 -12q-45 -20 -87 -44t-83 -50q-66 -47 -92.5 -71t-38.5 -34q-10 -10 -23.5 -14t-29.5 8q-16 14 -14 27.5 t12 25.5q59 61 109.5 131t91.5 144q-55 -43 -111.5 -80t-114.5 -72q-35 -23 -68.5 -41t-68.5 -37q-10 -4 -21.5 -9t-21.5 3t-10 22.5zM561 551q23 23 46 45t46 45q27 27 54.5 57.5t46.5 67.5q-47 -23 -84 -62.5t-66 -80.5z" />
<glyph unicode="i" horiz-adv-x="622" d="M-11.5 146.5q-13.5 17.5 11.5 29.5l205 98q8 4 37.5 16.5t58.5 18.5t49.5 1t14.5 -38q-4 -18 -17.5 -36.5t-19.5 -36.5q-12 -27 -24 -66q-4 -15 -4 -28q0 -20 11 -35q9 -1 18 -1q28 0 59 9q42 12 77 24q10 4 38.5 20.5t60.5 32t58.5 22.5t32.5 -5q8 -14 -10 -30.5 t-46 -30t-56.5 -24.5t-36.5 -15q-45 -23 -91 -44.5t-96 -29.5q-8 -1 -16 -1q-30 -1 -43 19q-16 24 -16 62.5t11 82.5t24 81q-47 -18 -92.5 -33.5t-88.5 -36.5q-37 -16 -73 -37q-23 -6 -36.5 11.5zM444 688q10 27 32 46.5t48.5 31.5t56 19.5t56.5 11.5q21 1 42 1q52 0 103 -7 q12 0 27.5 -4.5t13.5 -22.5q-2 -10 -10 -17.5t-18 -5.5q-49 10 -102 10q-11 -1 -22 -1q-65 -2 -116 -37q-20 -12 -28.5 -33t-24.5 -33q-20 -16 -43 0t-15 41z" />
<glyph unicode="j" horiz-adv-x="516" d="M-247 -607.5q3 17.5 10.5 36t13.5 30.5q47 96 118.5 182.5t149.5 163.5q51 104 100.5 210t90.5 216q-39 -10 -76 -29.5t-72 -33.5q-16 -8 -37.5 -24.5t-42.5 -12.5q-18 0 -22 19.5t14 25.5q53 23 103.5 50.5t103.5 56.5q12 6 35.5 15t45 12t33 -7t3.5 -41 q-47 -88 -90.5 -177t-88.5 -179q57 55 120 104t128 92q8 4 36 23.5t57.5 35t52 20.5t22.5 -19q0 -20 -23.5 -29.5t-35.5 -17.5q-29 -14 -59.5 -35t-57.5 -39q-86 -57 -160.5 -122.5t-142.5 -139.5q-45 -96 -91 -192.5t-104 -186.5q-8 -12 -19 -26.5t-25.5 -27t-31 -17.5 t-34.5 5q-16 8 -21.5 24.5t-2.5 34zM326 625.5q-2 11.5 6 23.5q25 35 67.5 51.5t83.5 20.5q9 1 17 1q26 0 52 -5q34 -6 66 -15q12 -4 22.5 -7t12.5 -15q4 -14 -5 -24.5t-23 -6.5q-53 14 -107 21h-15q-45 0 -85 -31q-10 -8 -19.5 -23.5t-21.5 -21.5q-12 -4 -23.5 -1t-18.5 12 t-9 20.5z" />
<glyph unicode="k" horiz-adv-x="919" d="M-18 148.5q-4 17.5 14 25.5q115 57 220.5 131t203.5 154l35 30q31 59 64.5 119t72.5 115q25 35 54.5 68.5t70.5 52.5q12 6 29.5 8t32 -1t24.5 -13.5t8 -30.5q-2 -18 -11 -35.5t-22.5 -33t-28 -31t-26.5 -27.5q-35 -35 -71 -70t-72 -69q-23 -20 -45.5 -42t-45.5 -40 l-122 -242q20 14 40.5 28.5t43.5 26.5q27 16 60.5 37t70 36t74.5 19q6 1 12 0q31 0 57 -16q18 -10 22.5 -24.5t0 -29.5t-14.5 -29.5t-22 -26.5q-57 -49 -132 -72t-151 -23q35 -41 82 -67q36 -19 76 -19q13 0 26 2q72 10 139.5 36t131.5 61q10 6 26.5 17t32.5 3 q10 -6 11 -19.5t-11 -21.5q-8 -6 -15 -9t-16 -7q-29 -16 -57.5 -30.5t-56.5 -27.5q-45 -23 -90 -43t-91 -26q-16 -2 -32 -2q-29 0 -58 7q-45 11 -88 52q-23 20 -42 45t-36 49q-20 -18 -38.5 -38.5t-34.5 -41.5q-6 -10 -13.5 -18t-17.5 -18q-16 -16 -33.5 -21.5t-27.5 29.5 q-6 14 0 24.5t14 22.5l65 92q31 45 56.5 90t52.5 90l20 35q-39 -31 -77.5 -58.5t-77.5 -56.5q-45 -31 -89 -58.5t-93 -55.5q-10 -8 -28 -20.5t-34 -8.5q-18 0 -22 17.5zM416 193h18q66 2 122 27.5t99 72.5q-18 0 -37.5 -5t-35.5 -9q-18 -4 -45 -17.5t-52.5 -28t-45 -26.5 t-23.5 -14zM553 578l61 61q25 27 53.5 58.5t49.5 66.5q-51 -29 -92 -79t-72 -107z" />
<glyph unicode="l" horiz-adv-x="602" d="M-11 146.5q-14 17.5 11 29.5q63 29 122.5 63.5t119.5 75.5q29 57 63.5 110.5t67.5 104.5q35 47 69.5 95.5t71.5 95.5q31 41 66.5 83t83.5 68q23 12 55.5 17.5t44.5 -29.5q8 -23 1 -44t-21.5 -42.5t-31 -41t-26.5 -34.5q-82 -117 -183.5 -218t-217.5 -187 q-10 -25 -23.5 -52.5t-24 -58t-14.5 -60.5t2 -56q23 4 41 6q16 2 30.5 3t18.5 3q61 12 121 32.5t117 45.5q16 4 38.5 16t39.5 2q23 -16 6.5 -29.5t-31.5 -19.5l-237 -88q-35 -12 -68 -25.5t-68 -15.5q-31 -4 -49 9t-25 34.5t-5 47.5t8 48q14 49 37 98q-84 -55 -176 -100 q-20 -4 -34 13.5zM340 391q18 14 38 32t38 34q96 90 176 194q37 43 70 99q4 10 12 25.5t14 31.5q-29 -14 -54.5 -39t-41.5 -41q-47 -47 -88 -99.5t-82 -107.5q-23 -33 -43.5 -64.5t-38.5 -64.5z" />
<glyph unicode="m" horiz-adv-x="1220" d="M-17 157.5q1 10.5 13 16.5q47 27 94 49.5t94 44.5q14 6 40 19.5t54.5 26t55 18.5t43.5 -2q18 -12 17 -28.5t-12 -35t-25.5 -35t-20.5 -26.5q-10 -16 -19.5 -34.5t-19.5 -37.5q47 37 83 64.5t64.5 48t54 35t52.5 24.5q31 12 59.5 1t20.5 -52q-4 -29 -14.5 -54.5 t-24.5 -49.5l90 54t92 56q39 25 83 51.5t91 32.5q31 4 49.5 -7t24.5 -30.5t2 -43t-16 -44.5q-27 -43 -53.5 -81t-49.5 -79q10 -2 20 -2q26 1 57 11q44 14 71 26q29 10 53 21.5t51 23.5q8 4 19.5 12.5t24.5 15.5t25.5 10t22.5 -1q20 -10 10 -24.5t-31.5 -27.5t-45 -23.5 t-31.5 -14.5q-29 -16 -57.5 -28.5t-57.5 -24.5q-39 -17 -86 -35q-24 -9 -46 -9t-42 9q-23 10 -29 26.5t-2.5 34t14.5 36t23 30.5q12 14 29.5 30.5t33 35t25 38t5.5 41.5q-20 10 -50 -2t-47 -20q-61 -23 -118.5 -59.5t-110.5 -73.5q-8 -6 -28.5 -23.5t-43 -32t-44 -18.5 t-30.5 18q-4 10 2.5 24.5t16.5 30t20.5 30t14.5 24.5t11 28.5t11 36.5q-47 -14 -88 -37.5t-79 -51t-74.5 -59.5t-75.5 -60q-10 -10 -24.5 -16.5t-28.5 1.5q-18 8 -20.5 19.5t3.5 22.5t16.5 21.5l16.5 16.5q57 74 92 164q-45 -10 -87 -27.5t-81 -33.5q-29 -14 -57.5 -27.5 t-57.5 -32.5q-10 -6 -20 -3t-14 10t-3 17.5z" />
<glyph unicode="n" horiz-adv-x="929" d="M-19 159q1 9 15 15q23 12 78 42t113.5 56.5t107.5 36.5q14 3 24 3q28 0 37 -19q8 -20 -5 -40t-19 -36l-25 -57q27 16 53.5 28.5t53.5 24.5q66 35 135 74t141 59q27 6 47.5 1t31.5 -18.5t11 -35t-16 -45.5q-18 -29 -40 -51.5t-44 -49.5q-4 -6 -14.5 -16t-21.5 -23.5 t-20.5 -26.5t-11.5 -24q14 -4 36 0t43.5 11.5t41 15.5t29.5 12l84 37q8 4 21.5 12.5t27.5 15.5t27.5 13t21.5 6q18 0 18.5 -18.5t-16.5 -28.5q-18 -10 -38.5 -19.5t-43.5 -19.5q-29 -16 -55.5 -28.5t-54.5 -26.5q-16 -8 -52 -23.5t-72 -22.5t-62.5 2t-26.5 50q0 20 10 36.5 t23.5 32t28.5 30t28 26.5q12 10 40.5 43t37.5 61q-55 -6 -111.5 -28.5t-103.5 -46.5q-59 -29 -123 -65t-111 -85q-10 -8 -21.5 -9t-21.5 4t-15 15.5t-1 26.5q6 18 30 33q10 16 20.5 37.5t14.5 25.5q4 14 8.5 29.5t6.5 32.5q-23 -6 -45.5 -14.5t-34.5 -12.5 q-29 -12 -57.5 -23.5t-57.5 -25.5q-16 -8 -29.5 -16.5t-29.5 -14.5q-12 -6 -23.5 -3t-17.5 9.5t-5 15.5z" />
<glyph unicode="o" horiz-adv-x="802" d="M-14 155.5q2 14.5 14 20.5l213 92q41 16 85 28.5t85 25.5q27 14 59.5 22t59.5 -8q16 -12 12 -33q14 2 29 -8q21 -21 21 -47q0 -8 -2 -16q-8 -36 -32 -72q8 -10 25 -21q30 -18 65 -18h7q39 2 73 12q10 2 31 12.5t42.5 19.5t39.5 12t25 -9q8 -16 -2.5 -27.5t-27.5 -18.5 t-35.5 -13.5t-24.5 -8.5q-31 -10 -65 -16t-66.5 -6t-63.5 9t-53 32l-45 -47q-25 -23 -55.5 -45.5t-64.5 -38t-71 -19.5q-8 -1 -15 -1q-28 0 -54 12q-41 18 -48.5 47.5t5 62.5t35 63.5t42.5 51.5l39 39q-47 -16 -92 -37t-90 -43q-8 -4 -20.5 -11.5t-24.5 -13.5t-23.5 -9 t-19.5 3q-14 8 -12 22.5zM196 72.5q-3 -21.5 25 -25.5q21 -3 42 -3q31 0 59 7q48 12 88 47l30.5 30.5t24.5 33.5q-10 27 -11 57.5t15 52.5q-57 -4 -103 -24t-83 -51q-8 -8 -30 -31t-38 -47.5t-19 -46z" />
<glyph unicode="p" horiz-adv-x="837" d="M-245 -607.5q5 23.5 17.5 49.5t27 50.5t26.5 43t18 26.5q53 80 112.5 156.5t119.5 150.5q45 92 84 182t76 182q-39 -10 -77 -30.5t-71 -34.5q-16 -8 -37.5 -24.5t-42.5 -12.5q-18 0 -22 19.5t14 25.5q53 23 103.5 50.5t103.5 54.5q12 6 35.5 16t45 13t33 -6t3.5 -42 q-6 -25 -23.5 -51.5t-30.5 -52.5l-51 -105q-8 -12 -14 -24.5t-12 -24.5q61 70 126.5 135.5t139.5 120.5q43 33 98 62q43 24 87 24q12 0 24 -2q33 -6 40 -26.5t-0.5 -45t-21.5 -49t-24 -39.5l-87 -108q45 10 88.5 24.5t88.5 32.5q8 4 27.5 15.5t40 20.5t35.5 8t15 -21 q0 -14 -17 -26.5t-39.5 -23t-45.5 -18.5t-33 -12q-12 -6 -60 -22.5t-104.5 -35t-106.5 -34t-67 -17.5q-14 0 -21 11.5t-6 25.5t13 27.5t37 15.5q35 0 61.5 19.5t50.5 44.5q43 41 72 90q6 10 18.5 31.5t16.5 39.5q-33 -2 -64.5 -16t-62.5 -33.5t-58.5 -42t-50.5 -41.5 q-66 -51 -124 -110.5t-111 -122.5l-57 -66l-138 -284q-12 -23 -30.5 -64t-42 -80t-50.5 -64q-23 -21 -49 -21q-6 0 -12 1q-25 6 -32 23.5t-2 41z" />
<glyph unicode="q" horiz-adv-x="677" d="M-64 -386.5q3 13.5 17 17.5q55 20 109.5 38t109.5 34l8 14q41 96 83 191.5t79 193.5q-33 -18 -68.5 -32.5t-67.5 -16.5t-58.5 10.5t-41.5 49.5q-14 33 -8 59q-10 -4 -21 -12t-23.5 -14.5t-25 -11.5t-24.5 -3q-18 0 -21 17.5t13 25.5q51 27 103.5 51.5t105.5 44.5 q49 18 109 30q46 10 90 10q14 0 28 -1q25 -2 39 -12t-2 -39q-8 -10 -17.5 -13t-19.5 -3q-20 2 -37.5 3t-34.5 1q-4 0 -20 -1t-38.5 -4t-49.5 -9.5t-51 -18.5q-12 -6 -21.5 -18.5t-12.5 -25.5t3 -25.5t25 -18.5t38 -6q26 0 53 11q46 20 74 54q12 10 21.5 26.5t26.5 22.5 q18 8 28 2t13.5 -17t1.5 -25.5t-9 -24.5q-49 -96 -94 -190.5t-90 -190.5q72 92 152 176q37 41 77.5 76t85.5 70l89 59q10 4 20 9t20 -3q10 -4 10.5 -18.5t-10.5 -22.5q-190 -113 -333 -283q-51 -59 -90 -120l63 14q51 14 103.5 24.5t105.5 20.5q16 4 34.5 8t32.5 -10 q14 -12 12.5 -30.5t-18.5 -28.5q-16 -8 -35.5 -8.5t-35.5 -2.5l-113 -14q-47 -8 -95 -16.5t-95 -18.5q-31 -49 -58.5 -102t-52.5 -107q-12 -29 -23.5 -57.5t-27.5 -60.5q-10 -20 -34 -23.5t-34 29.5q-4 12 1 21t11 20l52 104q39 76 73 154l-108 -35q-8 -2 -20.5 -8 t-26 -10.5t-25.5 -6.5t-18 4q-14 10 -11 23.5z" />
<glyph unicode="r" horiz-adv-x="774" d="M-12 155.5q0 14.5 12 20.5q43 23 85 45.5t91 50.5q-1 5 -1 10q1 34 25 64q26 33 65 33h5q29 -4 37 -28.5t-8 -47.5q-16 -25 -43 -41q14 -8 35 -8q7 -1 15 0q36 0 75 16q47 20 84 41q37 12 47 -8t-8 -49q-10 -16 -23.5 -42t-22.5 -52.5t-10.5 -51t15.5 -38.5q10 -12 54 0 t118 41q25 10 50.5 23t51.5 26q6 2 18.5 9t24 10t20.5 0t9 -21q0 -10 -9 -18.5t-20.5 -14.5t-24 -10t-18.5 -6l-86 -39q-23 -12 -56.5 -31t-68 -31t-67.5 -12t-51 27q-10 14 -12.5 31.5t0.5 34.5t8.5 34.5t9.5 34.5l16 67q-10 -2 -42 -10t-68 -11q-16 -1 -31 -1q-20 0 -40 2 q-34 4 -50 26l-17 -9q-18 -9 -40.5 -21.5t-46 -26.5t-38.5 -22q-12 -4 -28.5 -15.5t-28.5 -3.5t-12 22.5z" />
<glyph unicode="s" horiz-adv-x="647" d="M-17 146.5q-1 7.5 2 15.5t11 12q14 8 52 29.5t84 44t93 42t82 21.5q12 4 25.5 -1t19.5 -13q12 -20 2 -31.5t-26.5 -19.5t-36 -13.5t-25.5 -13.5q-10 -12 5.5 -22.5t38 -16.5t45 -11t28.5 -9q41 -23 48 -48.5t-9 -52.5l55 29l164 86q14 8 25.5 1t11.5 -23t-17.5 -23.5 l-31.5 -13.5q-49 -23 -99.5 -48.5t-99.5 -52.5q-59 -29 -113.5 -51t-111.5 -22q-41 0 -73 28.5t-32 65.5q-2 18 8.5 29.5t24.5 14.5t25.5 -5t13.5 -27q4 -41 36 -48q13 -3 28 -3q21 0 47 6q29 10 52 25.5t34 29.5q27 29 14.5 45.5t-42.5 26.5t-62.5 17.5t-45.5 17.5 q-18 16 -21 32.5t1 32.5q-31 -12 -60.5 -25.5t-54.5 -23.5q-18 -10 -43.5 -29.5t-46.5 -19.5q-10 -2 -17 3t-8 12.5z" />
<glyph unicode="t" horiz-adv-x="610" d="M-13 161q3 9 13 15q72 33 138.5 72t129.5 86l29 49q-31 -2 -67.5 -8t-59.5 6q-16 10 -11 28.5t23 18.5q25 -1 49 -1h25q37 1 74 5q57 88 123.5 183.5t150.5 160.5q16 10 33.5 20.5t36.5 12.5q20 0 30.5 -16.5t4.5 -34.5q-10 -41 -45 -79t-60 -69q-31 -41 -64.5 -79.5 t-68.5 -75.5l121 28l203 62q14 6 29.5 9t27.5 -13t6 -34t-22 -24q-94 -33 -196.5 -51t-201.5 -31l-28 -6q-25 -23 -51.5 -45t-55.5 -45q-14 -20 -24.5 -41.5t-20.5 -44.5q-4 -6 -12 -30.5t-15.5 -50t-11.5 -47t2 -21.5q17 -4 36 -4q27 0 57 9q50 15 87 25q47 16 94.5 33 t94.5 37q12 4 31.5 6t17.5 -24q-2 -18 -25.5 -25.5t-38.5 -13.5l-145 -54q-25 -10 -69 -28.5t-88 -29.5q-25 -6 -48 -6q-15 0 -31 3q-36 8 -44 55q-1 8 -1 15q0 38 18 78q21 46 50 100q-94 -63 -197 -113q-12 -6 -20 -2t-12 12.5t-1 17.5zM389 440q92 85 164 183 q10 14 19.5 30.5t19.5 32.5q-20 -20 -37.5 -40.5t-30.5 -33.5q-37 -41 -71.5 -83t-63.5 -89z" />
<glyph unicode="u" horiz-adv-x="962" d="M-13 147.5q-3 8.5 0 16.5t13 12q53 16 104.5 40t102.5 46q12 6 37.5 23.5t52.5 32t50.5 19.5t35.5 -13q10 -16 3 -32t-21.5 -31t-31 -28.5t-24.5 -21.5q-31 -31 -59.5 -68t-29.5 -77q37 0 78.5 18t72.5 31q98 45 194 102q53 33 97 66q18 12 37.5 -0.5t15.5 -36.5 q-4 -18 -17.5 -35.5t-23.5 -36.5q-10 -16 -19.5 -45t-1.5 -51q23 -12 55.5 -3t53.5 15q88 31 164 70q14 6 35.5 17t31.5 -9q10 -18 -3 -27.5t-27 -15.5l-136 -64q-43 -17 -94 -41q-34 -16 -68 -16l-34 4q-37 10 -42 42t5 61l31 73q-53 -25 -103.5 -51.5t-103.5 -48.5 q-23 -12 -53.5 -29.5t-64.5 -33t-66.5 -22.5t-57.5 3q-25 8 -25.5 31.5t11.5 54.5t34.5 65.5t47.5 67.5l-49 -22q-84 -31 -121 -47.5t-58 -20.5q-12 -4 -19 2t-10 14.5z" />
<glyph unicode="v" horiz-adv-x="808" d="M-12 143q-8 23 12 33q78 33 153.5 68t151.5 67q16 8 35.5 17.5t36.5 -0.5q16 -10 18 -20.5t-4 -21t-15 -20.5t-18 -16q-23 -23 -40 -47.5t-33 -50.5q-8 -12 -14.5 -26.5t-12.5 -29.5q-14 -41 7.5 -44t55 10.5t66.5 34t41 26.5l18 14q-1 8 -1 16q-1 25 9 52q12 35 42 63 q16 16 40.5 32.5t51.5 8.5q31 -8 28.5 -34.5t-14.5 -49.5q-16 -29 -38.5 -53.5t-49.5 -46.5q25 -10 52.5 -11t56 4t56.5 12t50 15q23 4 42.5 12.5t37.5 18.5q16 8 28.5 -5t2.5 -28q-6 -12 -23.5 -21t-37 -15.5t-39 -10.5t-31.5 -6q-41 -10 -83 -17q-27 -4 -53 -4 q-15 0 -30 1q-41 2 -66 24q-29 -25 -58.5 -44t-58.5 -36q-23 -14 -55.5 -24t-60.5 -7q-30 3 -46 23q-9 10 -8 27q0 16 7 39q23 82 73 166q-29 -10 -56.5 -20.5t-55.5 -20.5q-33 -12 -61.5 -26.5t-57.5 -31.5q-12 -4 -26.5 -8t-24.5 12z" />
<glyph unicode="w" horiz-adv-x="1058" d="M-12 143q-8 23 12 33q39 16 77 33.5t79 34.5q39 16 82 30.5t77 40.5q16 12 43 14.5t35 -26.5q4 -27 -21.5 -46t-41.5 -34q-25 -23 -49.5 -48t-44.5 -54q-8 -14 -25.5 -40t-22.5 -48q78 4 154 49t129 104q6 14 15.5 30.5t21.5 32t26.5 26t30.5 10.5q25 0 34 -22.5 t-7 -39.5q-14 -23 -35.5 -41t-44.5 -37q-4 -23 -2 -47t27 -26q7 -1 13 0q30 0 58 14q34 18 82 51q-4 14 -4 28q0 26 12 52q16 33 52 65q34 30 72 29h5q14 0 26.5 -10t16.5 -20q2 -12 -13 -34t-35.5 -45.5t-40 -44t-27.5 -26.5q16 -16 45.5 -16t52.5 4q53 4 106.5 19.5 t100.5 37.5q10 6 18 2t12.5 -12t3.5 -17.5t-12 -15.5q-25 -14 -52.5 -21.5t-53.5 -15.5q-49 -16 -103 -24q-24 -4 -48 -4q-30 0 -60 6q-23 2 -43 20q-43 -40 -89 -70q-41 -26 -83 -26h-12q-45 2 -59.5 37t-14.5 76l-45 -33q-45 -31 -91 -62.5t-102 -48.5q-18 -6 -38.5 -6 t-37 7t-25.5 23.5t-3 43.5q10 33 31.5 60.5t44.5 54.5q16 20 36.5 44.5t36.5 47.5q-25 -8 -51 -17.5t-47 -19.5q-35 -16 -67.5 -31.5t-65.5 -34.5q-12 -4 -26.5 -8t-24.5 12z" />
<glyph unicode="x" horiz-adv-x="815" d="M-35.5 -36q3.5 22 23.5 28q86 35 165.5 77t161.5 87q-18 39 -24 88q-72 -16 -140.5 -47t-130.5 -64q-10 -6 -20 -2t-15 11.5t-3 16.5t14 15q66 33 130 66.5t132 56.5q10 4 25.5 9t30 8t26.5 -1t16 -18q4 -16 -1 -49q-2 -13 -2 -25q0 -20 5 -41l62 33q53 33 108.5 63.5 t108.5 65.5q16 10 36.5 21.5t39.5 -5.5q16 -12 13 -31.5t-21 -29.5q-84 -39 -164 -79t-162 -83q31 -47 84 -58q28 -6 58 -6q27 0 57 5q35 8 83 23.5t115 56.5q10 4 24.5 14t24.5 10q16 0 19.5 -11t-0.5 -22q-6 -12 -20.5 -19t-24.5 -13l-152 -76q-31 -16 -64.5 -27.5 t-65.5 -14.5q-9 -1 -17 -1q-22 0 -46 6q-32 8 -61 35q-16 16 -30.5 34.5t-28.5 39.5l-62 -33q-55 -31 -110.5 -61.5t-108.5 -65.5q-16 -10 -35.5 -23.5t-40.5 0.5q-16 14 -12.5 36z" />
<glyph unicode="y" horiz-adv-x="839" d="M-19 155.5q1 14.5 15 18.5q121 59 235 121q33 16 74 45t78 37q23 4 37 -16.5t-2 -41.5q-10 -18 -29.5 -33.5t-34.5 -31.5q-41 -49 -67 -104q-6 -10 -12.5 -24.5t-10.5 -30t-4 -28t8 -18.5q6 -6 26.5 3t45.5 22.5t45.5 27t24.5 17.5q43 29 80.5 59.5t72.5 65.5 q8 8 22.5 14t27 4t19.5 -11t5 -28q-6 -23 -22.5 -46t-26.5 -42q-16 -23 -28.5 -45t-27.5 -45l-159 -291q70 92 153 172q8 8 37 35t66 59.5t79 66.5t79.5 58.5t64.5 34.5t35 -4q6 -12 -11.5 -29.5t-43 -35t-52 -31.5t-35.5 -21q-47 -35 -91 -72.5t-85 -80.5 q-80 -80 -150.5 -173t-131.5 -192q-23 -41 -45.5 -82t-42.5 -82q-8 -12 -14.5 -26.5t-16.5 -24.5q-16 -10 -34.5 -4t-22.5 25q-6 16 3 29.5l17 25.5q29 51 56.5 100t56.5 103q57 104 111.5 206.5t107.5 211.5q12 29 26.5 56t26.5 56l-86 -65l-40.5 -36t-47.5 -35 t-50.5 -21.5t-49.5 6.5q-35 12 -40 42q-2 10 -2 20q0 24 8 51q11 40 34.5 83t48.5 82l-103 -43q-35 -16 -69.5 -33.5t-69.5 -35.5q-12 -8 -26.5 -16.5t-30.5 -0.5q-12 8 -11 22.5z" />
<glyph unicode="z" horiz-adv-x="899" d="M-18 159q2 9 14 15q41 20 85 46t90 48.5t92 39t93 20.5q16 0 28.5 -4.5t21.5 -18.5q2 -8 -0.5 -16t-5.5 -14.5t-5 -11.5t2 -7q14 -8 29.5 -8t28.5 2q66 8 127 40t114 70q20 8 32.5 2t16 -19t-3 -29.5t-20.5 -26.5q-33 -20 -66.5 -38t-66.5 -36q-76 -41 -154 -80t-153 -86 q43 6 86 6q33 0 66.5 -3t68.5 -13q10 -4 30.5 -12.5t28.5 -8.5q12 -4 27.5 0t27.5 9q96 31 181 81q8 4 29.5 21.5t46 33t45 24t30.5 -4.5q8 -10 3 -20t-15 -19.5t-22.5 -16.5t-18.5 -11q-55 -35 -110.5 -71t-112.5 -65q-37 -20 -63.5 -26t-51.5 -3t-50.5 14t-60.5 26 q-41 16 -84 18h-14q-35 0 -69 -8q-23 -6 -43.5 -13.5t-38.5 -13.5q-23 -10 -45.5 -26.5t-45.5 -20.5q-23 -6 -34 13.5t-6 37.5q12 25 40.5 39t51.5 25q74 39 147.5 79t145.5 81q-37 0 -72 12t-45 45q-47 -2 -100.5 -23.5t-94.5 -37.5q-31 -16 -60.5 -30.5t-58.5 -31.5 q-12 -6 -21 -3t-14 11.5t-3 17.5z" />
<glyph unicode="{" horiz-adv-x="360" d="M41.5 -164.5q-4.5 31.5 1.5 64t18.5 63.5t26.5 57q8 16 28.5 49t39 69t25.5 69t-9 51q-6 8 -21.5 12t-30 10.5t-21.5 14.5t3 24q6 8 19.5 11.5t29 4.5l31 2t25.5 5q29 14 50.5 39t39.5 52.5t34.5 56t35.5 53.5q41 57 93 98t120 57q20 2 36.5 -12t6.5 -37t-41 -29t-52 -14 q-51 -25 -87.5 -71t-71.5 -95t-73 -92t-89 -61q16 -25 15 -55.5t-13 -64.5t-29.5 -66.5t-31.5 -59.5q-23 -41 -44.5 -86t-19.5 -92q0 -18 15.5 -41t9.5 -39q-6 -14 -20.5 -15t-24.5 9q-20 27 -24.5 58.5z" />
<glyph unicode="|" horiz-adv-x="606" d="M21 -168.5q-4 9.5 2 21.5q94 166 178 333.5t164 341.5l73 160q10 25 19.5 46.5t19.5 43.5q8 16 15.5 38t23.5 32q18 10 29.5 6t15.5 -16.5t3 -27.5t-7 -28l-90 -180q-72 -141 -142.5 -281.5t-144.5 -281.5q-23 -39 -43 -77t-41 -77l-30 -55q-6 -10 -15.5 -12t-17.5 1 t-12 12.5z" />
<glyph unicode="}" horiz-adv-x="421" d="M-182.5 -184.5q-14.5 22.5 2.5 45.5q14 10 37 14q41 8 73 35q45 31 81 82t72 106.5t75 102.5t92 67q-20 25 -19 60q4 41 26 82t42 77q23 37 43 81t10 87q-4 16 -16 30.5t-6 29.5q4 16 17.5 16t23.5 -10q23 -29 27.5 -59.5t-1.5 -63.5t-20.5 -63.5t-28.5 -57.5 q-10 -20 -29.5 -50t-29.5 -59.5t-4 -53t45 -31.5q2 -2 10 -2h4v-2q18 -10 20.5 -26.5t-28.5 -21.5q-61 6 -115 -47q-27 -27 -47 -58.5t-39.5 -63t-39 -64.5t-42.5 -61q-16 -23 -37.5 -45.5t-47 -43t-54.5 -34t-57 -13.5q-25 -8 -39.5 14.5z" />
<glyph unicode="~" horiz-adv-x="598" d="M57 148.5q-1 19.5 15 33.5q37 29 76.5 60.5t87.5 42.5q29 6 44 -4.5t24 -29t13.5 -40t10.5 -39.5t23.5 -14t37 18t37.5 31.5t25 23.5q10 10 22 24.5t31 12.5q23 -2 32 -23.5t-8 -37.5q-14 -14 -33.5 -29.5t-43 -30t-47 -24.5t-44.5 -17q-29 -6 -45 4.5t-25 29t-13.5 42 t-10.5 41.5q-6 16 -24.5 10t-38 -21t-36.5 -32.5t-24 -23.5q-14 -16 -28.5 -31.5t-36.5 -5.5q-20 10 -21 29.5z" />
<glyph unicode="&#xa1;" horiz-adv-x="235" d="M-113 -70q6 12 18.5 20.5t24.5 18.5q18 14 35 30.5t35 33.5q33 29 60.5 61.5t56.5 65.5q29 35 52.5 70.5t47.5 72.5q8 12 20.5 37t30.5 25q16 0 22.5 -13.5t-1.5 -23.5q-47 -72 -95.5 -144.5t-103.5 -140.5q-27 -35 -55.5 -64.5t-59.5 -60.5q-10 -12 -23 -26.5t-30 -14.5 q-18 0 -30.5 17.5t-4.5 35.5zM357 551.5q-5 19.5 6.5 43t36 42t55.5 18.5q31 -2 37 -21.5t-6.5 -42t-37 -41t-55.5 -18.5t-36 19.5z" />
<glyph unicode="&#xa2;" horiz-adv-x="729" d="M-9 150.5q-3 19.5 13 25.5q53 23 101.5 51.5t99.5 53.5q18 8 34.5 16t34.5 12q18 8 42 15.5t51 11.5q10 27 19 52.5t20 49.5q6 14 14 36t24 32q18 12 29.5 7t16 -17.5t4.5 -27.5t-7 -28q-16 -29 -27 -53.5t-24 -46.5h4q14 -4 23.5 -15.5t10.5 -23.5t-6 -22.5t-26 -12.5 q-10 -4 -20 -3t-21 3q-23 -43 -38 -72.5t-27 -51t-21.5 -39t-19.5 -35.5q33 -10 72 -9.5t76.5 8t73.5 18.5t65 21q47 14 86 35t67 35q14 10 27.5 -3t3.5 -30q-6 -16 -27.5 -24t-38.5 -13q-84 -41 -176 -75.5t-188 -34.5q-37 0 -74 10l-22.5 -40.5t-28.5 -55.5l-29 -55 q-6 -10 -15 -12.5t-17.5 0.5t-13.5 12.5t1 21.5q23 41 43.5 78t38.5 74q-43 29 -62.5 75t7.5 105v2q-23 -12 -44.5 -26.5t-43.5 -24.5q-12 -8 -29.5 -20.5t-34.5 -8.5q-18 0 -21 19.5zM212.5 194q-18.5 -38 12.5 -79q12 -16 27 -25q23 47 45 92t41 86q-35 -4 -66 -18 q-41 -18 -59.5 -56z" />
<glyph unicode="&#xa3;" horiz-adv-x="864" d="M-14 -76q0 31 27.5 49.5t52.5 18.5q33 0 64.5 -16.5t64.5 -34.5q23 14 46 37.5t43.5 51t38 54.5t29.5 49h-47q-45 0 -45 29q0 26 35 26q16 -2 43 -2h43q72 131 136.5 234.5t141.5 208.5q2 4 12.5 19.5t26 32.5t34 30.5t34.5 13.5q25 0 25 -33q0 -27 -19 -41 q-90 -78 -166 -194.5t-153 -263.5q29 0 57.5 9t58.5 9q45 0 45 -37q0 -27 -20 -31q-14 -6 -30.5 -7t-33.5 -1q-41 -2 -66.5 -2h-45.5l-39 -63q-23 -37 -53.5 -84t-67.5 -82q8 -6 24.5 -10.5t34 -7.5t33 -5t21.5 -2q45 -2 90 9.5t89 30t86 40t81 39.5q20 10 45.5 25.5 t50.5 30t43 23.5t29 9q8 0 15 -9t7 -20q0 -8 -6 -16t-12 -12q-35 -18 -56.5 -29.5t-36 -19t-22.5 -12.5t-16 -9q-59 -31 -108.5 -58.5t-94.5 -48t-89 -33t-89 -12.5q-53 0 -94 19.5t-78 42.5q-31 -14 -54.5 -22.5t-54.5 -8.5q-39 0 -74.5 21.5t-35.5 64.5zM57 -82 q6 -6 25 -6q12 0 29 4q-16 8 -39 8q-14 0 -15 -6z" />
<glyph unicode="&#xa4;" horiz-adv-x="505" d="M-1.5 16.5q-4.5 20.5 11.5 32.5q23 27 55.5 47.5t67.5 36.5q-4 29 6.5 59.5t28.5 59.5q-33 16 -61.5 37.5t-49.5 46.5q-14 16 -9 35.5t22 29.5q29 6 45 -17.5t30 -41.5q25 -29 56 -49q31 27 68.5 33t78.5 -23l4 -6q12 12 23.5 24.5t21.5 24.5q14 18 27.5 44t42.5 20 q20 -4 26.5 -24.5t-6.5 -37.5q-18 -29 -45.5 -52.5t-58.5 -41.5q10 -29 2 -58.5t-29 -58.5q29 -20 51.5 -42.5t38.5 -47.5q12 -16 5 -36.5t-23 -24.5q-29 -4 -44 21.5t-26 45.5q-16 27 -36 47q-31 -25 -66 -34.5t-70 4.5q-16 6 -30 16q-35 -25 -58 -47q-8 -8 -15 -19.5 t-16.5 -19.5t-20.5 -12t-23 0q-20 8 -24.5 28.5zM185.5 149.5q-4.5 -28.5 15.5 -36.5q20 -6 46.5 8t46 36.5t25 46t-13.5 38.5q-25 20 -51.5 5.5t-45 -42t-23 -56z" />
<glyph unicode="&#xa5;" horiz-adv-x="1019" d="M-2 -16q0 35 10 39t31 -3q10 -4 28.5 -16t32.5 -24l33 -21q41 -29 89 -50.5t97 -21.5q20 0 45 6.5t46 16.5l41 29h-119q-10 0 -19.5 2t-19.5 18q-6 14 4.5 28.5t26.5 10.5q47 -6 94 -3t94 9l25 35h-58h-71.5t-42 2t-21.5 6t-8 12q-4 4 -2 14.5t10 16.5q-31 4 -41 22.5 t-10 45.5q0 33 15.5 72.5t27.5 64.5v-2q23 37 42 65.5t38 57.5q10 16 30.5 46t40 62.5t32.5 63t7 49.5q0 2 -10 -2t-24.5 -10.5t-27.5 -13.5t-20 -11q-51 -29 -103 -75t-103 -95l-64 -70q-12 -23 -31 -32q-16 -8 -29.5 -4t-22.5 15t-10 25.5t9 26.5q59 47 114.5 94t110.5 95 q51 51 100.5 85.5t102.5 39.5q51 6 68.5 -27t13.5 -74q-10 -39 -32.5 -74.5t-47.5 -70.5q-10 -14 -44 -60.5t-65.5 -97.5t-52 -91t-4.5 -42q20 -4 48 5t55.5 24.5t51 31t36.5 25.5q70 47 129 100.5t114 112.5l37 39q27 43 45.5 71.5t29.5 48t18.5 32t15.5 22.5 q20 27 46 55.5t60 38.5q20 4 30.5 -4t12.5 -21.5t-5 -30t-21 -30.5l-60 -70l-108 -126q-14 -20 -28.5 -44t-26.5 -42l-113 -177q-8 -10 -18.5 -27.5t-19.5 -33.5t-17.5 -29.5t-10.5 -15.5h21q27 -6 30 -29.5t-20 -40.5q-29 -12 -76 -12q-4 -4 -6 -9t-6 -9h33 q18 -4 26.5 -22.5t-2.5 -35.5q78 35 144.5 64.5t124.5 60.5q12 6 24.5 3t19.5 -11t6 -18.5t-13 -16.5l-74 -35l-174 -86l-45 -22q-57 -27 -121 -52.5t-127 -35.5q-18 -2 -40 -2h-38q-63 0 -124.5 15t-119.5 52l-16 10q-23 16 -53.5 40t-30.5 53zM397 94q41 -4 85 0t85 12 l13 3l22 36q45 72 59.5 98.5t22.5 37.5q-43 -39 -82 -70q-41 -33 -93 -69t-112 -48zM504 -96l90 35h-57z" />
<glyph unicode="&#xa6;" horiz-adv-x="606" d="M20.5 -169q-4.5 9 2.5 22q59 104 117.5 217.5t127.5 257.5l54 -13l-142 -276q-23 -39 -43 -77t-41 -77l-30 -55q-6 -10 -15.5 -12t-17.5 1t-12.5 12zM295 383l143 305q10 25 19.5 46.5t19.5 43.5q8 16 15.5 38t23.5 32q18 10 29.5 6t15.5 -16.5t3 -27.5t-7 -28l-201 -401 z" />
<glyph unicode="&#xa7;" horiz-adv-x="507" d="M29 35q-2 18 8 29.5t24.5 14.5t25.5 -5t13 -27q4 -41 37 -48t74 3q29 10 52.5 25.5t33.5 29.5q27 29 14.5 45.5t-42 26.5t-62.5 17.5t-45 17.5q-8 6 -16.5 19.5t-8.5 30.5t15.5 37.5t52.5 43.5q-8 8 -14.5 23.5t0 34t28 39t68.5 42.5q14 4 26.5 -1t18.5 -13 q12 -20 3 -31.5t-26.5 -20t-36 -13.5t-26.5 -13q-10 -12 5 -22.5t37.5 -16.5t46 -11t30.5 -9q41 -23 48 -48.5t-10 -52.5q-23 -35 -51 -55q20 -31 0 -68q-16 -27 -42.5 -48t-57.5 -36.5t-62.5 -24.5t-56.5 -9q-41 0 -72.5 28.5t-31.5 65.5zM195 219q0 -14 15 -23.5 t35.5 -16.5t40 -11t25.5 -8l8 -6q23 18 29 26q20 20 16 35.5t-20 25t-42 16.5t-48 13q-20 -10 -39.5 -22t-19.5 -29z" />
<glyph unicode="&#xa8;" horiz-adv-x="403" d="M10.5 611q-2.5 7 1.5 14.5t11.5 13.5t13.5 10q16 10 27.5 27.5t19.5 34.5q8 16 9 37.5t13 37.5q10 14 24.5 16.5t26 -6t16.5 -23t-3 -28.5q-16 -35 -41 -67.5t-53 -59.5q-10 -6 -22.5 -16t-28.5 -4q-12 6 -14.5 13zM163 618.5q-1 10.5 9 18.5q27 20 46.5 49t35.5 59 q6 10 12 24.5t13.5 29t17.5 23.5t25 9q23 -4 31.5 -23.5t-5.5 -35.5l-61 -76q-16 -23 -38 -53.5t-44 -42.5q-8 -10 -18.5 -8t-16.5 9t-7 17.5z" />
<glyph unicode="&#xa9;" horiz-adv-x="997" d="M49 -37q0 98 34 180t89 149.5t128 123t153 100.5q78 43 175 59.5t183 -12.5q92 -29 133 -108.5t14 -171.5q-12 -43 -35.5 -80t-52.5 -72q4 -12 0 -22q-10 -16 -43 -31l-28 -31q-37 -41 -81 -80t-84 -71.5t-71 -54t-39 -27.5q-59 -37 -132 -68t-144 -27q-49 2 -87 23.5 t-62.5 55.5t-37 77t-12.5 88zM115 -84q20 -72 60 -101.5t93.5 -30.5t113.5 22.5t120.5 60.5t117 81t101.5 85q-68 -29 -138.5 -50.5t-142.5 -21.5q-43 0 -83 15.5t-66.5 45t-34.5 68.5t12 86q25 41 64 66.5t80 41t76.5 19.5t54.5 2q14 -4 23 -15t10.5 -23.5t-6 -23 t-25.5 -12.5q-12 -2 -27.5 0t-30.5 5q-29 2 -57.5 -2.5t-52.5 -16.5q-41 -18 -60.5 -57t13.5 -78q29 -37 75 -48t96 -7t99 18t86 27q35 10 65.5 25.5t57.5 27.5q29 35 49.5 73t36.5 81q14 49 4 96t-49 84q-41 41 -100.5 47t-112.5 2q-100 -6 -205.5 -58.5t-185.5 -134.5 t-120 -185t-11 -214z" />
<glyph unicode="&#xaa;" horiz-adv-x="901" d="M112 388q1 9 13 15q25 12 62.5 32t80.5 38.5t83 34.5t67 27q14 6 51 18t78 22.5t76.5 14.5t52.5 -6q25 -23 9.5 -41.5t-38.5 -22.5l-92 -10q-29 -8 -48.5 -19.5t-43.5 -27.5q-10 -8 -36 -34t-50.5 -55.5t-38.5 -57t0 -40.5q12 -10 40 -3.5t56.5 18.5t53 25.5t32.5 19.5 q59 37 96 78q18 20 40 4.5t14 -41.5q-4 -14 -15 -25l-19 -19t-15 -26q-8 -14 -4 -21t14 -10q29 -4 71.5 4.5t89 22.5t91.5 33.5t78 36.5q8 2 22 11t29.5 15.5t30 6.5t20.5 -13q8 -12 -1 -22.5t-25.5 -17.5t-33 -13t-24.5 -10q-35 -16 -70 -31.5t-71 -32.5 q-25 -10 -53.5 -24.5t-59.5 -24.5t-62.5 -14t-58.5 6q-35 14 -41 39.5t2 54.5l-55 -33q-35 -20 -73 -41.5t-79 -25.5q-37 -2 -65.5 16.5t-30.5 56.5q0 20 16.5 52t42 66t56.5 62.5t57 43.5q-14 -4 -46 -18.5t-72 -35t-84 -42t-80 -39.5q-10 -6 -20.5 -3t-15.5 10t-4 16z" />
<glyph unicode="&#xab;" horiz-adv-x="808" d="M115 259.5q0 21.5 41 31.5q49 10 97 28.5t95 40.5q41 23 80 47.5t74 59.5q14 14 29.5 11t24.5 -14t8 -27.5t-19 -26.5q-86 -51 -175 -90t-175 -87q12 -31 28.5 -61.5t38.5 -52.5q35 -35 72 -43q18 -4 27.5 -20.5t-1.5 -32.5q-10 -16 -25.5 -18.5t-33.5 2.5t-34.5 15.5 t-24.5 16.5q-41 33 -66.5 77t-48.5 91q-12 31 -12 52.5zM336 259.5q0 21.5 41 31.5q49 10 97 28.5t95 40.5q41 23 80 47.5t74 59.5q14 14 29.5 11t24.5 -14t8 -27.5t-19 -26.5q-86 -51 -175 -90t-175 -87q12 -31 28.5 -61.5t38.5 -52.5q35 -35 72 -43q18 -4 27.5 -20.5 t-0.5 -32.5t-25.5 -18.5t-34 2.5t-35 15.5t-24.5 16.5q-41 33 -66.5 77t-48.5 91q-12 31 -12 52.5z" />
<glyph unicode="&#xac;" horiz-adv-x="696" d="M98 168q-8 12 0 24.5t25 8.5q72 -6 145.5 -2t145.5 14q31 4 70.5 15.5t72.5 7.5q27 -4 29 -23.5t-17 -44.5q-23 -35 -49 -62.5t-51 -52.5l-55 -61q-16 -16 -27.5 -17.5t-19 4t-8 14.5t7.5 15q18 14 36.5 37t34 44.5t28.5 41t23 31.5l-51 -6q-41 -6 -78.5 -6h-76.5 q-35 0 -72 1t-74 1q-10 0 -21.5 2t-17.5 14z" />
<glyph unicode="&#xad;" horiz-adv-x="696" d="M98 168q-8 12 0.5 24.5t24.5 8.5q72 -6 145.5 -2t145.5 14q31 4 70.5 15.5t72.5 7.5q27 -4 32 -30t-20 -38q-12 -8 -28.5 -10t-35 -2h-35.5h-32q-80 -6 -155 -6q-35 0 -72 1t-74 1q-10 0 -21.5 2t-17.5 14z" />
<glyph unicode="&#xae;" horiz-adv-x="997" d="M49 -37q0 98 34 180t89 149.5t128 123t153 100.5q78 43 175 59.5t183 -12.5q92 -29 133 -108.5t14 -171.5q-20 -68 -66 -126.5t-93 -109.5q-37 -41 -81 -80t-84 -71.5t-71 -54t-39 -27.5q-59 -37 -132 -68t-144 -27q-49 2 -87 23.5t-62.5 55.5t-37 77t-12.5 88zM103 17.5 q-2 -48.5 12 -101.5q20 -72 61 -102.5t94.5 -30.5t114.5 24.5t121.5 61.5t118 82t100.5 86q-25 -12 -56.5 -30.5t-65.5 -29t-63.5 -8.5t-47.5 27q-10 14 -12.5 31.5t0.5 35t7.5 35t8.5 33.5l18 68q-10 -2 -42 -10.5t-68.5 -11.5t-71.5 1t-49 27q-4 2 -22.5 -9.5t-43 -26.5 t-51.5 -31.5t-45 -24.5q-16 -47 -18 -95.5zM145 176l115 70q-4 39 23.5 73.5t70.5 32.5q29 -4 37 -29.5t-8 -48.5t-43 -38q6 -4 16.5 -7.5t16.5 -3.5q45 -2 92 17.5t84 42.5q37 10 47 -10.5t-8 -49.5q-10 -16 -23.5 -40.5t-23 -51.5t-11.5 -52.5t15 -39.5q12 -10 55 2 t117 41l92 41q29 35 49.5 73t36.5 81q14 49 4 96t-49 84q-41 41 -100.5 47t-112.5 2q-70 -6 -142.5 -32.5t-139 -71t-122 -102.5t-88.5 -126z" />
<glyph unicode="&#xaf;" horiz-adv-x="704" d="M102 692q-6 14 2.5 25.5t22.5 9.5q72 -8 145.5 -3t145.5 15q31 4 70.5 15.5t74.5 7.5q27 -4 31 -29.5t-19 -40.5q-25 -14 -64.5 -11t-68.5 -1q-39 -2 -76.5 -3t-78.5 -1q-35 0 -71 1t-73 1q-12 0 -23 2t-18 12z" />
<glyph unicode="&#xb0;" horiz-adv-x="376" d="M125 330q6 35 26.5 70.5t50 57t65.5 24.5t73 -23q43 -35 40 -81t-34 -86t-78 -61.5t-92 -5.5q-35 10 -46 40t-5 65zM175 307q-5 -29 18 -37q20 -6 45.5 8.5t45 36t24.5 45t-13 37.5q-25 20 -51.5 7t-45 -40.5t-23.5 -56.5z" />
<glyph unicode="&#xb1;" horiz-adv-x="686" d="M-20 -133q-6 14 2 25.5t22 9.5q72 -8 145.5 -3t145.5 15q31 4 71 15.5t74 7.5q27 -4 31 -30t-18 -40q-25 -14 -65 -12t-69 0q-39 -2 -76.5 -3.5t-78.5 -1.5q-35 0 -71 1.5t-73 1.5q-12 0 -23 2t-17 12zM96 168q-8 12 0 24.5t25 8.5q92 -10 188 0l15 45q10 25 15 58.5 t21 55.5q14 16 38 12.5t28 -26.5t-13.5 -51.5t-27.5 -50.5l-18 -37l43 6q33 4 72.5 15.5t72.5 7.5q27 -4 32 -30t-20 -38q-12 -8 -28.5 -10t-35 -2h-36.5h-33q-47 -6 -92 -6q-8 -8 -12 -23q-10 -25 -25.5 -51.5t-30.5 -55.5q-4 -8 -10 -15t-18 -7q-12 -2 -19.5 8.5 t-1.5 20.5q37 53 66 123h-10q-35 0 -72 1t-74 1q-10 0 -22.5 2t-16.5 14z" />
<glyph unicode="&#xb2;" horiz-adv-x="636" d="M23 188q-8 25 13 41.5t38 28.5q37 25 78 40t81 26q39 27 76 53t72 53q74 53 148.5 115.5t119.5 144.5q16 27 20.5 43.5t-30.5 18.5q-47 2 -93 -14.5t-83 -45.5q-16 -10 -29.5 -23.5l-27.5 -27.5q-12 -18 -19.5 -37.5t-17.5 -38.5q-10 -16 -24.5 -17t-26 6t-16.5 21.5 t5 30.5q23 39 57.5 74t77.5 63.5t89.5 48t91.5 25.5q33 6 66.5 -3t45.5 -46q16 -37 -4 -73t-43 -64q-68 -78 -151.5 -142.5t-167.5 -123.5l-35 -25q92 8 185 -5t177 -48q12 -10 16.5 -24.5t-0.5 -27t-16.5 -18.5t-29.5 0q-23 10 -40.5 22.5t-39.5 22.5q-27 10 -53.5 16.5 t-53.5 10.5q-55 8 -117.5 5t-121.5 -20l-35 -24q-14 -10 -30.5 -23.5t-35 -26t-37 -22.5t-32.5 -12q-35 -10 -47 22z" />
<glyph unicode="&#xb3;" horiz-adv-x="569" d="M156 381q0 12 5 34.5t14 44t23.5 38t32.5 16.5q33 0 35 -17.5t-8 -40t-25.5 -45t-17.5 -30.5q-16 -47 10.5 -90t67.5 -66q47 -23 101.5 -17.5t101.5 23.5q47 16 79.5 54.5t18.5 91.5q-10 31 -30.5 54.5t-49.5 35.5q-10 -2 -19.5 -3t-19.5 -1q-25 -2 -49.5 -1t-46.5 11 q-23 10 -28 36t24 36q14 6 33.5 6t40 -4t40 -10.5t33.5 -12.5q33 6 64.5 17.5t62.5 29.5q23 14 45.5 36t32.5 46.5t5 50t-38 44.5q-29 16 -60.5 17t-63 -10.5t-58.5 -29.5t-45 -43q-6 -10 -10 -22.5t-8.5 -25.5t-11.5 -23.5t-21 -12.5q-23 -6 -37 16.5t0 42.5q23 37 59.5 72 t80.5 57.5t92 31.5t94 -3q41 -12 71.5 -47t32.5 -80q0 -29 -12.5 -53.5t-32 -45t-44 -35.5t-46.5 -28q-23 -12 -46.5 -21t-49.5 -20q27 -25 45 -55.5t22 -64.5q6 -49 -13.5 -91.5t-55 -72t-80.5 -46t-90 -16.5q-47 0 -93.5 18.5t-83 51.5t-57 77t-16.5 95z" />
<glyph unicode="&#xb4;" horiz-adv-x="413" d="M25 639q-16 16 2 30.5t48.5 25t61.5 16.5t37 10q14 6 34.5 14t40 18.5t36 20.5t20.5 21q6 16 20.5 19t27 -2t19.5 -18.5t-1 -29.5q-14 -31 -57.5 -48.5t-75.5 -27.5q-29 -10 -55.5 -17t-55.5 -16q-8 -2 -21.5 -7t-29 -9t-29.5 -5t-22 5z" />
<glyph unicode="&#xb5;" horiz-adv-x="962" d="M-205 -442.5q2 12.5 8 20.5l95 137q72 106 144.5 212t145.5 216l9 11q10 16 22 33.5t25 33.5l47 64q8 14 21.5 27.5t25.5 21.5t24.5 6t20.5 -16q8 -16 1 -33t-20.5 -31t-30 -27.5t-24.5 -21.5q-31 -31 -59.5 -68t-28.5 -77q37 0 78 18t72 31q98 45 194 102q53 33 97 66 q18 12 37.5 -0.5t15.5 -36.5q-4 -18 -17.5 -35.5t-23.5 -36.5q-10 -16 -19.5 -45t-1.5 -51q23 -12 55.5 -3t53.5 15q88 31 164 70q14 6 35.5 17t31.5 -9q10 -18 -3 -27.5t-27 -15.5l-136 -64q-43 -18 -94 -41.5t-102 -11.5q-37 10 -42 42t5 61l31 73q-53 -25 -103.5 -51.5 t-103.5 -48.5q-23 -12 -53.5 -29.5t-64.5 -33t-66.5 -22.5t-57.5 3q-12 2 -20 14q-43 -61 -83 -123.5t-81 -128.5l-76 -120q-10 -20 -20.5 -37t-20.5 -35q-10 -10 -18.5 -26.5t-24.5 -24.5q-16 -6 -24.5 -1t-11.5 15t-1 22.5z" />
<glyph unicode="&#xb6;" horiz-adv-x="606" d="M-4 -169q-4 9 2 22q94 166 178 333.5t164 341.5l20 47q-57 12 -69 57.5t12.5 95.5t78.5 91t132 41h145.5t67.5 -8q16 -6 18.5 -29.5t-6.5 -40.5l-90 -180q-72 -141 -143.5 -281.5t-145.5 -281.5q-23 -39 -42 -77t-39 -77l-31 -55q-6 -10 -15.5 -12t-17.5 1t-12 12.5 t2 21.5q94 166 178 333.5t162 341.5l73 160q10 25 20.5 46.5t20.5 43.5v2l3 2h-130l-90 -180q-72 -141 -142.5 -281.5t-143.5 -281.5q-23 -39 -43.5 -77t-40.5 -77l-31 -55q-6 -10 -15.5 -12t-17.5 1t-12 12z" />
<glyph unicode="&#xb7;" horiz-adv-x="321" d="M100 138.5q-6 19.5 6.5 43t38 42t54.5 18.5q31 0 37 -19.5t-6.5 -43t-37 -43t-55.5 -17.5q-31 0 -37 19.5z" />
<glyph unicode="&#xb8;" horiz-adv-x="475" d="M6 -272.5q-12 24.5 6 41.5q16 16 48 13t53 -1q27 0 64.5 2t75.5 8t70.5 18.5t53.5 34.5q10 12 -10.5 20.5t-51 14.5t-58.5 9t-32 3q-25 10 -25.5 24.5t8.5 30t24.5 29t25.5 21.5l51 45q8 8 19.5 9t18.5 -3t10 -12t-5 -21l-53 -65q43 -10 85 -30.5t46 -57.5 q2 -18 -6 -33.5t-22.5 -27t-30 -19.5t-29.5 -14q-72 -27 -147.5 -38.5t-149.5 -21.5q-27 -4 -39 20.5z" />
<glyph unicode="&#xb9;" horiz-adv-x="305" d="M154 238q4 14 13 29.5t17 31.5q25 51 48.5 101.5t50.5 99.5q27 53 51 108.5t45 110.5q4 8 7 21.5t9 25.5t14.5 20.5t22.5 8.5q23 0 33 -20t0 -38q-66 -113 -127.5 -231.5t-101.5 -241.5q-6 -20 -12.5 -50t-33.5 -32q-23 -2 -35 15.5t-1 40.5z" />
<glyph unicode="&#xba;" horiz-adv-x="802" d="M227 363.5q19 50.5 47 89.5q59 84 139.5 151.5t172.5 108.5q-10 10 -22.5 19t-26.5 18q-33 12 -62 10q-16 -2 -32.5 -8.5t-32.5 6.5q-23 14 -15 34.5t31 30.5q70 12 124 -13.5t89 -74.5q25 8 51.5 11.5t48.5 -5.5q18 -6 25.5 -19t5.5 -26.5t-14.5 -21.5t-30.5 -2 q-29 6 -53 4q29 -72 27.5 -153t-35.5 -144q-16 -37 -49 -71t-74 -61.5t-86 -44t-86 -16.5q-43 0 -81 19.5t-57 60.5q-23 47 -4 97.5zM287 324q0 -35 23.5 -49.5t55 -14.5t64.5 8t51 17q66 29 112 81t54 126q4 39 -3 86t-28 88q-47 -16 -88.5 -45t-72.5 -54 q-27 -20 -57.5 -46.5t-55.5 -58.5t-41 -67t-14 -71z" />
<glyph unicode="&#xbb;" horiz-adv-x="825" d="M53 2q-6 20 8.5 34.5t36 25t44 17.5t34.5 11q84 37 160 85t129 124q-29 33 -74 51.5t-80 30.5q-18 8 -33.5 18.5t-7.5 32.5q4 16 17.5 22.5t29.5 2.5q12 -4 57.5 -23.5t90.5 -45.5t71.5 -55.5t0.5 -53.5q-80 -78 -166 -134.5t-185 -111.5q-10 -6 -29.5 -21.5t-40 -25 t-38 -9.5t-25.5 25zM274 2q-6 20 8.5 34.5t36 25t44 17.5t34.5 11q84 37 160 85t129 124q-29 33 -74 51.5t-80 30.5q-18 8 -33.5 18.5t-6.5 32.5q4 16 17.5 22.5t29.5 2.5q12 -4 57 -23.5t90 -45.5t71.5 -55.5t0.5 -53.5q-80 -78 -166 -134.5t-184 -111.5q-10 -6 -30 -21.5 t-40.5 -25t-37.5 -9.5t-26 25z" />
<glyph unicode="&#xbc;" horiz-adv-x="1091" d="M46 -144.5q-1 9.5 9 17.5q135 98 258 206.5t244 223.5l119 107q10 12 24.5 29.5t31 35t32.5 29.5t33 14q29 4 39 -20.5t-11 -42.5l-137 -119q-111 -94 -219.5 -185.5t-218.5 -183.5l-121 -100l-41 -31q-10 -8 -19.5 -6t-15.5 9t-7 16.5zM119 102q4 14 13 29.5t18 32.5 q25 51 48 101t50 100q27 53 51.5 108t44.5 111q4 8 7 21t9.5 25.5t14.5 20.5t22 8q23 0 33 -19.5t0 -37.5q-66 -113 -127 -231.5t-102 -241.5q-6 -20 -12.5 -50t-32.5 -32q-23 -2 -35 15.5t-2 39.5zM504 -446.5q4 16.5 13 33t13 26.5q53 98 109.5 195.5t118.5 191.5 q-45 -35 -93.5 -52.5t-89.5 13.5q-33 25 -31.5 60.5t19 74.5t43 74t41.5 55q12 16 27.5 36t38.5 24q16 4 26.5 -3.5t13.5 -19.5t-1 -25.5t-17 -21.5q-6 -4 -32.5 -31.5t-54 -62.5t-44 -68t-0.5 -49q20 -18 54 -5t70 38.5t66.5 55.5t43.5 42q31 31 59.5 63.5t56.5 61.5 q18 10 42 4t20 -37q-4 -18 -22.5 -31.5t-32.5 -25.5l-62 -68q-29 -35 -56.5 -71.5t-49.5 -75.5q-53 -76 -97.5 -156t-83.5 -164q-6 -12 -12 -32.5t-15.5 -42t-21.5 -35.5t-28 -14q-25 0 -30 13t-1 29.5z" />
<glyph unicode="&#xbd;" horiz-adv-x="995" d="M34 -144.5q-1 9.5 9 17.5q135 98 258 206.5t244 223.5l119 107q10 12 24 29.5t30.5 35t33 29.5t32.5 14q29 4 39.5 -20.5t-10.5 -42.5l-137 -119q-111 -94 -219.5 -185.5t-218.5 -183.5l-121 -100l-41 -31q-10 -8 -19.5 -6t-15.5 9t-7 16.5zM117 121q4 14 13 29.5 t17 31.5q25 51 48.5 101.5t50.5 99.5q27 53 51.5 108.5t44.5 110.5q4 8 7 21.5t9.5 26t14.5 20.5t22 8q23 0 33 -19.5t0 -37.5q-66 -113 -127 -232t-102 -242q-6 -20 -12.5 -49.5t-32.5 -31.5q-23 -2 -35.5 15t-1.5 40zM199 -373q-8 25 13 41.5t38 28.5q37 25 78 40t82 25 q39 27 75.5 53.5t71.5 53.5q74 53 148.5 115.5t119.5 144.5q16 27 20.5 43t-30.5 18q-47 2 -93 -14t-83 -45q-16 -10 -29.5 -23.5l-27.5 -27.5q-12 -18 -19.5 -37.5t-17.5 -38.5q-10 -16 -24.5 -17t-26 6t-16.5 21.5t5 30.5q23 39 57.5 74t78 63.5t89.5 48t91 25.5 q33 6 66.5 -3t45.5 -46q16 -37 -4 -73t-43 -64q-68 -78 -151.5 -142.5t-167.5 -124.5l-35 -24q92 8 185 -5.5t177 -47.5q12 -10 16.5 -24.5t-0.5 -27t-16.5 -18.5t-29.5 0q-23 10 -40.5 22.5t-39.5 22.5q-27 10 -53.5 16.5t-53.5 10.5q-55 8 -117.5 5t-121.5 -20l-35 -24 q-14 -10 -30.5 -23.5t-35 -26t-37 -22.5t-32.5 -12q-35 -10 -47 22z" />
<glyph unicode="&#xbe;" horiz-adv-x="1245" d="M27 338q0 12 5 34.5t14 44t23.5 38t32.5 16.5q33 0 35 -17.5t-8 -40t-25.5 -45t-17.5 -30.5q-16 -47 10.5 -90t67.5 -66q47 -23 101 -17.5t102 23.5q47 16 79.5 54.5t18.5 91.5q-10 31 -30.5 54.5t-49.5 35.5q-10 -2 -19.5 -3t-19.5 -1q-25 -2 -49.5 -1t-46.5 11 q-23 10 -28 36t24 36q14 6 33.5 6t40 -4t40 -10.5t33.5 -12.5q33 6 64.5 17.5t62.5 29.5q23 14 45.5 36t32.5 46.5t5 50t-38 44.5q-29 16 -60.5 17t-63 -10.5t-58.5 -29.5t-45 -43q-6 -10 -10 -22.5t-8.5 -25.5t-11.5 -23.5t-21 -12.5q-23 -6 -37 16.5t0 42.5q23 37 59.5 72 t80.5 57.5t92 31.5t93 -3q41 -12 72 -47t33 -80q0 -29 -12.5 -53.5t-32 -45t-44 -35.5t-46.5 -28q-23 -12 -46.5 -21t-49.5 -20q27 -25 45 -55.5t22 -64.5q6 -49 -13.5 -91.5t-55 -72t-80.5 -46t-91 -16.5q-47 0 -93 18.5t-83 51.5t-57 77t-16 95zM230.5 -144.5 q-0.5 9.5 9.5 17.5q135 98 258 206.5t243 223.5l119 107q10 12 24.5 29.5t31 35t33 29.5t32.5 14q29 4 39 -20.5t-10 -42.5l-138 -119q-111 -94 -219 -185.5t-219 -183.5l-121 -100l-41 -31q-10 -8 -19 -6t-15.5 9t-7 16.5zM666 -495.5q4 16.5 13 33t13 26.5 q53 98 109.5 195.5t118.5 191.5q-45 -35 -93.5 -52.5t-89.5 13.5q-33 25 -31.5 60.5t18.5 74.5t43 74t42 55q12 16 27.5 35.5t37.5 24.5q16 4 26.5 -3.5t14 -19.5t-1 -25.5t-16.5 -21.5q-6 -4 -32.5 -32t-54.5 -62.5t-44 -67.5t0 -49q20 -18 54 -5t70 38.5t66.5 55.5 t42.5 42q31 31 59.5 63.5t57.5 61.5q18 10 42 4t20 -37q-4 -18 -22.5 -31.5t-33.5 -25.5l-61 -68q-29 -35 -56.5 -71.5t-50.5 -75.5q-53 -76 -97 -156t-83 -164q-6 -12 -12 -32.5t-15.5 -42t-21.5 -36t-29 -14.5q-25 0 -29.5 13.5t-0.5 30z" />
<glyph unicode="&#xbf;" horiz-adv-x="643" d="M9 16q3 41 23.5 80t55.5 68q39 31 84 44t91 19t93 11.5t90 21.5q16 6 32 15.5t26 23.5q14 18 15 37.5t9 38.5q6 16 18.5 21t24 0t19.5 -16t6 -26q-10 -49 -35.5 -79.5t-59.5 -49t-76 -25.5t-87 -12q-37 -4 -85 -12t-89 -27.5t-67.5 -52.5t-22.5 -86q4 -47 38.5 -70.5 t81 -27.5t92.5 7t72 34q12 10 20.5 23.5t18.5 27.5q10 18 12.5 42t12.5 40q10 14 24.5 16t25.5 -6t16 -22.5t-3 -30.5q-12 -33 -38.5 -71t-59.5 -58q-29 -23 -65.5 -39t-78.5 -23.5t-83 -3t-76 26.5q-43 25 -60.5 62.5t-14.5 78.5zM637 545.5q-6 19.5 6 43t37 42t55 18.5 q31 -2 36 -21.5t-7 -42t-36.5 -41t-53.5 -18.5q-31 0 -37 19.5z" />
<glyph unicode="&#xc0;" horiz-adv-x="1495" d="M4 36q2 9 12 15q72 35 150 58.5t156 42.5l51 79q68 96 137.5 186.5t144.5 180.5q74 86 153 169t167 155q43 35 88 65.5t92 54.5q12 6 40 18.5t56.5 19.5t53 5t32.5 -24q4 -14 -3 -29.5t-11 -27.5l-47 -97l-39 -80q-41 -80 -79 -159.5t-75 -163.5q-33 -74 -63.5 -147.5 t-56.5 -151.5q16 0 31.5 -2t27.5 -6q25 -10 23.5 -36t-25.5 -34q-18 -4 -38.5 -2t-43.5 6l-8 -43q-12 -43 -23.5 -91t-18.5 -96t-9 -95.5t6 -90.5q57 57 108 110.5t113 100.5q92 72 189.5 133.5t199.5 116.5q10 6 18.5 3t13.5 -11t4 -17.5t-11 -15.5l-84 -45 q-53 -31 -105.5 -62.5t-101.5 -68.5q-158 -115 -285 -270q-10 -16 -21.5 -28.5t-33.5 -16.5q-29 -4 -45.5 8t-25.5 32.5t-11 45t0 45.5q2 90 26.5 182t53.5 178q-35 2 -70 3t-69 1q-74 4 -148 0t-145 -14l-95 -14l-28 -54q-25 -47 -51.5 -98t-32.5 -104q-2 -16 -7 -33 t-28 -19q-18 0 -29.5 12.5t-9.5 28.5q2 51 27.5 100.5t48.5 92.5q8 16 16 28.5t19 28.5q-29 -6 -54.5 -13t-54.5 -18q-37 -10 -70.5 -24t-68.5 -31q-10 -6 -19.5 -2t-12.5 12.5t-1 17.5zM395 168l170 25q76 6 152 9t153 -1h41q0 6 2 8q53 141 111.5 276.5t118.5 272.5 q29 61 55.5 123.5t50.5 128.5q-47 -8 -94 -32t-90 -54.5t-81 -63.5t-71 -61q-172 -158 -319 -348q-104 -139 -199 -283zM1085 1300q-2 14 6.5 23.5t20.5 12.5t24.5 -1t18.5 -18q6 -10 23.5 -22.5t39 -23.5t44 -21.5t38.5 -16.5q29 -10 62 -16.5t55 -22.5q16 -4 19.5 -16.5 t-6.5 -22.5q-10 -14 -27 -8t-29 10q-63 20 -129.5 41t-122.5 57q-10 8 -21 18.5t-16 26.5z" />
<glyph unicode="&#xc1;" horiz-adv-x="1495" d="M4 36q2 9 12 15q72 35 150 58.5t156 42.5l51 79q68 96 137.5 186.5t144.5 180.5q74 86 153 169t167 155q43 35 88 65.5t92 54.5q12 6 40 18.5t56.5 19.5t53 5t32.5 -24q4 -14 -3 -29.5t-11 -27.5l-47 -97l-39 -80q-41 -80 -79 -159.5t-75 -163.5q-33 -74 -63.5 -147.5 t-56.5 -151.5q16 0 31.5 -2t27.5 -6q25 -10 23.5 -36t-25.5 -34q-18 -4 -38.5 -2t-43.5 6l-8 -43q-12 -43 -23.5 -91t-18.5 -96t-9 -95.5t6 -90.5q57 57 108 110.5t113 100.5q92 72 189.5 133.5t199.5 116.5q10 6 18.5 3t13.5 -11t4 -17.5t-11 -15.5l-84 -45 q-53 -31 -105.5 -62.5t-101.5 -68.5q-158 -115 -285 -270q-10 -16 -21.5 -28.5t-33.5 -16.5q-29 -4 -45.5 8t-25.5 32.5t-11 45t0 45.5q2 90 26.5 182t53.5 178q-35 2 -70 3t-69 1q-74 4 -148 0t-145 -14l-95 -14l-28 -54q-25 -47 -51.5 -98t-32.5 -104q-2 -16 -7 -33 t-28 -19q-18 0 -29.5 12.5t-9.5 28.5q2 51 27.5 100.5t48.5 92.5q8 16 16 28.5t19 28.5q-29 -6 -54.5 -13t-54.5 -18q-37 -10 -70.5 -24t-68.5 -31q-10 -6 -19.5 -2t-12.5 12.5t-1 17.5zM395 168l170 25q76 6 152 9t153 -1h41q0 6 2 8q53 141 111.5 276.5t118.5 272.5 q29 61 55.5 123.5t50.5 128.5q-47 -8 -94 -32t-90 -54.5t-81 -63.5t-71 -61q-172 -158 -319 -348q-104 -139 -199 -283zM1196 1176q-16 16 2.5 30.5t49 24.5t61 16t37.5 10q14 6 34.5 14.5t40 18.5t36 20.5t20.5 20.5q6 16 20 19.5t26.5 -2t19.5 -19t-1 -29.5 q-14 -31 -57 -48t-76 -27q-29 -10 -55.5 -17.5t-55.5 -15.5q-8 -2 -21 -7t-28.5 -9.5t-30 -5.5t-22.5 6z" />
<glyph unicode="&#xc2;" horiz-adv-x="1495" d="M4 36q2 9 12 15q72 35 150 58.5t156 42.5l51 79q68 96 137.5 186.5t144.5 180.5q74 86 153 169t167 155q43 35 88 65.5t92 54.5q12 6 40 18.5t56.5 19.5t53 5t32.5 -24q4 -14 -3 -29.5t-11 -27.5l-47 -97l-39 -80q-41 -80 -79 -159.5t-75 -163.5q-33 -74 -63.5 -147.5 t-56.5 -151.5q16 0 31.5 -2t27.5 -6q25 -10 23.5 -36t-25.5 -34q-18 -4 -38.5 -2t-43.5 6l-8 -43q-12 -43 -23.5 -91t-18.5 -96t-9 -95.5t6 -90.5q57 57 108 110.5t113 100.5q92 72 189.5 133.5t199.5 116.5q10 6 18.5 3t13.5 -11t4 -17.5t-11 -15.5l-84 -45 q-53 -31 -105.5 -62.5t-101.5 -68.5q-158 -115 -285 -270q-10 -16 -21.5 -28.5t-33.5 -16.5q-29 -4 -45.5 8t-25.5 32.5t-11 45t0 45.5q2 90 26.5 182t53.5 178q-35 2 -70 3t-69 1q-74 4 -148 0t-145 -14l-95 -14l-28 -54q-25 -47 -51.5 -98t-32.5 -104q-2 -16 -7 -33 t-28 -19q-18 0 -29.5 12.5t-9.5 28.5q2 51 27.5 100.5t48.5 92.5q8 16 16 28.5t19 28.5q-29 -6 -54.5 -13t-54.5 -18q-37 -10 -70.5 -24t-68.5 -31q-10 -6 -19.5 -2t-12.5 12.5t-1 17.5zM395 168l170 25q76 6 152 9t153 -1h41q0 6 2 8q53 141 111.5 276.5t118.5 272.5 q29 61 55.5 123.5t50.5 128.5q-47 -8 -94 -32t-90 -54.5t-81 -63.5t-71 -61q-172 -158 -319 -348q-104 -139 -199 -283zM1114 1186q2 25 25 33q43 16 82 36.5t77 44.5q10 6 27.5 21.5t36 30t36 19.5t29.5 -7q23 -23 33 -63.5t21 -69.5q4 -10 12 -27.5t6 -32.5 q-4 -29 -25.5 -18.5t-29.5 27.5l-60 108q-43 -18 -85 -42.5t-80 -53.5q-8 -6 -17.5 -16.5t-21 -17.5t-22.5 -10t-23 3q-23 10 -21 35z" />
<glyph unicode="&#xc3;" horiz-adv-x="1495" d="M4 36q2 9 12 15q72 35 150 58.5t156 42.5l51 79q68 96 137.5 186.5t144.5 180.5q74 86 153 169t167 155q43 35 88 65.5t92 54.5q12 6 40 18.5t56.5 19.5t53 5t32.5 -24q4 -14 -3 -29.5t-11 -27.5l-47 -97l-39 -80q-41 -80 -79 -159.5t-75 -163.5q-33 -74 -63.5 -147.5 t-56.5 -151.5q16 0 31.5 -2t27.5 -6q25 -10 23.5 -36t-25.5 -34q-18 -4 -38.5 -2t-43.5 6l-8 -43q-12 -43 -23.5 -91t-18.5 -96t-9 -95.5t6 -90.5q57 57 108 110.5t113 100.5q92 72 189.5 133.5t199.5 116.5q10 6 18.5 3t13.5 -11t4 -17.5t-11 -15.5l-84 -45 q-53 -31 -105.5 -62.5t-101.5 -68.5q-158 -115 -285 -270q-10 -16 -21.5 -28.5t-33.5 -16.5q-29 -4 -45.5 8t-25.5 32.5t-11 45t0 45.5q2 90 26.5 182t53.5 178q-35 2 -70 3t-69 1q-74 4 -148 0t-145 -14l-95 -14l-28 -54q-25 -47 -51.5 -98t-32.5 -104q-2 -16 -7 -33 t-28 -19q-18 0 -29.5 12.5t-9.5 28.5q2 51 27.5 100.5t48.5 92.5q8 16 16 28.5t19 28.5q-29 -6 -54.5 -13t-54.5 -18q-37 -10 -70.5 -24t-68.5 -31q-10 -6 -19.5 -2t-12.5 12.5t-1 17.5zM395 168l170 25q76 6 152 9t153 -1h41q0 6 2 8q53 141 111.5 276.5t118.5 272.5 q29 61 55.5 123.5t50.5 128.5q-47 -8 -94 -32t-90 -54.5t-81 -63.5t-71 -61q-172 -158 -319 -348q-104 -139 -199 -283zM1105 1219.5q-1 19.5 15 33.5q37 29 77 61t87 42q29 6 44 -4.5t24.5 -28.5t13.5 -39.5t10 -40.5q6 -18 23.5 -14t37 18.5t38 31.5t24.5 24 q10 10 22.5 24t30.5 12q23 -2 32 -23.5t-7 -37.5q-14 -14 -33.5 -29.5t-43 -30t-47 -24.5t-44.5 -16q-29 -6 -45 4t-25.5 28.5t-13.5 42t-10 41.5q-6 16 -24.5 10t-38 -21t-37 -32.5l-23.5 -23.5q-14 -16 -28.5 -31.5t-37.5 -5.5q-20 10 -21 29.5z" />
<glyph unicode="&#xc4;" horiz-adv-x="1495" d="M4 36q2 9 12 15q72 35 150 58.5t156 42.5l51 79q68 96 137.5 186.5t144.5 180.5q74 86 153 169t167 155q43 35 88 65.5t92 54.5q12 6 40 18.5t56.5 19.5t53 5t32.5 -24q4 -14 -3 -29.5t-11 -27.5l-47 -97l-39 -80q-41 -80 -79 -159.5t-75 -163.5q-33 -74 -63.5 -147.5 t-56.5 -151.5q16 0 31.5 -2t27.5 -6q25 -10 23.5 -36t-25.5 -34q-18 -4 -38.5 -2t-43.5 6l-8 -43q-12 -43 -23.5 -91t-18.5 -96t-9 -95.5t6 -90.5q57 57 108 110.5t113 100.5q92 72 189.5 133.5t199.5 116.5q10 6 18.5 3t13.5 -11t4 -17.5t-11 -15.5l-84 -45 q-53 -31 -105.5 -62.5t-101.5 -68.5q-158 -115 -285 -270q-10 -16 -21.5 -28.5t-33.5 -16.5q-29 -4 -45.5 8t-25.5 32.5t-11 45t0 45.5q2 90 26.5 182t53.5 178q-35 2 -70 3t-69 1q-74 4 -148 0t-145 -14l-95 -14l-28 -54q-25 -47 -51.5 -98t-32.5 -104q-2 -16 -7 -33 t-28 -19q-18 0 -29.5 12.5t-9.5 28.5q2 51 27.5 100.5t48.5 92.5q8 16 16 28.5t19 28.5q-29 -6 -54.5 -13t-54.5 -18q-37 -10 -70.5 -24t-68.5 -31q-10 -6 -19.5 -2t-12.5 12.5t-1 17.5zM395 168l170 25q76 6 152 9t153 -1h41q0 6 2 8q53 141 111.5 276.5t118.5 272.5 q29 61 55.5 123.5t50.5 128.5q-47 -8 -94 -32t-90 -54.5t-81 -63.5t-71 -61q-172 -158 -319 -348q-104 -139 -199 -283zM1235 1213.5q-2 7.5 2 14.5t11 13t14 10q16 10 27 27.5t20 34.5q8 16 9 37.5t13 38.5q10 14 24.5 16t26 -6t16.5 -22.5t-3 -28.5q-16 -35 -41 -68 t-54 -59q-10 -6 -22 -16.5t-29 -4.5q-12 6 -14 13.5zM1387.5 1220.5q-1.5 10.5 9.5 18.5q27 20 46 49t36 60q6 10 12 24t13 28.5t17.5 24t24.5 9.5q23 -4 32 -23.5t-5 -36.5l-62 -76q-16 -23 -37.5 -53.5t-43.5 -42.5q-8 -10 -18.5 -8t-16.5 9t-7.5 17.5z" />
<glyph unicode="&#xc5;" horiz-adv-x="1495" d="M4 36q2 9 12 15q72 35 150 58.5t156 42.5l51 79q68 96 137.5 186.5t144.5 180.5q74 86 153 169t167 155q43 35 88 65.5t92 54.5q12 6 40 18.5t56.5 19.5t53 5t32.5 -24q4 -14 -3 -29.5t-11 -27.5l-47 -97l-39 -80q-41 -80 -79 -159.5t-75 -163.5q-33 -74 -63.5 -147.5 t-56.5 -151.5q16 0 31.5 -2t27.5 -6q25 -10 23.5 -36t-25.5 -34q-18 -4 -38.5 -2t-43.5 6l-8 -43q-12 -43 -23.5 -91t-18.5 -96t-9 -95.5t6 -90.5q57 57 108 110.5t113 100.5q92 72 189.5 133.5t199.5 116.5q10 6 18.5 3t13.5 -11t4 -17.5t-11 -15.5l-84 -45 q-53 -31 -105.5 -62.5t-101.5 -68.5q-158 -115 -285 -270q-10 -16 -21.5 -28.5t-33.5 -16.5q-29 -4 -45.5 8t-25.5 32.5t-11 45t0 45.5q2 90 26.5 182t53.5 178q-35 2 -70 3t-69 1q-74 4 -148 0t-145 -14l-95 -14l-28 -54q-25 -47 -51.5 -98t-32.5 -104q-2 -16 -7 -33 t-28 -19q-18 0 -29.5 12.5t-9.5 28.5q2 51 27.5 100.5t48.5 92.5q8 16 16 28.5t19 28.5q-29 -6 -54.5 -13t-54.5 -18q-37 -10 -70.5 -24t-68.5 -31q-10 -6 -19.5 -2t-12.5 12.5t-1 17.5zM395 168l170 25q76 6 152 9t153 -1h41q0 6 2 8q53 141 111.5 276.5t118.5 272.5 q29 61 55.5 123.5t50.5 128.5q-47 -8 -94 -32t-90 -54.5t-81 -63.5t-71 -61q-172 -158 -319 -348q-104 -139 -199 -283zM1287 1292q5 35 25.5 70t50.5 57.5t65.5 25.5t72.5 -24q43 -35 40 -82t-33.5 -86t-78 -60t-90.5 -5q-35 10 -46 39.5t-6 64.5zM1336 1267.5 q-5 -28.5 18 -36.5q20 -6 45.5 8t45 36.5t25 46.5t-13.5 38q-25 20 -51.5 6t-45 -42t-23.5 -56.5z" />
<glyph unicode="&#xc6;" horiz-adv-x="1710" d="M4 36q2 9 12 15q72 35 150 58.5t156 42.5l51 79q68 96 137.5 186.5t144.5 180.5q74 86 153 169t167 155q43 35 88 65.5t92 54.5q12 6 40 18.5t56.5 19.5t53 5t32.5 -24q4 -14 -3 -29.5t-11 -27.5l-20 -48q35 20 69.5 36t69.5 30q33 12 72.5 19.5t79.5 5t74 -18.5t54 -53 q20 -35 18.5 -71t-16 -71.5t-37 -67.5t-47.5 -56q-53 -59 -117.5 -102.5t-133.5 -78.5q-27 -12 -62 -30.5t-65 -20.5q-16 -2 -25.5 7.5t-11.5 22.5t5 25.5t23 16.5q104 23 207 78t166 147q10 14 21.5 37t18.5 46.5t5 47t-16 41.5q-16 20 -41 26.5t-52.5 5.5t-55 -7 t-48.5 -13q-109 -31 -203 -92t-170 -145q-12 -12 -34.5 -42t-48 -68t-47 -80t-29.5 -77.5t2 -61t49 -32.5q45 -6 82 10.5t78 20.5q16 4 31.5 -8t11.5 -31q-4 -25 -35 -39t-49 -26q-43 -27 -88 -58.5t-87 -68.5t-77 -81t-53 -93q-20 -53 6 -77t70 -31t94.5 -2t76.5 11 q113 23 218.5 69t207.5 97l197 99q14 6 32.5 18t35.5 12q18 -2 21 -10t-1 -17.5t-13.5 -17.5t-15.5 -12q-35 -14 -69.5 -30.5t-69.5 -35.5q-125 -63 -253 -129.5t-265 -103.5q-59 -18 -127 -23.5t-129 17.5q-59 23 -80.5 71t2.5 107q16 39 43 72.5t57 66.5q-23 0 -42 1 t-39 1q-74 4 -148 0t-145 -14l-95 -14l-28 -54q-25 -47 -51.5 -98t-32.5 -104q-2 -16 -7 -33t-28 -19q-18 0 -29.5 12.5t-9.5 28.5q2 51 27.5 100.5t48.5 92.5q8 16 16 28.5t19 28.5q-29 -6 -54.5 -13t-54.5 -18q-37 -10 -70.5 -24t-68.5 -31q-10 -6 -19.5 -2t-12.5 12.5 t-1 17.5zM395 168l170 25q76 6 152 7t153 1h25l109 92q-33 2 -61 12t-50 37q-25 31 -26 67.5t10.5 74.5t31 73t37.5 61q49 78 114.5 148t143.5 127l45 117q-47 -8 -94 -32t-90 -54.5t-81 -63.5t-71 -61q-172 -158 -319 -348q-104 -139 -199 -283z" />
<glyph unicode="&#xc7;" horiz-adv-x="1024" d="M-84 -479.5q-12 24.5 6 41.5q16 16 48 13t53 -1q27 0 64.5 2t75.5 8t70.5 18.5t53.5 35.5q10 12 -10.5 20t-51 14t-58.5 9.5t-32 3.5q-25 10 -25.5 24.5t8.5 29.5t24.5 28.5t25.5 21.5l20 18q-59 10 -107 44t-65 104q-10 49 -5 102.5t20.5 105.5t37 101t44.5 92 q102 209 252 383q33 37 67.5 76t74.5 73t84 60.5t93 38.5q43 14 95 13t89 -33q37 -33 43.5 -79t-2.5 -91q-18 -109 -67 -211.5t-103 -196.5q-29 -47 -57.5 -93t-65.5 -87q-16 -10 -31.5 -7t-24.5 13t-9 24.5t16 26.5q41 31 76 74t64.5 92t53 99.5t42.5 97.5q23 51 35 106.5 t8 110.5q-4 59 -42 73.5t-91 4.5q-55 -10 -105.5 -38t-95.5 -67t-85 -83t-73 -85q-74 -92 -134 -191.5t-101 -209.5q-16 -37 -31.5 -92.5t-17.5 -110.5t17 -100t75 -62q55 -16 113.5 -12t118 19.5t116.5 38t106 42.5q53 23 105.5 48.5t105.5 52.5l107 51q10 6 25.5 15.5 t33 19.5t33.5 16t29 6q18 -2 20 -21.5t-14 -25.5q-16 -16 -43 -23.5t-47 -17.5q-57 -29 -113.5 -58.5t-116.5 -58.5q-94 -47 -191 -94t-204 -69q-23 -4 -44 -6.5t-44 -4.5l-49 -61q43 -10 85 -30.5t46 -57.5q2 -18 -6 -33.5t-22.5 -27t-30 -19.5t-29.5 -14 q-72 -27 -147.5 -38t-149.5 -22q-27 -4 -39 20.5z" />
<glyph unicode="&#xc8;" horiz-adv-x="1003" d="M21.5 -109q-21.5 48 3.5 107t70.5 107.5t90.5 91.5l113 96q-33 2 -60.5 12t-50.5 37q-25 31 -25.5 67.5t10.5 74.5t30.5 73t38.5 61q86 135 216 243t279 161q33 12 73 19.5t80 5t73.5 -18.5t54.5 -53q20 -35 18 -71t-16 -71.5t-36.5 -67.5t-47.5 -56 q-53 -59 -117.5 -102.5t-134.5 -78.5q-27 -12 -61.5 -30.5t-65.5 -20.5q-16 -2 -25.5 7.5t-11.5 22.5t5.5 25.5t23.5 16.5q104 23 206.5 78t166.5 147q10 14 21 37t18.5 46.5t5.5 47t-17 41.5q-16 20 -40.5 26.5t-52.5 5.5t-55.5 -7t-47.5 -13q-109 -31 -203 -92t-170 -145 q-10 -12 -33.5 -42t-49.5 -68t-47.5 -80t-29.5 -77.5t2 -61t49 -32.5q45 -6 82 10.5t78 20.5q16 4 31.5 -8t11.5 -31q-4 -25 -34.5 -39t-49.5 -26q-43 -27 -88 -58.5t-87 -68.5t-77 -81t-53 -93q-20 -53 6.5 -77t70.5 -31t94 -2t77 11q113 23 218 69t208 97l196 99 q14 6 33 18t35 12q18 -2 21.5 -10t-1 -17.5t-13.5 -17.5t-15 -12q-35 -14 -70 -30.5t-69 -35.5q-125 -63 -253 -129.5t-266 -103.5q-59 -18 -126.5 -23.5t-129.5 17.5q-59 23 -80.5 71zM653 1247q-2 14 6.5 23.5t20.5 12.5t24.5 -1t18.5 -18q6 -10 23.5 -22.5t39 -24 t44 -21.5t38.5 -16q29 -10 62 -16.5t55 -22.5q16 -4 19.5 -16.5t-7.5 -22.5q-10 -14 -26.5 -8t-28.5 10q-63 20 -130 40.5t-122 57.5q-10 8 -21.5 18.5t-15.5 26.5z" />
<glyph unicode="&#xc9;" horiz-adv-x="1003" d="M21.5 -109q-21.5 48 3.5 107t70.5 107.5t90.5 91.5l113 96q-33 2 -60.5 12t-50.5 37q-25 31 -25.5 67.5t10.5 74.5t30.5 73t38.5 61q86 135 216 243t279 161q33 12 73 19.5t80 5t73.5 -18.5t54.5 -53q20 -35 18 -71t-16 -71.5t-36.5 -67.5t-47.5 -56 q-53 -59 -117.5 -102.5t-134.5 -78.5q-27 -12 -61.5 -30.5t-65.5 -20.5q-16 -2 -25.5 7.5t-11.5 22.5t5.5 25.5t23.5 16.5q104 23 206.5 78t166.5 147q10 14 21 37t18.5 46.5t5.5 47t-17 41.5q-16 20 -40.5 26.5t-52.5 5.5t-55.5 -7t-47.5 -13q-109 -31 -203 -92t-170 -145 q-10 -12 -33.5 -42t-49.5 -68t-47.5 -80t-29.5 -77.5t2 -61t49 -32.5q45 -6 82 10.5t78 20.5q16 4 31.5 -8t11.5 -31q-4 -25 -34.5 -39t-49.5 -26q-43 -27 -88 -58.5t-87 -68.5t-77 -81t-53 -93q-20 -53 6.5 -77t70.5 -31t94 -2t77 11q113 23 218 69t208 97l196 99 q14 6 33 18t35 12q18 -2 21.5 -10t-1 -17.5t-13.5 -17.5t-15 -12q-35 -14 -70 -30.5t-69 -35.5q-125 -63 -253 -129.5t-266 -103.5q-59 -18 -126.5 -23.5t-129.5 17.5q-59 23 -80.5 71zM745 1116q-16 16 2.5 30.5t49 25t61.5 16.5t37 10q14 6 34.5 14.5t40 18.5t36 20.5 t20.5 20.5q6 16 20.5 19t26.5 -2t19.5 -18.5t-0.5 -29.5q-14 -31 -57.5 -48t-76.5 -28q-29 -10 -55 -17t-55 -15q-8 -2 -21.5 -7.5t-29 -9.5t-29.5 -5t-23 5z" />
<glyph unicode="&#xca;" horiz-adv-x="1003" d="M21.5 -109q-21.5 48 3.5 107t70.5 107.5t90.5 91.5l113 96q-33 2 -60.5 12t-50.5 37q-25 31 -25.5 67.5t10.5 74.5t30.5 73t38.5 61q86 135 216 243t279 161q33 12 73 19.5t80 5t73.5 -18.5t54.5 -53q20 -35 18 -71t-16 -71.5t-36.5 -67.5t-47.5 -56 q-53 -59 -117.5 -102.5t-134.5 -78.5q-27 -12 -61.5 -30.5t-65.5 -20.5q-16 -2 -25.5 7.5t-11.5 22.5t5.5 25.5t23.5 16.5q104 23 206.5 78t166.5 147q10 14 21 37t18.5 46.5t5.5 47t-17 41.5q-16 20 -40.5 26.5t-52.5 5.5t-55.5 -7t-47.5 -13q-109 -31 -203 -92t-170 -145 q-10 -12 -33.5 -42t-49.5 -68t-47.5 -80t-29.5 -77.5t2 -61t49 -32.5q45 -6 82 10.5t78 20.5q16 4 31.5 -8t11.5 -31q-4 -25 -34.5 -39t-49.5 -26q-43 -27 -88 -58.5t-87 -68.5t-77 -81t-53 -93q-20 -53 6.5 -77t70.5 -31t94 -2t77 11q113 23 218 69t208 97l196 99 q14 6 33 18t35 12q18 -2 21.5 -10t-1 -17.5t-13.5 -17.5t-15 -12q-35 -14 -70 -30.5t-69 -35.5q-125 -63 -253 -129.5t-266 -103.5q-59 -18 -126.5 -23.5t-129.5 17.5q-59 23 -80.5 71zM675 1147q2 25 25 33q43 16 82 36.5t78 45.5q10 6 27.5 21t36 29.5t36 19.5t29.5 -7 q23 -23 33 -63.5t20 -69.5q4 -10 12.5 -27.5t6.5 -31.5q-4 -29 -25.5 -19t-29.5 27l-60 108q-43 -18 -85 -42.5t-81 -53.5q-8 -6 -17 -16.5t-20.5 -17.5t-22.5 -10t-24 3q-23 10 -21 35z" />
<glyph unicode="&#xcb;" horiz-adv-x="1003" d="M21.5 -109q-21.5 48 3.5 107t70.5 107.5t90.5 91.5l113 96q-33 2 -60.5 12t-50.5 37q-25 31 -25.5 67.5t10.5 74.5t30.5 73t38.5 61q86 135 216 243t279 161q33 12 73 19.5t80 5t73.5 -18.5t54.5 -53q20 -35 18 -71t-16 -71.5t-36.5 -67.5t-47.5 -56 q-53 -59 -117.5 -102.5t-134.5 -78.5q-27 -12 -61.5 -30.5t-65.5 -20.5q-16 -2 -25.5 7.5t-11.5 22.5t5.5 25.5t23.5 16.5q104 23 206.5 78t166.5 147q10 14 21 37t18.5 46.5t5.5 47t-17 41.5q-16 20 -40.5 26.5t-52.5 5.5t-55.5 -7t-47.5 -13q-109 -31 -203 -92t-170 -145 q-10 -12 -33.5 -42t-49.5 -68t-47.5 -80t-29.5 -77.5t2 -61t49 -32.5q45 -6 82 10.5t78 20.5q16 4 31.5 -8t11.5 -31q-4 -25 -34.5 -39t-49.5 -26q-43 -27 -88 -58.5t-87 -68.5t-77 -81t-53 -93q-20 -53 6.5 -77t70.5 -31t94 -2t77 11q113 23 218 69t208 97l196 99 q14 6 33 18t35 12q18 -2 21.5 -10t-1 -17.5t-13.5 -17.5t-15 -12q-35 -14 -70 -30.5t-69 -35.5q-125 -63 -253 -129.5t-266 -103.5q-59 -18 -126.5 -23.5t-129.5 17.5q-59 23 -80.5 71zM760 1143.5q-2 7.5 2 14.5t11 13.5t13 10.5q16 10 27.5 27.5t20.5 33.5q8 16 9 38 t13 38q10 14 24.5 16t26 -6t16.5 -22.5t-3 -28.5q-16 -35 -41 -67.5t-54 -59.5q-10 -6 -22 -16.5t-29 -4.5q-12 6 -14 13.5zM912 1151q-1 10 10 18q27 20 46 49t36 60q6 10 12 24.5t13 29t17.5 23.5t24.5 9q23 -4 32 -23.5t-5 -35.5l-62 -76q-16 -23 -37.5 -53.5 t-44.5 -42.5q-8 -10 -18 -8.5t-16.5 9t-7.5 17.5z" />
<glyph unicode="&#xcc;" horiz-adv-x="845" d="M69 -26.5q3 24.5 12 49t21.5 48t24.5 44.5q49 88 104.5 171t108.5 167q68 104 128 211.5t126 212.5q-29 -6 -55.5 -11.5t-55.5 -9.5q-12 -2 -29.5 -6t-36 -7t-35.5 -3t-28 8q-12 8 -15 20.5t1 23.5t13.5 18.5t23.5 7.5q66 -6 131 -2t129 26h2q6 10 11 18.5t14 18.5 q14 18 35.5 48t47 55.5t55 41t58.5 4.5q39 -12 38 -36.5t-19.5 -52t-46 -51t-41.5 -32.5q-23 -16 -48.5 -26t-50.5 -21q-33 -45 -62.5 -90t-62.5 -92l-260 -408q-29 -49 -59.5 -98t-52.5 -100l-18.5 -37t-24 -53.5t-15.5 -53t8 -36.5q14 -12 69.5 -3t119 24t119 32.5 t71.5 21.5q53 18 104.5 43t100.5 54l102 57q10 4 20.5 9t20.5 -3q12 -6 11.5 -20.5t-11.5 -20.5q-94 -49 -188 -97t-195 -83q-72 -25 -141 -52.5t-147 -37.5q-39 -4 -77 7t-50 52q-8 25 -5 49.5zM616 1337q-2 14 6.5 23.5t20.5 12.5t24.5 -1t18.5 -18q6 -10 23.5 -22.5 t39 -24t44 -21.5t38.5 -16q29 -10 62 -16.5t55 -22.5q16 -4 19.5 -16.5t-6.5 -22.5q-10 -14 -26.5 -8t-29.5 10q-63 20 -129.5 40.5t-122.5 57.5q-10 8 -21 18.5t-16 26.5zM760 995q14 10 27.5 23.5t21.5 25.5q-29 -18 -49 -49z" />
<glyph unicode="&#xcd;" horiz-adv-x="845" d="M69 -26.5q3 24.5 12 49t21.5 48t24.5 44.5q49 88 104.5 171t108.5 167q68 104 128 211.5t126 212.5q-29 -6 -55.5 -11.5t-55.5 -9.5q-12 -2 -29.5 -6t-36 -7t-35.5 -3t-28 8q-12 8 -15 20.5t1 23.5t13.5 18.5t23.5 7.5q66 -6 131 -2t129 26h2q6 10 11 18.5t14 18.5 q14 18 35.5 48t47 55.5t55 41t58.5 4.5q39 -12 38 -36.5t-19.5 -52t-46 -51t-41.5 -32.5q-23 -16 -48.5 -26t-50.5 -21q-33 -45 -62.5 -90t-62.5 -92l-260 -408q-29 -49 -59.5 -98t-52.5 -100l-18.5 -37t-24 -53.5t-15.5 -53t8 -36.5q14 -12 69.5 -3t119 24t119 32.5 t71.5 21.5q53 18 104.5 43t100.5 54l102 57q10 4 20.5 9t20.5 -3q12 -6 11.5 -20.5t-11.5 -20.5q-94 -49 -188 -97t-195 -83q-72 -25 -141 -52.5t-147 -37.5q-39 -4 -77 7t-50 52q-8 25 -5 49.5zM672 1192q-16 16 2 30.5t49 24.5t61.5 16.5t36.5 10.5q14 6 35 14t40 18.5 t35.5 20.5t20.5 21q6 16 20.5 19t27 -2t19.5 -18.5t-1 -29.5q-14 -31 -57 -48.5t-76 -27.5q-29 -10 -55.5 -17t-55.5 -16q-8 -2 -21.5 -7t-28.5 -9t-29.5 -5t-22.5 5zM760 995q14 10 27.5 23.5t21.5 25.5q-29 -18 -49 -49z" />
<glyph unicode="&#xce;" horiz-adv-x="845" d="M69 -26.5q3 24.5 12 49t21.5 48t24.5 44.5q49 88 104.5 171t108.5 167q68 104 128 211.5t126 212.5q-29 -6 -55.5 -11.5t-55.5 -9.5q-12 -2 -29.5 -6t-36 -7t-35.5 -3t-28 8q-12 8 -15 20.5t1 23.5t13.5 18.5t23.5 7.5q66 -6 131 -2t129 26h2q6 10 11 18.5t14 18.5 q14 18 35.5 48t47 55.5t55 41t58.5 4.5q39 -12 38 -36.5t-19.5 -52t-46 -51t-41.5 -32.5q-23 -16 -48.5 -26t-50.5 -21q-33 -45 -62.5 -90t-62.5 -92l-260 -408q-29 -49 -59.5 -98t-52.5 -100l-18.5 -37t-24 -53.5t-15.5 -53t8 -36.5q14 -12 69.5 -3t119 24t119 32.5 t71.5 21.5q53 18 104.5 43t100.5 54l102 57q10 4 20.5 9t20.5 -3q12 -6 11.5 -20.5t-11.5 -20.5q-94 -49 -188 -97t-195 -83q-72 -25 -141 -52.5t-147 -37.5q-39 -4 -77 7t-50 52q-8 25 -5 49.5zM647 1220.5q2 24.5 25 32.5q43 16 82 37t77 45q10 6 28 21.5t36 30t35.5 19.5 t30.5 -7q23 -23 33 -64t20 -69q4 -10 12 -27.5t6 -32.5q-4 -29 -25.5 -18.5t-29.5 26.5l-59 109q-43 -18 -85 -43t-81 -53q-8 -6 -17.5 -16.5t-21 -17.5t-22.5 -10t-23 3q-23 10 -21 34.5zM760 995q14 10 27.5 23.5t21.5 25.5q-29 -18 -49 -49z" />
<glyph unicode="&#xcf;" horiz-adv-x="845" d="M69 -26.5q3 24.5 12 49t21.5 48t24.5 44.5q49 88 104.5 171t108.5 167q68 104 128 211.5t126 212.5q-29 -6 -55.5 -11.5t-55.5 -9.5q-12 -2 -29.5 -6t-36 -7t-35.5 -3t-28 8q-12 8 -15 20.5t1 23.5t13.5 18.5t23.5 7.5q66 -6 131 -2t129 26h2q6 10 11 18.5t14 18.5 q14 18 35.5 48t47 55.5t55 41t58.5 4.5q39 -12 38 -36.5t-19.5 -52t-46 -51t-41.5 -32.5q-23 -16 -48.5 -26t-50.5 -21q-33 -45 -62.5 -90t-62.5 -92l-260 -408q-29 -49 -59.5 -98t-52.5 -100l-18.5 -37t-24 -53.5t-15.5 -53t8 -36.5q14 -12 69.5 -3t119 24t119 32.5 t71.5 21.5q53 18 104.5 43t100.5 54l102 57q10 4 20.5 9t20.5 -3q12 -6 11.5 -20.5t-11.5 -20.5q-94 -49 -188 -97t-195 -83q-72 -25 -141 -52.5t-147 -37.5q-39 -4 -77 7t-50 52q-8 25 -5 49.5zM760 995q14 10 27.5 23.5t21.5 25.5q-29 -18 -49 -49zM795 1225.5 q-2 7.5 2 14.5t11 13.5t13 10.5q16 10 27.5 27.5t19.5 33.5t9.5 37.5t13.5 38.5q10 14 24.5 16t25.5 -6t16 -22.5t-3 -28.5q-16 -35 -40.5 -67.5t-53.5 -59.5q-10 -6 -22.5 -16.5t-28.5 -4.5q-12 6 -14 13.5zM947 1233q-1 10 9 18q27 20 46.5 49t35.5 60q6 10 12.5 24.5 t13.5 28.5t17.5 23.5t24.5 9.5q23 -4 32 -23.5t-5 -36.5l-62 -75q-16 -23 -37.5 -53.5t-44.5 -43.5q-8 -10 -18 -8t-16.5 9.5t-7.5 17.5z" />
<glyph unicode="&#xd0;" horiz-adv-x="1378" d="M14 -74q2 16 15.5 24.5t29.5 4.5q33 -10 66 -16.5t68 -10.5q51 -8 104 -9t106 3q4 70 26 139.5t42 124.5q12 33 24.5 65t28.5 64q-33 0 -65.5 1t-67.5 1q-10 0 -22.5 2.5t-16.5 12.5q-8 12 0.5 24.5t24.5 10.5q41 -4 84 -5.5t86 3.5q29 61 61.5 120.5t67.5 118.5 q31 55 65.5 108.5t71.5 106.5q-106 -41 -196.5 -90t-170.5 -111q-18 -14 -35.5 -29.5t-33.5 -31.5q-16 -14 -31.5 -34.5t-34.5 -30.5q-14 -8 -26.5 -4t-20.5 15t-7 24.5t13 23.5q86 76 183.5 137.5t199.5 112.5q53 27 108.5 50t110.5 44l78 88q37 39 79 76t91 55q12 4 36 8 t45.5 2t35.5 -13t6 -38q-4 -14 -18.5 -20t-30.5 0q-18 8 -38.5 4t-41 -14.5t-39 -24.5t-31.5 -25q-23 -16 -41 -34.5t-36 -36.5q29 8 59.5 13t63.5 9q51 6 108 4t112.5 -17.5t101.5 -46t73 -81.5q25 -47 22.5 -99.5t-20 -104.5t-45 -99t-56.5 -86q-135 -184 -328.5 -313.5 t-410.5 -188.5q-90 -23 -178 -37q4 -25 12 -44t27 -36q16 -14 14 -28.5t-14 -22.5t-29.5 -7t-32.5 19q-18 25 -27 53.5t-13 59.5q-57 -4 -116 -5t-118 3q-14 0 -42 1t-55.5 6t-46 17.5t-14.5 34.5zM467 -74q129 16 254 58.5t237 111.5q86 53 165 119t145 143q29 35 58.5 76 t53 85t39 91t15.5 95q0 45 -22.5 76.5t-57.5 53t-76 33t-78 15.5q-78 4 -152.5 -5.5t-148.5 -29.5q-86 -111 -150.5 -211t-117.5 -203l-31 -65q16 2 32.5 4t33.5 6q33 4 71.5 15.5t73.5 6.5q27 -4 32 -30.5t-20 -38.5q-25 -16 -64.5 -13t-68.5 0q-29 -2 -58.5 -3t-58.5 -1 q-35 -82 -63.5 -167t-38.5 -171q-2 -10 -3 -22t-1 -29z" />
<glyph unicode="&#xd1;" horiz-adv-x="1521" d="M21 644.5q-11 25.5 12 43.5q123 94 251 182t273 150q27 12 61.5 24.5t70.5 18.5t71 3t63 -22q31 -23 39 -53t1 -64t-22.5 -68t-29.5 -58q-37 -59 -82 -114.5t-90 -111.5q-47 -63 -94 -127.5t-94 -130.5l-142 -192q72 63 143.5 123.5t145.5 120.5q152 123 313.5 239.5 t339.5 202.5q37 18 75 33.5t79 19.5q16 2 31.5 -1t26 -10t11.5 -19.5t-12 -30.5q-20 -29 -51 -53.5t-57 -53.5q-94 -106 -180.5 -216.5t-145.5 -233.5q-12 -27 -29.5 -64t-30 -74.5t-14.5 -69.5t15 -50q18 -18 50 -16.5t66.5 14t69.5 28t57 23.5q78 29 156 64.5t154 74.5 q12 8 24.5 1t9.5 -21q0 -16 -18 -24.5t-29 -12.5l-172 -82q-76 -35 -154.5 -75t-164.5 -50q-57 -6 -85 12.5t-36 51t0 75.5t23.5 86t34 81t30.5 61q76 131 166 258t192 245q-25 -8 -50 -20t-48 -23q-57 -27 -112.5 -56.5t-108.5 -64.5q-98 -61 -192.5 -130.5t-184.5 -143.5 q-96 -74 -183 -152.5t-171 -162.5q-43 -41 -82 -84t-78 -90q-14 -14 -29.5 -40t-37.5 -32q-23 -6 -38.5 14.5t-2.5 40.5q10 20 29.5 41t33.5 39q8 12 19.5 27.5t35 47.5t64.5 85t108 143l138 185q57 80 116.5 157.5t114.5 159.5q10 14 34.5 50t46 76t31 78t-11.5 56 q-12 10 -30.5 13t-40 1t-42 -7t-32.5 -7q-90 -23 -174 -63q-78 -37 -146.5 -86.5t-134.5 -104.5l-65 -57q-12 -12 -26.5 -28.5t-31.5 -20.5q-29 -4 -40 21.5zM980 994.5q-1 19.5 15 33.5q37 29 77 60.5t87 41.5q29 6 44.5 -4t24.5 -28.5t13 -40t10 -39.5t23.5 -14t37 18 t38 31.5t24.5 23.5q10 10 22.5 24.5t30.5 12.5q23 -2 32 -23.5t-7 -37.5q-14 -14 -33.5 -29.5t-43 -30t-47 -25t-44.5 -16.5q-29 -6 -45 4.5t-25.5 29t-13.5 42t-10 41.5q-6 16 -24.5 10t-38 -21.5t-37 -32.5t-23.5 -24q-14 -16 -28.5 -31.5t-37.5 -4.5q-20 10 -21 29.5z " />
<glyph unicode="&#xd2;" horiz-adv-x="911" d="M18 -22.5q-6 55.5 2 108.5q18 111 70.5 214t114.5 196q59 98 131 185t153 167q76 72 167.5 137.5t195.5 83.5q33 6 79 6t73 -22q12 -10 13 -23.5t-5 -24t-18.5 -15.5t-26.5 1q-43 18 -89.5 14t-91.5 -20q129 6 209 -56.5t70 -191.5q-10 -113 -62.5 -219t-115.5 -201 q-53 -80 -121 -162.5t-149.5 -151.5t-175 -117t-195.5 -56q-47 -4 -97.5 5t-85.5 46q-39 41 -45 96.5zM82 56.5q-2 -25.5 1 -50t12 -46t30 -36.5q35 -25 79 -23.5t81 9.5q111 23 205 86t174 137q84 78 152.5 168t117.5 193q18 37 40.5 89t34 107t4.5 106.5t-46 86.5 q-37 35 -92.5 36t-102.5 -8q-18 -4 -32.5 10.5t-12.5 36.5q-41 -23 -80.5 -51t-68.5 -51q-90 -74 -165 -161t-141 -183q-63 -92 -113 -195.5t-71 -214.5q-4 -20 -6 -45.5zM719 1251q-2 14 6 23.5t20.5 12.5t24.5 -1t18 -18q6 -10 23.5 -22.5t39 -24t44.5 -21.5t39 -16 q29 -10 61.5 -16.5t55.5 -22.5q16 -4 19 -16.5t-7 -22.5q-10 -14 -26.5 -8t-28.5 10q-63 20 -130 40.5t-122 57.5q-10 8 -21.5 18.5t-15.5 26.5z" />
<glyph unicode="&#xd3;" horiz-adv-x="911" d="M18 -22.5q-6 55.5 2 108.5q18 111 70.5 214t114.5 196q59 98 131 185t153 167q76 72 167.5 137.5t195.5 83.5q33 6 79 6t73 -22q12 -10 13 -23.5t-5 -24t-18.5 -15.5t-26.5 1q-43 18 -89.5 14t-91.5 -20q129 6 209 -56.5t70 -191.5q-10 -113 -62.5 -219t-115.5 -201 q-53 -80 -121 -162.5t-149.5 -151.5t-175 -117t-195.5 -56q-47 -4 -97.5 5t-85.5 46q-39 41 -45 96.5zM82 56.5q-2 -25.5 1 -50t12 -46t30 -36.5q35 -25 79 -23.5t81 9.5q111 23 205 86t174 137q84 78 152.5 168t117.5 193q18 37 40.5 89t34 107t4.5 106.5t-46 86.5 q-37 35 -92.5 36t-102.5 -8q-18 -4 -32.5 10.5t-12.5 36.5q-41 -23 -80.5 -51t-68.5 -51q-90 -74 -165 -161t-141 -183q-63 -92 -113 -195.5t-71 -214.5q-4 -20 -6 -45.5zM827 1135q-16 16 2.5 30.5t49 24.5t61.5 16t37 11q14 6 34.5 14t40 18.5t36 20.5t20.5 20 q6 16 20.5 19.5t26.5 -1.5t19.5 -18.5t-0.5 -29.5q-14 -31 -57.5 -48.5t-76.5 -27.5q-29 -10 -55.5 -17.5t-54.5 -15.5q-8 -2 -21.5 -7t-29 -9.5t-29.5 -5.5t-23 6z" />
<glyph unicode="&#xd4;" horiz-adv-x="911" d="M18 -22.5q-6 55.5 2 108.5q18 111 70.5 214t114.5 196q59 98 131 185t153 167q76 72 167.5 137.5t195.5 83.5q33 6 79 6t73 -22q12 -10 13 -23.5t-5 -24t-18.5 -15.5t-26.5 1q-43 18 -89.5 14t-91.5 -20q129 6 209 -56.5t70 -191.5q-10 -113 -62.5 -219t-115.5 -201 q-53 -80 -121 -162.5t-149.5 -151.5t-175 -117t-195.5 -56q-47 -4 -97.5 5t-85.5 46q-39 41 -45 96.5zM82 56.5q-2 -25.5 1 -50t12 -46t30 -36.5q35 -25 79 -23.5t81 9.5q111 23 205 86t174 137q84 78 152.5 168t117.5 193q18 37 40.5 89t34 107t4.5 106.5t-46 86.5 q-37 35 -92.5 36t-102.5 -8q-18 -4 -32.5 10.5t-12.5 36.5q-41 -23 -80.5 -51t-68.5 -51q-90 -74 -165 -161t-141 -183q-63 -92 -113 -195.5t-71 -214.5q-4 -20 -6 -45.5zM737 1151q2 25 25 33q43 16 82 36.5t78 45.5q10 6 27.5 21.5t36 29.5t35.5 19t30 -7q23 -23 33 -63.5 t20 -69.5q4 -10 12 -27.5t6 -31.5q-4 -29 -25.5 -19t-29.5 27l-59 108q-43 -18 -85 -42.5t-81 -53.5q-8 -6 -17.5 -16.5t-20.5 -17.5t-22.5 -10t-23.5 3q-23 10 -21 35z" />
<glyph unicode="&#xd5;" horiz-adv-x="911" d="M18 -22.5q-6 55.5 2 108.5q18 111 70.5 214t114.5 196q59 98 131 185t153 167q76 72 167.5 137.5t195.5 83.5q33 6 79 6t73 -22q12 -10 13 -23.5t-5 -24t-18.5 -15.5t-26.5 1q-43 18 -89.5 14t-91.5 -20q129 6 209 -56.5t70 -191.5q-10 -113 -62.5 -219t-115.5 -201 q-53 -80 -121 -162.5t-149.5 -151.5t-175 -117t-195.5 -56q-47 -4 -97.5 5t-85.5 46q-39 41 -45 96.5zM82 56.5q-2 -25.5 1 -50t12 -46t30 -36.5q35 -25 79 -23.5t81 9.5q111 23 205 86t174 137q84 78 152.5 168t117.5 193q18 37 40.5 89t34 107t4.5 106.5t-46 86.5 q-37 35 -92.5 36t-102.5 -8q-18 -4 -32.5 10.5t-12.5 36.5q-41 -23 -80.5 -51t-68.5 -51q-90 -74 -165 -161t-141 -183q-63 -92 -113 -195.5t-71 -214.5q-4 -20 -6 -45.5zM778 1164.5q-1 19.5 15 33.5q37 29 76.5 60.5t86.5 41.5q29 6 44.5 -4t24.5 -28.5t13 -40t11 -39.5 q6 -18 23.5 -14t36.5 18t37.5 31.5t24.5 23.5q10 10 22.5 24.5t31.5 12.5q23 -2 32 -23.5t-8 -37.5q-14 -14 -33.5 -29.5t-43 -30t-47 -25t-44.5 -16.5q-29 -6 -45 4.5t-25.5 29t-13.5 42t-10 41.5q-6 16 -24.5 10t-38 -21.5t-37 -32.5t-23.5 -24q-14 -16 -28.5 -31.5 t-36.5 -4.5q-20 10 -21 29.5z" />
<glyph unicode="&#xd6;" horiz-adv-x="911" d="M18 -22.5q-6 55.5 2 108.5q18 111 70.5 214t114.5 196q59 98 131 185t153 167q76 72 167.5 137.5t195.5 83.5q33 6 79 6t73 -22q12 -10 13 -23.5t-5 -24t-18.5 -15.5t-26.5 1q-43 18 -89.5 14t-91.5 -20q129 6 209 -56.5t70 -191.5q-10 -113 -62.5 -219t-115.5 -201 q-53 -80 -121 -162.5t-149.5 -151.5t-175 -117t-195.5 -56q-47 -4 -97.5 5t-85.5 46q-39 41 -45 96.5zM82 56.5q-2 -25.5 1 -50t12 -46t30 -36.5q35 -25 79 -23.5t81 9.5q111 23 205 86t174 137q84 78 152.5 168t117.5 193q18 37 40.5 89t34 107t4.5 106.5t-46 86.5 q-37 35 -92.5 36t-102.5 -8q-18 -4 -32.5 10.5t-12.5 36.5q-41 -23 -80.5 -51t-68.5 -51q-90 -74 -165 -161t-141 -183q-63 -92 -113 -195.5t-71 -214.5q-4 -20 -6 -45.5zM868.5 1160q-2.5 7 1.5 14.5t11.5 13.5t13.5 10q16 10 27.5 27.5t19.5 34.5q8 16 9 37.5t14 37.5 q10 14 24.5 16.5t25.5 -6t16 -23t-3 -28.5q-16 -35 -40.5 -67.5t-53.5 -59.5q-10 -6 -22.5 -16t-28.5 -4q-12 6 -14.5 13zM1021 1167.5q-1 10.5 9 18.5q27 20 46.5 49t35.5 59q6 10 12 24.5t13.5 29t17.5 23.5t25 9q23 -4 32 -23.5t-6 -35.5l-61 -76q-16 -23 -38 -53.5 t-44 -42.5q-8 -10 -18.5 -8t-16.5 9t-7 17.5z" />
<glyph unicode="&#xd7;" horiz-adv-x="505" d="M13.5 53.5q0.5 14.5 15.5 20.5q43 20 92 53t86 61l-10 48q-6 27 -19.5 58.5t-9.5 59.5q2 20 24.5 28.5t36.5 -9.5q6 -8 10.5 -21.5t5.5 -29t2 -29.5t3 -27l4 -43l33 31q12 10 30.5 27.5t38 35t39 34t33.5 22.5q23 8 41 -10.5t6 -40.5q-6 -12 -24.5 -27.5t-39 -30t-41 -27 t-30.5 -20.5l-80 -55v-11.5t2 -13.5q2 -14 2 -21v-14.5t1 -16.5t3 -24q2 -8 0 -17t-12 -17t-22.5 -3t-10.5 17v46t-6 48l-8 -4l-143 -92q-10 -4 -19.5 -9t-19.5 3q-14 6 -13.5 20.5z" />
<glyph unicode="&#xd8;" horiz-adv-x="911" d="M-93 -103.5q-1 9.5 9 17.5l100 78q-2 43 4 94q18 111 70.5 214t114.5 196q59 98 131 185t153 167q76 72 167.5 137.5t195.5 83.5q33 6 79 6t73 -22q12 -10 13 -23.5t-5 -24t-18.5 -15.5t-26.5 1q-43 18 -89.5 14t-91.5 -20q80 4 142.5 -19.5t97.5 -70.5l57 51 q10 10 24.5 27.5t31 35t34 31t31.5 15.5q29 4 40 -20.5t-11 -43.5l-137 -119q-16 -16 -41 -34q14 -41 10 -101q-10 -113 -62.5 -219t-115.5 -201q-53 -80 -121 -162.5t-149.5 -151.5t-175 -117t-195.5 -56q-47 -4 -97.5 5t-85.5 46q-25 27 -36 62l-37 -33l-41 -33 q-10 -8 -19.5 -6t-15.5 9t-7 16.5zM80 43q88 72 171 147.5t167 153.5l569 514q-4 6 -9 12.5t-11 12.5q-37 35 -92.5 36t-102.5 -8q-18 -4 -32.5 10.5t-12.5 36.5q-41 -23 -80.5 -51t-68.5 -51q-90 -74 -165 -161t-141 -183q-63 -92 -113 -195.5t-71 -214.5q-4 -14 -5 -28.5 t-3 -30.5zM86 -10q4 -18 13.5 -35.5t25.5 -30.5q35 -25 79 -23.5t81 9.5q111 23 205 86t174 137q84 78 152.5 168t117.5 193q14 27 30.5 64.5t29 78.5t18.5 83t0 79q-59 -51 -140 -122t-170.5 -149.5t-181.5 -159.5t-172 -152t-143.5 -125t-93.5 -81z" />
<glyph unicode="&#xd9;" horiz-adv-x="1521" d="M20 641q-14 27 13 47q127 100 263 192.5t290 151.5q29 10 68.5 21.5t78.5 13.5t73 -11.5t50 -49.5q14 -37 8 -76t-23.5 -77t-42 -71.5t-44.5 -60.5q-66 -88 -139.5 -170t-145.5 -166q-57 -66 -111.5 -132.5t-107.5 -137.5q-23 -31 -46.5 -64t-45.5 -67q-16 -23 -41 -61 t-21 -66q14 2 35 11t41.5 21.5t37.5 23.5t26 15q45 29 89 56.5t89 56.5q90 61 176 124.5t172 129.5t171 135.5t169 138.5q72 63 145.5 126t138.5 132q10 14 20.5 25.5t27.5 15.5q23 2 35 -14t4 -39q-8 -16 -25.5 -30.5t-36.5 -26.5q-86 -82 -159.5 -176.5t-141.5 -190.5 q-39 -59 -71.5 -120.5t-55.5 -127.5q-12 -35 -20.5 -77.5t4.5 -75.5l2 -2q27 -10 60.5 -3t62.5 15q113 31 223 78l198 96q8 4 18.5 5t17.5 -2t8.5 -11t-7.5 -23q-10 -18 -43.5 -28.5t-52.5 -20.5q-49 -25 -100 -52.5t-105.5 -53t-109 -46t-109.5 -28.5q-80 -16 -114.5 28 t-20.5 117q8 51 28.5 103.5t48 101.5t58.5 96.5t62 90.5l71 100l-245 -197q-98 -78 -194.5 -153.5t-197.5 -151.5q-45 -35 -93 -72.5t-98 -72.5t-103.5 -64.5t-108.5 -46.5q-41 -10 -62.5 0t-28.5 33.5t-2 53.5t19 59q49 102 127 190t152 174q80 90 160.5 179t154.5 186 q8 12 28.5 39.5t43 63.5t43 75t29 70.5t-1 54t-44.5 24.5q-51 2 -105 -10t-106.5 -33.5t-101.5 -49.5t-92 -54q-43 -29 -84 -62.5t-82 -68.5q-10 -8 -29.5 -29.5t-42 -40t-44 -25t-34.5 18.5zM967 1116q-2 14 6 23.5t20.5 12.5t24.5 -1t18 -18q6 -10 23.5 -22.5t39 -24 t44 -21.5t39.5 -16q29 -10 61.5 -16.5t54.5 -22.5q16 -4 19.5 -16.5t-6.5 -22.5q-10 -14 -26.5 -8t-29.5 10q-63 20 -129.5 40.5t-121.5 57.5q-10 8 -21.5 18.5t-15.5 26.5z" />
<glyph unicode="&#xda;" horiz-adv-x="1521" d="M20 641q-14 27 13 47q127 100 263 192.5t290 151.5q29 10 68.5 21.5t78.5 13.5t73 -11.5t50 -49.5q14 -37 8 -76t-23.5 -77t-42 -71.5t-44.5 -60.5q-66 -88 -139.5 -170t-145.5 -166q-57 -66 -111.5 -132.5t-107.5 -137.5q-23 -31 -46.5 -64t-45.5 -67q-16 -23 -41 -61 t-21 -66q14 2 35 11t41.5 21.5t37.5 23.5t26 15q45 29 89 56.5t89 56.5q90 61 176 124.5t172 129.5t171 135.5t169 138.5q72 63 145.5 126t138.5 132q10 14 20.5 25.5t27.5 15.5q23 2 35 -14t4 -39q-8 -16 -25.5 -30.5t-36.5 -26.5q-86 -82 -159.5 -176.5t-141.5 -190.5 q-39 -59 -71.5 -120.5t-55.5 -127.5q-12 -35 -20.5 -77.5t4.5 -75.5l2 -2q27 -10 60.5 -3t62.5 15q113 31 223 78l198 96q8 4 18.5 5t17.5 -2t8.5 -11t-7.5 -23q-10 -18 -43.5 -28.5t-52.5 -20.5q-49 -25 -100 -52.5t-105.5 -53t-109 -46t-109.5 -28.5q-80 -16 -114.5 28 t-20.5 117q8 51 28.5 103.5t48 101.5t58.5 96.5t62 90.5l71 100l-245 -197q-98 -78 -194.5 -153.5t-197.5 -151.5q-45 -35 -93 -72.5t-98 -72.5t-103.5 -64.5t-108.5 -46.5q-41 -10 -62.5 0t-28.5 33.5t-2 53.5t19 59q49 102 127 190t152 174q80 90 160.5 179t154.5 186 q8 12 28.5 39.5t43 63.5t43 75t29 70.5t-1 54t-44.5 24.5q-51 2 -105 -10t-106.5 -33.5t-101.5 -49.5t-92 -54q-43 -29 -84 -62.5t-82 -68.5q-10 -8 -29.5 -29.5t-42 -40t-44 -25t-34.5 18.5zM1057 944q-16 16 2 30.5t49 25t61.5 16.5t36.5 10q14 6 35 14.5t40 18.5 t35.5 20.5t20.5 20.5q6 16 20.5 19t27 -2t19.5 -18.5t-1 -29.5q-14 -31 -57 -48t-76 -28q-29 -10 -55.5 -17t-55.5 -15q-8 -2 -21.5 -7.5t-28.5 -9.5t-29.5 -5t-22.5 5z" />
<glyph unicode="&#xdb;" horiz-adv-x="1521" d="M20 641q-14 27 13 47q127 100 263 192.5t290 151.5q29 10 68.5 21.5t78.5 13.5t73 -11.5t50 -49.5q14 -37 8 -76t-23.5 -77t-42 -71.5t-44.5 -60.5q-66 -88 -139.5 -170t-145.5 -166q-57 -66 -111.5 -132.5t-107.5 -137.5q-23 -31 -46.5 -64t-45.5 -67q-16 -23 -41 -61 t-21 -66q14 2 35 11t41.5 21.5t37.5 23.5t26 15q45 29 89 56.5t89 56.5q90 61 176 124.5t172 129.5t171 135.5t169 138.5q72 63 145.5 126t138.5 132q10 14 20.5 25.5t27.5 15.5q23 2 35 -14t4 -39q-8 -16 -25.5 -30.5t-36.5 -26.5q-86 -82 -159.5 -176.5t-141.5 -190.5 q-39 -59 -71.5 -120.5t-55.5 -127.5q-12 -35 -20.5 -77.5t4.5 -75.5l2 -2q27 -10 60.5 -3t62.5 15q113 31 223 78l198 96q8 4 18.5 5t17.5 -2t8.5 -11t-7.5 -23q-10 -18 -43.5 -28.5t-52.5 -20.5q-49 -25 -100 -52.5t-105.5 -53t-109 -46t-109.5 -28.5q-80 -16 -114.5 28 t-20.5 117q8 51 28.5 103.5t48 101.5t58.5 96.5t62 90.5l71 100l-245 -197q-98 -78 -194.5 -153.5t-197.5 -151.5q-45 -35 -93 -72.5t-98 -72.5t-103.5 -64.5t-108.5 -46.5q-41 -10 -62.5 0t-28.5 33.5t-2 53.5t19 59q49 102 127 190t152 174q80 90 160.5 179t154.5 186 q8 12 28.5 39.5t43 63.5t43 75t29 70.5t-1 54t-44.5 24.5q-51 2 -105 -10t-106.5 -33.5t-101.5 -49.5t-92 -54q-43 -29 -84 -62.5t-82 -68.5q-10 -8 -29.5 -29.5t-42 -40t-44 -25t-34.5 18.5zM972 973q2 25 25 33q43 16 82 36.5t78 44.5q10 6 27.5 21.5t36 30t36 19.5 t29.5 -7q23 -23 33 -63.5t20 -69.5q4 -10 12.5 -27.5t6.5 -32.5q-4 -29 -25.5 -18.5t-29.5 27.5l-60 108q-43 -18 -85 -42.5t-81 -53.5q-8 -6 -17 -16.5t-20.5 -17.5t-22.5 -10t-24 3q-23 10 -21 35z" />
<glyph unicode="&#xdc;" horiz-adv-x="1521" d="M20 641q-14 27 13 47q127 100 263 192.5t290 151.5q29 10 68.5 21.5t78.5 13.5t73 -11.5t50 -49.5q14 -37 8 -76t-23.5 -77t-42 -71.5t-44.5 -60.5q-66 -88 -139.5 -170t-145.5 -166q-57 -66 -111.5 -132.5t-107.5 -137.5q-23 -31 -46.5 -64t-45.5 -67q-16 -23 -41 -61 t-21 -66q14 2 35 11t41.5 21.5t37.5 23.5t26 15q45 29 89 56.5t89 56.5q90 61 176 124.5t172 129.5t171 135.5t169 138.5q72 63 145.5 126t138.5 132q10 14 20.5 25.5t27.5 15.5q23 2 35 -14t4 -39q-8 -16 -25.5 -30.5t-36.5 -26.5q-86 -82 -159.5 -176.5t-141.5 -190.5 q-39 -59 -71.5 -120.5t-55.5 -127.5q-12 -35 -20.5 -77.5t4.5 -75.5l2 -2q27 -10 60.5 -3t62.5 15q113 31 223 78l198 96q8 4 18.5 5t17.5 -2t8.5 -11t-7.5 -23q-10 -18 -43.5 -28.5t-52.5 -20.5q-49 -25 -100 -52.5t-105.5 -53t-109 -46t-109.5 -28.5q-80 -16 -114.5 28 t-20.5 117q8 51 28.5 103.5t48 101.5t58.5 96.5t62 90.5l71 100l-245 -197q-98 -78 -194.5 -153.5t-197.5 -151.5q-45 -35 -93 -72.5t-98 -72.5t-103.5 -64.5t-108.5 -46.5q-41 -10 -62.5 0t-28.5 33.5t-2 53.5t19 59q49 102 127 190t152 174q80 90 160.5 179t154.5 186 q8 12 28.5 39.5t43 63.5t43 75t29 70.5t-1 54t-44.5 24.5q-51 2 -105 -10t-106.5 -33.5t-101.5 -49.5t-92 -54q-43 -29 -84 -62.5t-82 -68.5q-10 -8 -29.5 -29.5t-42 -40t-44 -25t-34.5 18.5zM1051 965.5q-2 7.5 2 14.5t11 13t13 11q16 10 27.5 27.5t19.5 33.5t9.5 37.5 t13.5 38.5q10 14 24.5 16t25.5 -6t16 -22.5t-3 -28.5q-16 -35 -40.5 -68t-53.5 -59q-10 -6 -22.5 -16.5t-28.5 -4.5q-12 6 -14 13.5zM1203 973q-1 10 9 18q27 20 46.5 49t35.5 60q6 10 12.5 24.5t13.5 28.5t17.5 23.5t24.5 9.5q23 -4 32 -23.5t-5 -36.5l-62 -75 q-16 -23 -37.5 -53.5t-44.5 -43.5q-8 -10 -18 -8t-16.5 9.5t-7.5 17.5z" />
<glyph unicode="&#xdd;" horiz-adv-x="1312" d="M10 39q0 33 16.5 33t43.5 -11q2 0 17 -10t31.5 -22.5t32 -23.5t21.5 -15q45 -31 95 -56.5t103.5 -39t106.5 -9.5t105 33q61 37 110 91t91 115.5t78 126t73 122.5q35 55 70.5 109.5t68.5 107.5q-55 -57 -113.5 -110.5t-119.5 -102.5q-33 -27 -70 -54.5t-77 -51t-82 -41 t-85 -21.5q-66 -6 -85 23.5t-14 72.5t25.5 89t36.5 75q47 86 103.5 164t103.5 162q8 14 20.5 36.5t24 47t17.5 48t0 42.5q-4 10 -23.5 6t-43 -14.5t-44 -21.5t-24.5 -13q-84 -47 -160 -110.5t-144 -129.5l-65 -68q-16 -16 -32.5 -40.5t-35.5 -36.5q-14 -10 -27.5 -6 t-21.5 15t-9 24.5t11 25.5q78 70 157 137.5t159 132.5q29 25 61.5 54.5t67 54.5t72.5 43t79 22q57 6 80 -33.5t12 -88.5q-12 -53 -42.5 -102.5t-63.5 -94.5q-4 -6 -29.5 -41t-58.5 -83t-67 -103.5t-57.5 -102.5t-30.5 -79.5t16 -34.5q31 -4 71.5 9t82.5 34.5t77 45t53 38.5 q98 66 183.5 142.5t164.5 162.5l54 57q29 49 60.5 98.5t62.5 100.5q16 23 34.5 50.5t39 53t44 44t49.5 24.5q25 6 36.5 -3.5t10.5 -24.5t-10.5 -33.5t-23.5 -32.5l-86 -99l-156 -178q-20 -33 -39.5 -62.5t-38.5 -60.5l-159 -252q-41 -61 -80 -130.5t-82 -137.5t-92.5 -129 t-110.5 -107q66 14 127 36t121 48q111 47 215 96.5t211 104.5q10 6 18 2t12.5 -11t3.5 -16.5t-12 -15.5l-90 -41l-225 -114q-109 -47 -213.5 -92.5t-218.5 -67.5q-117 -18 -229.5 3t-211.5 87q-12 8 -35.5 22.5t-46 32t-39 36.5t-16.5 38zM999 1096q-16 16 2.5 30.5t49 24.5 t61.5 16.5t37 10.5q14 6 34.5 14t40 18.5t36 20.5t20.5 20q6 16 20.5 19.5t26.5 -1.5t19.5 -18.5t-0.5 -29.5q-14 -31 -57.5 -48.5t-76.5 -27.5q-29 -10 -55.5 -17.5t-54.5 -15.5q-8 -2 -21.5 -7t-29 -9t-29.5 -5t-23 5z" />
<glyph unicode="&#xde;" horiz-adv-x="1165" d="M8 59q-10 18 1 35t32 15q72 -2 145.5 0t147.5 12q66 111 131 217t137 213l27 39q-47 -10 -91 -23.5t-87 -27.5q-49 -16 -95.5 -38t-87.5 -50q-16 -12 -30.5 -6t-21.5 18t-5 27.5t20 23.5q102 47 213 77t222 52q53 78 109 147.5t120 135.5q37 41 76 75.5t86 59.5 q12 8 34.5 20.5t46 20.5t46 8t37.5 -14q16 -16 6 -39t-35 -23q-53 2 -104.5 -22.5t-97.5 -63.5t-86 -83t-70 -81q-27 -33 -52.5 -63.5t-48.5 -61.5q104 20 216 27.5t210 -24.5q45 -16 81 -48t46 -82q10 -49 -18.5 -92t-63.5 -71q-92 -76 -203.5 -119t-222.5 -78 q-205 -61 -413 -98l-60 -109l-117 -213q-10 -16 -21 -42.5t-34 -28.5t-35 16t-2 37q47 86 99.5 167t103.5 162q-55 -8 -108.5 -13t-108.5 -11q-18 -2 -41 -3t-33 23zM395 127q154 23 298.5 66t279.5 110q45 23 88 48.5t82 56.5q10 8 24.5 21t25.5 27.5t18.5 31t2.5 32.5 q-10 45 -53 66.5t-96 31t-107.5 8.5t-87.5 -3q-47 -4 -91 -8.5t-89 -12.5l-137 -207z" />
</font>
</defs>
</svg>
